<svg width="35" height="37" viewBox="0 0 35 37" fill="none" xmlns="http://www.w3.org/2000/svg">
<path d="M21.1125 25.8724C21.3291 26.0569 21.6638 26.0385 21.8607 25.8355C22.0576 25.6326 22.0379 25.3189 21.8213 25.1344L14.2012 18.6768C14.0043 18.5107 14.0043 18.2708 14.2012 18.1048L21.8213 11.8686C22.0379 11.684 22.0576 11.3704 21.8804 11.1674C21.6835 10.9645 21.3487 10.946 21.1322 11.1121L13.5121 17.3668C12.8426 17.9203 12.8229 18.8428 13.4924 19.4148L21.1125 25.8724Z" fill="#00BFA6"/>
<path d="M21.1125 25.8724C21.3291 26.0569 21.6638 26.0385 21.8607 25.8355C22.0576 25.6326 22.0379 25.3189 21.8213 25.1344L14.2012 18.6768C14.0043 18.5107 14.0043 18.2708 14.2012 18.1048L21.8213 11.8686C22.0379 11.684 22.0576 11.3704 21.8804 11.1674C21.6835 10.9645 21.3487 10.946 21.1322 11.1121L13.5121 17.3668C12.8426 17.9203 12.8229 18.8428 13.4924 19.4148L21.1125 25.8724Z" fill="black" fill-opacity="0.2"/>
</svg>
