<svg width="20" height="16" viewBox="0 0 20 16" fill="none" xmlns="http://www.w3.org/2000/svg">
<path d="M2.12234 5.59475C1.99358 5.27705 1.64564 5.12988 1.34519 5.26604C1.04475 5.4022 0.905571 5.77012 1.03434 6.08782L2.12234 5.59475ZM7.13504 11.4637C7.31331 11.174 7.23572 10.7863 6.96174 10.5978C6.68776 10.4093 6.32114 10.4914 6.14287 10.7811L7.13504 11.4637ZM5.02796 12.593C4.84968 12.8826 4.92727 13.2703 5.20125 13.4588C5.47524 13.6473 5.84186 13.5653 6.02013 13.2756L5.02796 12.593ZM17.9052 6.08782C18.0339 5.77012 17.8948 5.4022 17.5943 5.26604C17.2939 5.12988 16.9459 5.27705 16.8171 5.59475L17.9052 6.08782ZM15.759 10.9809C15.9901 11.2253 16.3648 11.2253 16.5959 10.9809C16.8271 10.7365 16.8271 10.3402 16.5959 10.0958L15.759 10.9809ZM8.8779 13.7687C8.8779 14.1144 9.14289 14.3946 9.46975 14.3946C9.79661 14.3946 10.0616 14.1144 10.0616 13.7687H8.8779ZM12.9194 13.2756C13.0977 13.5653 13.4643 13.6473 13.7382 13.4588C14.0122 13.2703 14.0898 12.8826 13.9115 12.593L12.9194 13.2756ZM4.36427 9.72923C4.5954 9.48482 4.5954 9.08853 4.36427 8.84411C4.13314 8.5997 3.75839 8.5997 3.52726 8.84411L4.36427 9.72923ZM2.34354 10.0958C2.11241 10.3402 2.11241 10.7365 2.34354 10.9809C2.57468 11.2253 2.94942 11.2253 3.18056 10.9809L2.34354 10.0958ZM9.46975 11.0567C6.92565 11.0567 5.09896 9.71705 3.88626 8.33606C3.28008 7.64576 2.83564 6.95349 2.54313 6.43387C2.39722 6.17465 2.29004 5.96005 2.22023 5.81239C2.18534 5.73861 2.15985 5.68169 2.14358 5.64444C2.13545 5.62582 2.12962 5.61214 2.12609 5.60374C2.12432 5.59954 2.12296 5.59626 2.12234 5.59475C2.12232 5.59472 2.12236 5.59482 2.12234 5.59475C2.12242 5.59494 2.12234 5.59475 1.57834 5.84128C1.03434 6.08782 1.03422 6.08754 1.03434 6.08782C1.03438 6.08794 1.03473 6.08879 1.03483 6.08904C1.03503 6.08953 1.03527 6.09012 1.03555 6.09079C1.03609 6.09214 1.0368 6.09384 1.03764 6.0959C1.03934 6.09999 1.04163 6.10549 1.04451 6.11234C1.05027 6.12605 1.05841 6.14515 1.06897 6.16932C1.09007 6.21764 1.12084 6.28622 1.16148 6.37216C1.24271 6.54395 1.36364 6.78569 1.52599 7.07409C1.85 7.64971 2.34266 8.41778 3.01884 9.18775C4.37085 10.7274 6.48987 12.3084 9.46975 12.3084V11.0567ZM12.0838 10.54C11.318 10.8588 10.4496 11.0567 9.46975 11.0567V12.3084C10.6047 12.3084 11.6198 12.0783 12.5173 11.7047L12.0838 10.54ZM6.14287 10.7811L5.02796 12.593L6.02013 13.2756L7.13504 11.4637L6.14287 10.7811ZM17.3612 5.84128C16.8171 5.59475 16.8171 5.59487 16.8171 5.59475C16.8172 5.59462 16.8175 5.59386 16.8175 5.59395C16.8174 5.59411 16.8172 5.59472 16.8167 5.59575C16.8159 5.59781 16.8143 5.60158 16.812 5.607C16.8074 5.61784 16.8 5.63525 16.7897 5.65874C16.7689 5.70574 16.7366 5.77699 16.6924 5.86855C16.6041 6.05179 16.4686 6.31552 16.2843 6.62835C15.9146 7.25584 15.3538 8.07095 14.5887 8.83034L15.3988 9.743C16.2582 8.89001 16.8811 7.98242 17.289 7.2903C17.4934 6.94335 17.6453 6.64805 17.747 6.43722C17.7978 6.33174 17.8362 6.24719 17.8625 6.18765C17.8756 6.15787 17.8857 6.13433 17.8928 6.11753C17.8964 6.10912 17.8992 6.10241 17.9013 6.09743C17.9023 6.09495 17.9031 6.0929 17.9038 6.09129C17.9041 6.09049 17.9043 6.0898 17.9046 6.08922C17.9047 6.08893 17.9051 6.08805 17.9052 6.08782C17.9052 6.08788 17.9053 6.0877 17.9052 6.08782C17.9053 6.08768 17.9052 6.08782 17.3612 5.84128ZM14.5887 8.83034C13.9108 9.50309 13.0792 10.1257 12.0838 10.54L12.5173 11.7047C13.6802 11.2208 14.6359 10.5001 15.3988 9.743L14.5887 8.83034ZM14.5753 9.72923L15.759 10.9809L16.5959 10.0958L15.4122 8.84411L14.5753 9.72923ZM8.8779 11.6826V13.7687H10.0616V11.6826H8.8779ZM11.8045 11.4637L12.9194 13.2756L13.9115 12.593L12.7966 10.7811L11.8045 11.4637ZM3.52726 8.84411L2.34354 10.0958L3.18056 10.9809L4.36427 9.72923L3.52726 8.84411Z" fill="#1C274C"/>
</svg>
