<svg width="22" height="22" viewBox="0 0 22 22" fill="none" xmlns="http://www.w3.org/2000/svg">
<g filter="url(#filter0_d_3_4755)">
<path d="M11 1.25C9.6815 1.25 8.39257 1.61656 7.29624 2.30331C6.19991 2.99007 5.34543 3.96619 4.84085 5.10823C4.33626 6.25027 4.20424 7.50693 4.46148 8.71931C4.71871 9.93169 5.35365 11.0453 6.286 11.9194C7.21835 12.7935 8.40623 13.3888 9.69944 13.6299C10.9926 13.8711 12.3331 13.7473 13.5513 13.2742C14.7694 12.8012 15.8106 12.0001 16.5432 10.9723C17.2757 9.94451 17.6667 8.73613 17.6667 7.5C17.6667 6.67924 17.4943 5.86651 17.1592 5.10823C16.8242 4.34994 16.3331 3.66095 15.7141 3.08058C15.095 2.50022 14.3601 2.03984 13.5513 1.72575C12.7424 1.41166 11.8755 1.25 11 1.25ZM14.784 6.39812L10.784 9.83562C10.6574 9.94449 10.4908 10.0033 10.319 9.99982C10.1472 9.99633 9.98353 9.93079 9.86204 9.81687L7.86204 7.94187C7.79837 7.88422 7.74758 7.81525 7.71264 7.739C7.6777 7.66275 7.65931 7.58074 7.65854 7.49775C7.65777 7.41476 7.67464 7.33246 7.70816 7.25565C7.74168 7.17884 7.79118 7.10906 7.85378 7.05038C7.91637 6.99169 7.99081 6.94529 8.07274 6.91386C8.15467 6.88244 8.24246 6.86662 8.33098 6.86734C8.4195 6.86806 8.50698 6.88531 8.58831 6.91806C8.66965 6.95082 8.74321 6.99843 8.80471 7.05812L10.3534 8.51L13.8827 5.47687C14.013 5.36482 14.1855 5.30589 14.3621 5.31304C14.5388 5.32019 14.7052 5.39283 14.8247 5.515C14.9442 5.63717 15.0071 5.79884 14.9995 5.96446C14.9918 6.13008 14.9144 6.28607 14.784 6.39812Z" fill="white"/>
</g>
<defs>
<filter id="filter0_d_3_4755" x="-1" y="0" width="24" height="23" filterUnits="userSpaceOnUse" color-interpolation-filters="sRGB">
<feFlood flood-opacity="0" result="BackgroundImageFix"/>
<feColorMatrix in="SourceAlpha" type="matrix" values="0 0 0 0 0 0 0 0 0 0 0 0 0 0 0 0 0 0 127 0" result="hardAlpha"/>
<feOffset dy="4"/>
<feGaussianBlur stdDeviation="2"/>
<feComposite in2="hardAlpha" operator="out"/>
<feColorMatrix type="matrix" values="0 0 0 0 0 0 0 0 0 0 0 0 0 0 0 0 0 0 0.25 0"/>
<feBlend mode="normal" in2="BackgroundImageFix" result="effect1_dropShadow_3_4755"/>
<feBlend mode="normal" in="SourceGraphic" in2="effect1_dropShadow_3_4755" result="shape"/>
</filter>
</defs>
</svg>
