<svg width="366" height="726" viewBox="0 0 366 726" fill="none" xmlns="http://www.w3.org/2000/svg">
<g opacity="0.08" clip-path="url(#clip0_7_390)">
<path d="M63.6052 493.172H62.4411C62.2867 493.171 62.1388 493.021 62.0297 492.753C61.9205 492.485 61.8592 492.122 61.859 491.743V488.884C61.8592 488.505 61.9205 488.142 62.0297 487.874C62.1388 487.606 62.2867 487.455 62.4411 487.455H63.6052C63.7595 487.455 63.9075 487.606 64.0166 487.874C64.1257 488.142 64.1871 488.505 64.1872 488.884V491.743C64.1871 492.122 64.1257 492.485 64.0166 492.753C63.9075 493.021 63.7595 493.171 63.6052 493.172Z" fill="#CCCCCC"/>
<path d="M63.045 490.022C63.0228 490.022 63.0007 490.018 62.9788 490.008C62.9286 489.987 62.8806 489.942 62.8375 489.875C62.7944 489.808 62.757 489.721 62.7276 489.619C62.6982 489.517 62.6773 489.402 62.6661 489.279C62.6548 489.157 62.6535 489.031 62.6621 488.908L66.4996 434.077C66.5177 433.829 66.5749 433.609 66.6588 433.464C66.7426 433.32 66.8464 433.263 66.9474 433.305C67.0484 433.348 67.1384 433.487 67.1978 433.692C67.2572 433.897 67.2812 434.151 67.2645 434.4L63.427 489.231C63.4115 489.452 63.3646 489.653 63.2948 489.797C63.2249 489.942 63.1365 490.022 63.045 490.022Z" fill="#CCCCCC"/>
<path d="M63.0441 490.022C62.9526 490.022 62.8642 489.942 62.7943 489.797C62.7244 489.653 62.6776 489.452 62.6621 489.231L58.8246 434.4C58.808 434.151 58.8319 433.897 58.8913 433.692C58.9508 433.487 59.0408 433.348 59.1418 433.305C59.2428 433.263 59.3465 433.32 59.4304 433.464C59.5143 433.609 59.5715 433.829 59.5895 434.077L63.427 488.908C63.4356 489.031 63.4343 489.157 63.423 489.279C63.4118 489.402 63.3908 489.517 63.3614 489.619C63.332 489.721 63.2947 489.808 63.2516 489.875C63.2085 489.942 63.1605 489.987 63.1103 490.008C63.0884 490.018 63.0663 490.022 63.0441 490.022Z" fill="#CCCCCC"/>
<path d="M71.306 424.691C71.68 418.184 70.2648 412.313 68.1447 411.579C66.0247 410.844 64.0029 415.523 63.6288 422.03C63.3133 427.518 64.2731 432.54 65.8526 434.424L65.7627 435.988L67.682 436.653L67.7719 435.089C69.502 434.353 70.9905 430.179 71.306 424.691Z" fill="#FF6584"/>
<path d="M62.394 421.73C61.9348 415.256 59.8527 410.739 57.7433 411.641C55.6339 412.543 54.2965 418.523 54.7557 424.997C55.143 430.457 56.6855 434.511 58.4243 435.11L58.5347 436.666L60.4443 435.85L60.3339 434.293C61.8879 432.286 62.7813 427.19 62.394 421.73Z" fill="#CCCCCC"/>
<path d="M63.0231 488.884C62.9201 488.884 62.8215 488.784 62.7487 488.605C62.6759 488.426 62.635 488.184 62.635 487.931V431.565C62.6346 431.439 62.6443 431.314 62.6636 431.198C62.6829 431.081 62.7114 430.975 62.7475 430.886C62.7835 430.796 62.8265 430.725 62.8738 430.677C62.9211 430.629 62.9718 430.604 63.023 430.604C63.0743 430.604 63.125 430.629 63.1723 430.677C63.2196 430.725 63.2626 430.796 63.2986 430.886C63.3347 430.975 63.3632 431.081 63.3825 431.198C63.4018 431.314 63.4115 431.439 63.4111 431.565V487.931C63.4111 488.184 63.3702 488.426 63.2974 488.605C63.2247 488.784 63.126 488.884 63.0231 488.884Z" fill="#CCCCCC"/>
<path d="M66.6593 420.738C66.6593 414.166 64.9237 408.839 62.7826 408.839C60.6416 408.839 58.906 414.166 58.906 420.738C58.906 426.28 60.1423 430.924 61.8135 432.247V433.826H63.7518V432.247C65.423 430.924 66.6593 426.28 66.6593 420.738Z" fill="#00BFA6"/>
<path d="M243.721 726L243.643 725.982L122.28 698.299L11.9204 723.472C10.409 723.817 8.88486 723.383 7.44551 722.2C6.00616 721.016 4.68323 719.107 3.56133 716.597C2.43942 714.086 1.54321 711.028 0.929978 707.618C0.316748 704.209 -6.5707e-06 700.522 -3.10149e-05 696.795V52.3111C-0.0111713 45.6266 1.00028 39.1754 2.83407 34.235C4.66786 29.2946 7.19029 26.225 9.90194 25.634L122.28 0L122.358 0.0181039L243.721 27.701L354.079 2.52787C355.591 2.1831 357.115 2.61652 358.554 3.80041C359.994 4.9843 361.317 6.89261 362.439 9.40335C363.56 11.9141 364.457 14.972 365.07 18.3817C365.683 21.7913 366 25.4776 366 29.2049V673.688C366.011 680.373 365 686.824 363.166 691.765C361.332 696.705 358.81 699.775 356.098 700.366L243.721 726ZM122.28 694.159L122.358 694.177L243.72 721.86L355.943 696.262C358.237 695.762 360.372 693.164 361.923 688.984C363.475 684.803 364.331 679.345 364.321 673.688V29.2049C364.321 26.051 364.053 22.9318 363.534 20.0467C363.016 17.1616 362.257 14.5741 361.308 12.4496C360.359 10.3251 359.239 8.7103 358.021 7.70851C356.803 6.70672 355.514 6.33995 354.235 6.63165L243.721 31.841L243.643 31.8229L122.28 4.14001L10.0572 29.7378C7.76273 30.2381 5.62838 32.8355 4.07672 37.0159C2.52506 41.1963 1.66921 46.655 1.67861 52.3111V696.795C1.67862 699.949 1.94664 703.068 2.46552 705.953C2.9844 708.838 3.74273 711.426 4.69204 713.55C5.64134 715.675 6.76073 717.29 7.97865 718.292C9.19656 719.293 10.4862 719.66 11.7651 719.368L122.28 694.159Z" fill="#E6E6E6"/>
<path d="M349.686 164.945C349.686 146.618 343.632 103.13 336.163 103.13C328.694 103.13 322.64 146.618 322.64 164.945C322.642 173.749 324.068 182.189 326.603 188.412C329.139 194.635 332.578 198.131 336.163 198.131C339.748 198.131 343.186 194.635 345.722 188.412C348.258 182.189 349.684 173.749 349.686 164.945Z" fill="#3F3D56"/>
<path d="M336.163 238.477C336.122 238.477 336.083 238.437 336.054 238.366C336.025 238.294 336.008 238.198 336.008 238.097V160.58C336.009 160.48 336.025 160.384 336.054 160.313C336.083 160.242 336.122 160.203 336.163 160.203C336.204 160.203 336.243 160.242 336.272 160.313C336.301 160.384 336.317 160.48 336.318 160.58V238.097C336.318 238.147 336.314 238.196 336.306 238.242C336.298 238.288 336.287 238.33 336.272 238.366C336.258 238.401 336.241 238.429 336.222 238.448C336.203 238.467 336.183 238.477 336.163 238.477Z" fill="#CCCCCC"/>
<path d="M336.163 175.063C336.141 175.063 336.119 175.052 336.099 175.029C336.078 175.007 336.061 174.973 336.046 174.932L328.268 152.908C328.242 152.832 328.228 152.733 328.231 152.633C328.234 152.533 328.253 152.439 328.284 152.374C328.315 152.308 328.356 152.275 328.396 152.282C328.437 152.289 328.475 152.335 328.502 152.411L336.28 174.435C336.299 174.49 336.312 174.557 336.316 174.629C336.32 174.701 336.316 174.775 336.304 174.841C336.291 174.907 336.271 174.963 336.247 175.003C336.222 175.042 336.193 175.063 336.163 175.063Z" fill="#CCCCCC"/>
<path d="M336.163 187.773C336.132 187.773 336.102 187.751 336.077 187.709C336.052 187.668 336.032 187.608 336.02 187.539C336.008 187.47 336.005 187.393 336.011 187.32C336.017 187.246 336.032 187.178 336.054 187.125L340.473 176.274C340.487 176.238 340.504 176.21 340.523 176.191C340.542 176.172 340.562 176.162 340.582 176.162C340.603 176.162 340.623 176.172 340.641 176.191C340.66 176.21 340.677 176.238 340.692 176.274C340.706 176.309 340.717 176.351 340.725 176.397C340.733 176.443 340.737 176.492 340.737 176.542C340.737 176.592 340.733 176.641 340.725 176.687C340.717 176.733 340.706 176.775 340.692 176.81L336.272 187.662C336.258 187.698 336.241 187.726 336.222 187.745C336.203 187.764 336.183 187.774 336.163 187.773Z" fill="#CCCCCC"/>
<path d="M321.516 237.974C321.516 234.297 322.111 230.771 323.169 228.171C324.228 225.571 325.664 224.111 327.161 224.111C328.659 224.111 330.095 225.571 331.154 228.171C332.212 230.771 332.807 234.297 332.807 237.974" fill="#F2F2F2"/>
<path d="M327.161 237.974C327.121 237.974 327.082 237.934 327.054 237.864C327.025 237.794 327.009 237.698 327.009 237.599V230.293C327.009 230.194 327.025 230.098 327.054 230.028C327.082 229.958 327.121 229.918 327.161 229.918C327.202 229.918 327.241 229.958 327.269 230.028C327.298 230.098 327.314 230.194 327.314 230.293V237.599C327.314 237.698 327.298 237.794 327.269 237.864C327.241 237.934 327.202 237.974 327.161 237.974Z" fill="#CCCCCC"/>
<path d="M327.161 235.463C327.125 235.463 327.09 235.431 327.062 235.373L325.231 231.514C325.216 231.482 325.203 231.443 325.194 231.399C325.185 231.355 325.18 231.307 325.178 231.258C325.177 231.209 325.179 231.16 325.186 231.113C325.192 231.066 325.202 231.023 325.215 230.986C325.228 230.948 325.244 230.918 325.262 230.895C325.28 230.873 325.299 230.86 325.319 230.856C325.339 230.852 325.359 230.858 325.378 230.874C325.397 230.889 325.415 230.913 325.43 230.945L327.261 234.804C327.285 234.854 327.301 234.92 327.309 234.995C327.317 235.069 327.315 235.147 327.305 235.219C327.294 235.29 327.274 235.352 327.249 235.396C327.223 235.44 327.193 235.463 327.161 235.463Z" fill="#CCCCCC"/>
<path d="M338.911 237.974C338.911 234.297 339.505 230.771 340.564 228.171C341.623 225.571 343.059 224.111 344.556 224.111C346.053 224.111 347.489 225.571 348.548 228.171C349.607 230.771 350.202 234.297 350.202 237.974" fill="#F2F2F2"/>
<path d="M344.556 237.974C344.516 237.974 344.477 237.934 344.448 237.864C344.42 237.794 344.404 237.698 344.404 237.599V230.293C344.404 230.194 344.42 230.098 344.448 230.028C344.477 229.958 344.516 229.918 344.556 229.918C344.597 229.918 344.635 229.958 344.664 230.028C344.693 230.098 344.709 230.194 344.709 230.293V237.599C344.709 237.698 344.693 237.794 344.664 237.864C344.635 237.934 344.597 237.974 344.556 237.974Z" fill="#CCCCCC"/>
<path d="M344.556 235.463C344.52 235.463 344.484 235.431 344.457 235.373L342.626 231.514C342.595 231.449 342.577 231.357 342.574 231.258C342.571 231.16 342.584 231.062 342.61 230.987C342.636 230.912 342.674 230.865 342.714 230.857C342.754 230.85 342.794 230.881 342.825 230.945L344.656 234.804C344.679 234.854 344.696 234.92 344.704 234.995C344.712 235.069 344.71 235.147 344.699 235.219C344.688 235.29 344.669 235.352 344.643 235.396C344.618 235.44 344.587 235.463 344.556 235.463Z" fill="#CCCCCC"/>
<path d="M171.812 112.455C175.521 99.4185 180.015 61.0956 174.703 51.982C169.39 42.8685 156.282 66.4154 152.573 79.4519C150.792 85.7166 150.097 93.4618 150.641 100.984C151.185 108.507 152.924 115.191 155.474 119.566C158.025 123.942 161.179 125.65 164.243 124.317C167.306 122.983 170.029 118.717 171.812 112.455Z" fill="#F2F2F2"/>
<path d="M147.311 148.259C147.282 148.209 147.262 148.133 147.256 148.047C147.249 147.96 147.257 147.872 147.278 147.8L162.966 92.6598C162.986 92.5882 163.017 92.5394 163.052 92.5241C163.087 92.5088 163.123 92.5284 163.153 92.5784C163.182 92.6285 163.202 92.7049 163.208 92.791C163.214 92.877 163.206 92.9656 163.186 93.0372L147.498 148.178C147.477 148.249 147.446 148.298 147.411 148.313C147.376 148.329 147.34 148.309 147.311 148.259Z" fill="#CCCCCC"/>
<path d="M160.145 103.151C160.129 103.124 160.116 103.089 160.106 103.048C160.096 103.007 160.09 102.962 160.088 102.915L159.013 77.7581C159.009 77.6712 159.02 77.5842 159.042 77.5163C159.064 77.4484 159.097 77.4051 159.132 77.396C159.168 77.3868 159.203 77.4126 159.231 77.4676C159.258 77.5226 159.276 77.6024 159.28 77.6893L160.355 102.846C160.358 102.909 160.353 102.972 160.341 103.029C160.33 103.085 160.312 103.132 160.29 103.164C160.268 103.196 160.242 103.212 160.216 103.21C160.191 103.207 160.166 103.187 160.145 103.151Z" fill="#CCCCCC"/>
<path d="M157.572 112.192C157.551 112.155 157.534 112.102 157.524 112.042C157.515 111.981 157.512 111.915 157.518 111.851C157.524 111.787 157.537 111.729 157.556 111.684C157.575 111.639 157.6 111.609 157.626 111.598L162.966 109.271C162.983 109.263 163.001 109.264 163.018 109.273C163.035 109.282 163.052 109.3 163.066 109.324C163.081 109.349 163.093 109.381 163.103 109.417C163.112 109.454 163.119 109.495 163.122 109.537C163.125 109.58 163.125 109.624 163.121 109.666C163.117 109.709 163.11 109.749 163.1 109.784C163.089 109.82 163.076 109.85 163.061 109.873C163.047 109.897 163.03 109.912 163.012 109.92L157.673 112.246C157.655 112.254 157.637 112.253 157.62 112.244C157.603 112.234 157.587 112.217 157.572 112.192Z" fill="#CCCCCC"/>
<path d="M136.994 130.028C137.739 127.421 138.875 125.646 140.153 125.093C141.431 124.54 142.745 125.254 143.809 127.079C144.872 128.903 145.598 131.689 145.826 134.825C146.054 137.961 145.766 141.191 145.026 143.806" fill="#F2F2F2"/>
<path d="M141.01 136.917C140.981 136.868 140.961 136.793 140.955 136.708C140.949 136.623 140.957 136.535 140.977 136.465L142.456 131.268C142.476 131.198 142.506 131.15 142.541 131.135C142.575 131.12 142.611 131.14 142.64 131.189C142.668 131.238 142.688 131.313 142.694 131.398C142.7 131.482 142.693 131.569 142.673 131.64L141.194 136.837C141.174 136.908 141.143 136.956 141.109 136.971C141.074 136.986 141.038 136.967 141.01 136.917Z" fill="#CCCCCC"/>
<path d="M141.518 135.131C141.492 135.087 141.473 135.021 141.465 134.946L140.944 129.967C140.939 129.925 140.938 129.882 140.941 129.84C140.943 129.797 140.949 129.757 140.958 129.72C140.967 129.683 140.978 129.651 140.992 129.625C141.006 129.599 141.022 129.58 141.039 129.57C141.056 129.559 141.073 129.557 141.091 129.563C141.108 129.569 141.125 129.583 141.14 129.605C141.155 129.627 141.168 129.656 141.178 129.69C141.188 129.724 141.196 129.763 141.2 129.805L141.722 134.784C141.729 134.848 141.727 134.916 141.718 134.978C141.708 135.041 141.691 135.094 141.669 135.132C141.647 135.17 141.62 135.19 141.593 135.19C141.566 135.19 141.54 135.169 141.518 135.131Z" fill="#CCCCCC"/>
<path d="M149.367 151.254C149.735 149.955 150.203 148.847 150.746 147.993C151.288 147.139 151.894 146.557 152.528 146.279C153.162 146 153.813 146.032 154.442 146.372C155.071 146.712 155.667 147.353 156.195 148.259C156.723 149.165 157.173 150.318 157.52 151.652C157.866 152.986 158.102 154.474 158.214 156.032C158.326 157.59 158.311 159.187 158.172 160.731C158.032 162.276 157.769 163.737 157.399 165.032" fill="#F2F2F2"/>
<path d="M153.383 158.143C153.354 158.093 153.335 158.018 153.329 157.933C153.322 157.848 153.33 157.761 153.35 157.69L154.829 152.493C154.849 152.422 154.88 152.374 154.914 152.359C154.949 152.344 154.985 152.363 155.013 152.413C155.042 152.462 155.062 152.538 155.068 152.622C155.074 152.707 155.066 152.795 155.046 152.865L153.567 158.062C153.547 158.133 153.517 158.181 153.482 158.196C153.447 158.211 153.412 158.192 153.383 158.143Z" fill="#CCCCCC"/>
<path d="M153.891 156.357C153.865 156.313 153.847 156.247 153.839 156.171L153.317 151.192C153.309 151.109 153.314 151.021 153.332 150.947C153.35 150.873 153.379 150.82 153.413 150.798C153.447 150.777 153.483 150.789 153.513 150.833C153.543 150.876 153.565 150.947 153.574 151.03L154.095 156.01C154.102 156.074 154.101 156.142 154.091 156.204C154.082 156.266 154.065 156.32 154.042 156.358C154.02 156.396 153.994 156.416 153.967 156.416C153.94 156.415 153.913 156.395 153.891 156.357Z" fill="#CCCCCC"/>
<path d="M247.909 396.821C250.893 403.55 253.857 410.327 256.802 417.152C256.047 417.255 255.262 417.338 254.456 417.4C253.319 417.492 252.135 417.534 250.893 417.534C237.267 417.534 230.351 412.041 223.67 406.724C217.324 401.685 211.332 396.924 199.027 396.924C186.718 396.924 180.726 401.685 174.385 406.724C167.699 412.041 160.783 417.534 147.157 417.534C133.526 417.534 126.614 412.041 119.929 406.724C113.731 401.798 107.868 397.141 96.1259 396.934C95.8489 396.924 95.5721 396.924 95.2866 396.924V376.315C95.5678 376.315 95.8489 376.315 96.1259 376.325C109.203 376.541 115.968 381.92 122.514 387.114C128.86 392.163 134.852 396.924 147.157 396.924C159.461 396.924 165.454 392.163 171.799 387.114C178.485 381.807 185.397 376.315 199.027 376.315C212.654 376.315 219.565 381.807 226.251 387.114C231.551 391.329 236.608 395.348 245.303 396.553C246.138 396.677 247.003 396.759 247.909 396.821Z" fill="#00BFA6"/>
<path d="M354.638 396.924V417.534C341.007 417.534 334.095 412.041 327.41 406.724C321.065 401.685 315.072 396.924 302.768 396.924C290.459 396.924 284.466 401.685 278.121 406.724C277.777 407.002 277.428 407.27 277.08 407.548C276.484 408.022 275.88 408.496 275.267 408.96C272.951 403.385 270.626 397.858 268.292 392.38C268.943 391.988 269.572 391.576 270.194 391.154C272.044 389.896 273.777 388.516 275.54 387.114C282.225 381.807 289.137 376.315 302.768 376.315C316.398 376.315 323.31 381.807 329.995 387.114C336.341 392.163 342.333 396.924 354.638 396.924Z" fill="#00BFA6"/>
<path d="M169.176 238.427C145.684 196.415 120.966 156.577 95.7147 120.026L94.4473 118.192V242.157H171.262L169.176 238.427ZM96.1259 238.036V125.415C120.147 160.307 143.669 198.167 166.101 238.036H96.1259ZM288.071 493.191C277.911 467.254 267.488 441.908 256.802 417.152C253.856 410.32 250.892 403.543 247.909 396.821C229.709 355.767 210.909 316.722 191.511 279.687L191.284 279.254H94.4473V496.684H289.439L288.071 493.191ZM96.1259 492.562V283.376H190.709C209.414 319.103 227.612 356.828 245.303 396.553C248.375 403.447 251.426 410.396 254.456 417.4C265.048 441.842 275.393 466.897 285.49 492.562H96.1259ZM288.071 493.191C277.911 467.254 267.488 441.908 256.802 417.152C253.856 410.32 250.892 403.543 247.909 396.821C229.709 355.767 210.909 316.722 191.511 279.687L191.284 279.254H94.4473V496.684H289.439L288.071 493.191ZM96.1259 492.562V283.376H190.709C209.414 319.103 227.612 356.828 245.303 396.553C248.375 403.447 251.426 410.396 254.456 417.4C265.048 441.842 275.393 466.897 285.49 492.562H96.1259ZM169.176 238.427C145.684 196.415 120.966 156.577 95.7147 120.026L94.4473 118.192V242.157H171.262L169.176 238.427ZM96.1259 238.036V125.415C120.147 160.307 143.669 198.167 166.101 238.036H96.1259ZM169.176 238.427C145.684 196.415 120.966 156.577 95.7147 120.026L94.4473 118.192V242.157H171.262L169.176 238.427ZM96.1259 238.036V125.415C120.147 160.307 143.669 198.167 166.101 238.036H96.1259ZM288.071 493.191C277.911 467.254 267.488 441.908 256.802 417.152C253.856 410.32 250.892 403.543 247.909 396.821C229.709 355.767 210.909 316.722 191.511 279.687L191.284 279.254H94.4473V496.684H289.439L288.071 493.191ZM96.1259 492.562V283.376H190.709C209.414 319.103 227.612 356.828 245.303 396.553C248.375 403.447 251.426 410.396 254.456 417.4C265.048 441.842 275.393 466.897 285.49 492.562H96.1259ZM11.3625 533.781V537.903H77.6608V597.67H11.3625V601.792H79.3394V533.781H11.3625ZM94.4473 638.889V680.654L96.1259 680.273V643.011H354.638V638.889H94.4473ZM354.638 537.903V533.781H94.4473V601.792H354.638V597.67H96.1259V537.903H354.638ZM197.873 238.036C165.669 177.036 131.659 122.011 96.1259 73.4176V31.6835L94.4473 32.0648V74.122L95.7399 77.6117C131.128 126.073 165 180.929 197.076 241.725L197.302 242.157H354.638V238.036H197.873ZM77.6608 238.036H11.3625V242.157H79.3394V35.5066L77.6608 35.8878V238.036ZM354.638 279.254H216.321L218.13 282.902C235.16 317.31 251.881 353.802 268.292 392.38C270.626 397.862 272.951 403.389 275.267 408.96C286.8 436.628 298.107 465.2 309.189 494.675L310.572 496.684H354.638V492.562H310.678C299.717 463.379 288.517 435.041 277.08 407.548C274.793 402.046 272.498 396.581 270.194 391.153C254.137 353.325 237.738 317.399 220.996 283.376H354.638V279.254ZM11.3625 638.889V643.011H77.6608V684.477L79.3394 684.096V638.889H11.3625ZM11.3625 279.254V283.376H77.6608V492.562H11.3625V496.684H79.3394V279.254H11.3625ZM169.176 238.427C145.684 196.415 120.966 156.577 95.7147 120.026L94.4473 118.192V242.157H171.262L169.176 238.427ZM96.1259 238.036V125.415C120.147 160.307 143.669 198.167 166.101 238.036H96.1259ZM288.071 493.191C277.911 467.254 267.488 441.908 256.802 417.152C253.856 410.32 250.892 403.543 247.909 396.821C229.709 355.767 210.909 316.722 191.511 279.687L191.284 279.254H94.4473V496.684H289.439L288.071 493.191ZM96.1259 492.562V283.376H190.709C209.414 319.103 227.612 356.828 245.303 396.553C248.375 403.447 251.426 410.396 254.456 417.4C265.048 441.842 275.393 466.897 285.49 492.562H96.1259ZM169.176 238.427C145.684 196.415 120.966 156.577 95.7147 120.026L94.4473 118.192V242.157H171.262L169.176 238.427ZM96.1259 238.036V125.415C120.147 160.307 143.669 198.167 166.101 238.036H96.1259ZM288.071 493.191C277.911 467.254 267.488 441.908 256.802 417.152C253.856 410.32 250.892 403.543 247.909 396.821C229.709 355.767 210.909 316.722 191.511 279.687L191.284 279.254H94.4473V496.684H289.439L288.071 493.191ZM96.1259 492.562V283.376H190.709C209.414 319.103 227.612 356.828 245.303 396.553C248.375 403.447 251.426 410.396 254.456 417.4C265.048 441.842 275.393 466.897 285.49 492.562H96.1259Z" fill="#3F3D56"/>
<path d="M213.081 378.595C213.081 360.447 219.072 317.382 226.463 317.382C233.854 317.382 239.846 360.447 239.846 378.595C239.846 387.31 238.436 395.669 235.926 401.831C233.417 407.994 230.013 411.456 226.463 411.456C222.914 411.456 219.51 407.994 217.001 401.831C214.491 395.669 213.081 387.31 213.081 378.595Z" fill="#F2F2F2"/>
<path d="M226.463 458.541C226.449 458.541 226.435 458.534 226.421 458.52C226.408 458.507 226.396 458.487 226.386 458.462C226.375 458.437 226.367 458.407 226.362 458.374C226.356 458.341 226.353 458.306 226.353 458.271V344.979C226.353 344.907 226.365 344.838 226.386 344.788C226.406 344.737 226.434 344.709 226.463 344.709C226.493 344.709 226.52 344.737 226.541 344.788C226.562 344.838 226.573 344.907 226.573 344.979V458.271C226.573 458.306 226.571 458.341 226.565 458.374C226.559 458.407 226.551 458.437 226.541 458.462C226.531 458.487 226.519 458.507 226.505 458.52C226.492 458.534 226.478 458.541 226.463 458.541Z" fill="#3F3D56"/>
<path d="M226.463 366.851C226.449 366.851 226.435 366.844 226.421 366.83C226.408 366.817 226.396 366.797 226.386 366.772L221.089 353.765C221.079 353.74 221.07 353.711 221.065 353.678C221.059 353.645 221.057 353.61 221.057 353.574C221.057 353.539 221.059 353.504 221.065 353.471C221.07 353.438 221.079 353.408 221.089 353.383C221.099 353.358 221.111 353.338 221.124 353.325C221.138 353.311 221.152 353.304 221.167 353.304C221.181 353.304 221.195 353.311 221.209 353.325C221.222 353.338 221.234 353.358 221.244 353.383L226.541 366.389C226.557 366.427 226.567 366.475 226.571 366.528C226.575 366.58 226.573 366.634 226.565 366.684C226.557 366.733 226.543 366.775 226.524 366.805C226.506 366.835 226.485 366.851 226.463 366.851Z" fill="#3F3D56"/>
<path d="M226.463 389.367C226.442 389.367 226.42 389.351 226.402 389.321C226.384 389.292 226.37 389.249 226.362 389.2C226.353 389.151 226.351 389.096 226.355 389.044C226.36 388.991 226.37 388.943 226.385 388.906L235.256 367.124C235.266 367.099 235.278 367.079 235.292 367.066C235.305 367.052 235.319 367.045 235.334 367.045C235.348 367.045 235.362 367.052 235.376 367.066C235.389 367.079 235.401 367.099 235.412 367.124C235.422 367.149 235.43 367.179 235.435 367.212C235.441 367.245 235.444 367.28 235.444 367.315C235.444 367.351 235.441 367.386 235.435 367.419C235.43 367.452 235.422 367.481 235.412 367.506L226.541 389.288C226.531 389.313 226.519 389.333 226.505 389.346C226.492 389.36 226.478 389.367 226.463 389.367Z" fill="#3F3D56"/>
<path d="M288.117 285.853C288.117 267.705 294.108 224.639 301.499 224.639C308.89 224.639 314.882 267.704 314.882 285.853C314.88 294.564 313.469 302.917 310.959 309.076C308.45 315.234 305.047 318.693 301.499 318.693C297.952 318.693 294.549 315.234 292.039 309.076C289.53 302.917 288.119 294.564 288.117 285.853Z" fill="#00BFA6"/>
<path d="M301.499 365.799C301.485 365.799 301.471 365.792 301.457 365.778C301.444 365.764 301.432 365.744 301.422 365.719C301.411 365.694 301.403 365.665 301.398 365.632C301.392 365.599 301.389 365.564 301.389 365.528V252.236C301.389 252.165 301.401 252.096 301.422 252.045C301.442 251.995 301.47 251.966 301.499 251.966C301.529 251.966 301.557 251.995 301.577 252.045C301.598 252.096 301.61 252.165 301.61 252.236V365.528C301.61 365.564 301.607 365.599 301.601 365.632C301.596 365.665 301.587 365.694 301.577 365.719C301.567 365.744 301.555 365.764 301.542 365.778C301.528 365.792 301.514 365.799 301.499 365.799Z" fill="#3F3D56"/>
<path d="M301.499 274.108C301.485 274.108 301.471 274.101 301.457 274.088C301.444 274.074 301.432 274.054 301.422 274.029L296.125 261.023C296.104 260.972 296.093 260.904 296.093 260.832C296.093 260.76 296.104 260.692 296.125 260.641C296.146 260.59 296.174 260.562 296.203 260.562C296.232 260.562 296.26 260.59 296.281 260.641L301.577 273.647C301.593 273.685 301.603 273.733 301.607 273.785C301.612 273.838 301.609 273.892 301.601 273.941C301.593 273.991 301.579 274.033 301.561 274.063C301.543 274.092 301.521 274.108 301.499 274.108Z" fill="#3F3D56"/>
<path d="M301.499 296.624C301.478 296.624 301.456 296.608 301.438 296.579C301.42 296.549 301.406 296.507 301.398 296.457C301.389 296.408 301.387 296.354 301.392 296.301C301.396 296.249 301.406 296.201 301.422 296.163L310.292 274.382C310.313 274.332 310.341 274.304 310.37 274.304C310.399 274.304 310.427 274.332 310.447 274.383C310.468 274.433 310.479 274.502 310.479 274.573C310.479 274.645 310.468 274.713 310.448 274.764L301.577 296.545C301.567 296.57 301.555 296.59 301.542 296.604C301.528 296.617 301.514 296.624 301.499 296.624Z" fill="#3F3D56"/>
<path d="M123.816 295.127C123.816 276.979 129.807 233.914 137.198 233.914C144.589 233.914 150.581 276.979 150.581 295.127C150.581 303.842 149.171 312.2 146.661 318.363C144.152 324.525 140.748 327.988 137.198 327.988C133.649 327.988 130.245 324.525 127.736 318.363C125.226 312.2 123.816 303.842 123.816 295.127Z" fill="#00BFA6"/>
<path d="M137.198 375.073C137.184 375.073 137.17 375.066 137.156 375.052C137.143 375.039 137.131 375.019 137.121 374.994C137.11 374.969 137.102 374.939 137.097 374.906C137.091 374.873 137.088 374.838 137.088 374.803V261.511C137.088 261.439 137.1 261.37 137.121 261.32C137.141 261.269 137.169 261.24 137.198 261.24C137.228 261.24 137.256 261.269 137.276 261.32C137.297 261.37 137.308 261.439 137.308 261.511V374.803C137.308 374.838 137.306 374.873 137.3 374.906C137.295 374.939 137.286 374.969 137.276 374.994C137.266 375.019 137.254 375.039 137.241 375.052C137.227 375.066 137.213 375.073 137.198 375.073Z" fill="#3F3D56"/>
<path d="M137.198 283.382C137.184 283.382 137.17 283.375 137.156 283.362C137.143 283.348 137.131 283.328 137.121 283.303L131.824 270.297C131.814 270.272 131.805 270.242 131.8 270.21C131.794 270.177 131.792 270.142 131.792 270.106C131.792 270.071 131.794 270.036 131.8 270.003C131.805 269.97 131.814 269.94 131.824 269.915C131.834 269.89 131.846 269.87 131.859 269.857C131.873 269.843 131.887 269.836 131.902 269.836C131.916 269.836 131.93 269.843 131.944 269.857C131.957 269.87 131.969 269.89 131.979 269.915L137.276 282.921C137.292 282.959 137.302 283.007 137.306 283.06C137.311 283.112 137.308 283.166 137.3 283.216C137.292 283.265 137.278 283.307 137.259 283.337C137.241 283.367 137.22 283.382 137.198 283.382Z" fill="#3F3D56"/>
<path d="M137.198 305.898C137.177 305.898 137.155 305.883 137.137 305.853C137.119 305.823 137.105 305.781 137.097 305.732C137.088 305.682 137.086 305.628 137.09 305.576C137.095 305.523 137.105 305.475 137.121 305.437L145.991 283.656C146.012 283.606 146.04 283.577 146.069 283.577C146.098 283.577 146.126 283.606 146.146 283.656C146.167 283.707 146.179 283.776 146.179 283.847C146.179 283.919 146.167 283.987 146.147 284.038L137.276 305.819C137.266 305.844 137.254 305.864 137.241 305.878C137.227 305.892 137.213 305.898 137.198 305.898Z" fill="#3F3D56"/>
<path d="M247.284 204.591C239.683 204.591 232.253 199.056 225.933 188.687C219.613 178.318 214.687 163.58 211.779 146.337C208.87 129.094 208.109 110.121 209.592 91.8156C211.075 73.5106 214.735 56.6963 220.109 43.4991C225.484 30.3018 232.332 21.3144 239.786 17.6733C247.241 14.0322 254.968 15.9009 261.991 23.0432C269.013 30.1855 275.015 42.2806 279.238 57.7989C283.46 73.3171 285.714 91.5617 285.714 110.225C285.703 135.244 281.65 159.23 274.446 176.921C267.241 194.611 257.473 204.562 247.284 204.591ZM247.284 17.1268C239.785 17.1268 232.455 22.5869 226.22 32.8167C219.985 43.0465 215.125 57.5865 212.255 74.5981C209.386 91.6097 208.635 110.329 210.098 128.388C211.561 146.447 215.172 163.036 220.474 176.056C225.777 189.076 232.532 197.943 239.887 201.535C247.242 205.127 254.865 203.284 261.793 196.237C268.721 189.191 274.643 177.258 278.809 161.948C282.975 146.638 285.199 128.639 285.199 110.225C285.187 85.5427 281.189 61.8789 274.081 44.4255C266.973 26.9722 257.336 17.1546 247.284 17.1268Z" fill="#CCCCCC"/>
<path d="M247.284 103.259C247.215 103.259 247.15 103.192 247.102 103.073C247.053 102.955 247.026 102.793 247.026 102.626V16.4934C247.026 16.3255 247.053 16.1644 247.102 16.0456C247.15 15.9268 247.215 15.8601 247.284 15.8601C247.352 15.8601 247.418 15.9268 247.466 16.0456C247.515 16.1644 247.542 16.3255 247.542 16.4934V102.626C247.542 102.793 247.515 102.955 247.466 103.073C247.418 103.192 247.352 103.259 247.284 103.259Z" fill="#CCCCCC"/>
<path d="M285.456 110.859H250.379C250.311 110.859 250.245 110.792 250.197 110.673C250.148 110.554 250.121 110.393 250.121 110.225C250.121 110.057 250.148 109.896 250.197 109.778C250.245 109.659 250.311 109.592 250.379 109.592H285.456C285.525 109.592 285.59 109.659 285.639 109.778C285.687 109.896 285.714 110.057 285.714 110.225C285.714 110.393 285.687 110.554 285.639 110.673C285.59 110.792 285.525 110.859 285.456 110.859Z" fill="#CCCCCC"/>
<path d="M244.189 110.859H209.128C209.06 110.859 208.994 110.792 208.946 110.673C208.897 110.554 208.87 110.393 208.87 110.225C208.87 110.057 208.897 109.896 208.946 109.778C208.994 109.659 209.06 109.592 209.128 109.592H244.189C244.257 109.592 244.323 109.659 244.371 109.778C244.42 109.896 244.447 110.057 244.447 110.225C244.447 110.393 244.42 110.554 244.371 110.673C244.323 110.792 244.257 110.859 244.189 110.859Z" fill="#CCCCCC"/>
<path d="M247.284 204.591C247.215 204.591 247.15 204.524 247.102 204.405C247.053 204.286 247.026 204.125 247.026 203.957V117.825C247.026 117.657 247.053 117.496 247.102 117.377C247.15 117.259 247.215 117.192 247.284 117.192C247.352 117.192 247.418 117.259 247.466 117.377C247.515 117.496 247.542 117.657 247.542 117.825V203.957C247.542 204.125 247.515 204.286 247.466 204.405C247.418 204.524 247.352 204.591 247.284 204.591Z" fill="#CCCCCC"/>
<path d="M249.558 105.712C249.507 105.712 249.457 105.675 249.415 105.606C249.372 105.536 249.339 105.437 249.32 105.321C249.3 105.206 249.295 105.078 249.305 104.955C249.315 104.833 249.34 104.72 249.376 104.631L274.07 43.9944C274.119 43.8764 274.184 43.8104 274.252 43.8107C274.32 43.811 274.386 43.8777 274.434 43.9961C274.482 44.1146 274.51 44.2752 274.51 44.4427C274.51 44.6103 274.483 44.7711 274.435 44.89L249.74 105.527C249.716 105.586 249.688 105.632 249.657 105.664C249.625 105.696 249.592 105.712 249.558 105.712Z" fill="#CCCCCC"/>
<path d="M245.01 105.712C244.976 105.712 244.942 105.696 244.911 105.664C244.88 105.632 244.851 105.586 244.828 105.527L220.133 44.89C220.085 44.7711 220.058 44.6103 220.058 44.4427C220.058 44.2752 220.086 44.1146 220.134 43.9961C220.182 43.8777 220.247 43.811 220.316 43.8107C220.384 43.8104 220.449 43.8764 220.498 43.9944L245.192 104.631C245.228 104.72 245.253 104.833 245.263 104.955C245.273 105.078 245.268 105.206 245.248 105.321C245.229 105.437 245.196 105.536 245.153 105.606C245.111 105.675 245.061 105.712 245.01 105.712Z" fill="#CCCCCC"/>
<path d="M274.252 176.642C274.219 176.642 274.185 176.626 274.154 176.594C274.122 176.562 274.094 176.515 274.07 176.456L249.376 115.82C249.328 115.701 249.301 115.54 249.301 115.372C249.301 115.205 249.328 115.044 249.376 114.926C249.425 114.807 249.49 114.74 249.558 114.74C249.626 114.74 249.692 114.806 249.74 114.924L274.435 175.561C274.471 175.649 274.495 175.762 274.505 175.885C274.515 176.008 274.51 176.135 274.491 176.251C274.471 176.367 274.438 176.465 274.396 176.535C274.353 176.605 274.303 176.642 274.252 176.642Z" fill="#CCCCCC"/>
<path d="M220.316 176.642C220.265 176.642 220.215 176.605 220.172 176.535C220.13 176.466 220.097 176.367 220.077 176.251C220.058 176.135 220.053 176.008 220.063 175.885C220.073 175.762 220.097 175.649 220.133 175.561L244.828 114.924C244.876 114.805 244.942 114.739 245.01 114.739C245.078 114.739 245.144 114.805 245.192 114.924C245.241 115.043 245.268 115.204 245.268 115.372C245.268 115.54 245.241 115.701 245.192 115.82L220.498 176.456C220.474 176.515 220.446 176.562 220.414 176.594C220.383 176.626 220.349 176.642 220.316 176.642Z" fill="#CCCCCC"/>
<path d="M247.284 175.141C242.055 175.141 236.944 171.334 232.596 164.201C228.249 157.068 224.86 146.929 222.859 135.068C220.858 123.206 220.335 110.153 221.355 97.5609C222.375 84.9685 224.893 73.4016 228.59 64.323C232.287 55.2443 236.998 49.0617 242.126 46.5569C247.255 44.0522 252.57 45.3377 257.401 50.251C262.232 55.1643 266.361 63.4847 269.266 74.1601C272.171 84.8354 273.721 97.3862 273.721 110.225C273.713 127.436 270.925 143.936 265.969 156.106C261.013 168.276 254.293 175.122 247.284 175.141ZM247.284 46.5763C242.157 46.5763 237.146 50.3092 232.883 57.3031C228.62 64.297 225.298 74.2376 223.336 85.8679C221.374 97.4983 220.861 110.296 221.861 122.643C222.861 134.989 225.33 146.331 228.955 155.232C232.58 164.134 237.199 170.196 242.227 172.651C247.255 175.107 252.467 173.847 257.204 169.029C261.94 164.212 265.988 156.054 268.837 145.587C271.685 135.12 273.205 122.814 273.205 110.225C273.197 93.3504 270.464 77.1721 265.605 65.2397C260.745 53.3073 254.156 46.5954 247.284 46.5763Z" fill="#CCCCCC"/>
<path d="M247.284 117.825C248.993 117.825 250.379 114.423 250.379 110.225C250.379 106.028 248.993 102.625 247.284 102.625C245.575 102.625 244.189 106.028 244.189 110.225C244.189 114.423 245.575 117.825 247.284 117.825Z" fill="#3F3D56"/>
<path d="M235.301 238.597L232.583 238.791L245.854 107.252L248.321 109.1L235.301 238.597Z" fill="#3F3D56"/>
<path d="M259.266 238.597L261.985 238.791L248.713 107.252L246.247 109.1L259.266 238.597Z" fill="#3F3D56"/>
<path d="M251.411 35.4931H242.899V46.8929H251.411V35.4931Z" fill="#CCCCCC"/>
<path d="M246.768 38.0264H243.415V46.893H246.768V38.0264Z" fill="white"/>
<path d="M250.895 38.0264H247.542V46.893H250.895V38.0264Z" fill="white"/>
<path d="M247.155 59.2428C245.856 59.2391 244.61 57.9702 243.691 55.7143C242.773 53.4585 242.256 50.3999 242.255 47.2096V46.8929C242.255 46.1373 242.377 45.4129 242.595 44.8787C242.812 44.3444 243.107 44.0438 243.415 44.043H250.895C251.203 44.0438 251.498 44.3444 251.715 44.8787C251.933 45.4129 252.055 46.1373 252.056 46.8929V47.2096C252.054 50.3999 251.537 53.4585 250.619 55.7143C249.7 57.9702 248.454 59.2391 247.155 59.2428Z" fill="#CCCCCC"/>
<path d="M251.092 38.3431H243.218C243.108 38.3431 243 38.2741 242.904 38.1427C242.808 38.0113 242.727 37.8217 242.67 37.5921C242.612 37.3625 242.579 37.1005 242.574 36.8309C242.569 36.5612 242.592 36.293 242.641 36.0516L244.189 28.4517C244.242 28.1881 244.324 27.9663 244.426 27.8117C244.528 27.657 244.646 27.5755 244.766 27.5765H249.544C249.664 27.5755 249.782 27.657 249.884 27.8117C249.986 27.9663 250.068 28.1881 250.121 28.4517L251.669 36.0516C251.718 36.293 251.741 36.5612 251.736 36.8309C251.731 37.1005 251.698 37.3625 251.64 37.5921C251.583 37.8217 251.502 38.0113 251.406 38.1427C251.31 38.2741 251.202 38.3431 251.092 38.3431Z" fill="#00BFA6"/>
<path d="M274.366 60.8261H265.854V72.226H274.366V60.8261Z" fill="#CCCCCC"/>
<path d="M269.723 63.3594H266.37V72.2259H269.723V63.3594Z" fill="white"/>
<path d="M273.85 63.3594H270.497V72.2259H273.85V63.3594Z" fill="white"/>
<path d="M270.11 84.5757C268.811 84.5721 267.565 83.3032 266.647 81.0473C265.728 78.7914 265.211 75.7328 265.21 72.5426V72.2259C265.21 71.4703 265.332 70.7459 265.55 70.2116C265.768 69.6774 266.063 69.3768 266.37 69.376H273.85C274.158 69.3768 274.453 69.6774 274.67 70.2116C274.888 70.7459 275.01 71.4703 275.011 72.2259V72.5426C275.009 75.7329 274.492 78.7914 273.574 81.0473C272.655 83.3032 271.409 84.5721 270.11 84.5757Z" fill="#CCCCCC"/>
<path d="M267.721 53.5429C267.649 53.5423 267.578 53.5912 267.517 53.684C267.456 53.7768 267.407 53.9098 267.375 54.068L265.827 61.6678C265.798 61.8127 265.784 61.9736 265.787 62.1354C265.79 62.2972 265.809 62.4544 265.844 62.5922C265.879 62.73 265.927 62.8437 265.985 62.9225C266.042 63.0014 266.107 63.0427 266.173 63.0427H274.047C274.113 63.0427 274.178 63.0014 274.235 62.9225C274.293 62.8437 274.342 62.73 274.376 62.5922C274.411 62.4544 274.431 62.2972 274.434 62.1354C274.437 61.9736 274.423 61.8127 274.393 61.6678L272.846 54.068C272.814 53.9098 272.764 53.7768 272.703 53.684C272.642 53.5912 272.571 53.5423 272.5 53.5429H267.721Z" fill="#00BFA6"/>
<path d="M283.393 117.825H274.882V129.225H283.393V117.825Z" fill="#CCCCCC"/>
<path d="M278.751 120.359H275.398V129.225H278.751V120.359Z" fill="white"/>
<path d="M282.877 120.359H279.524V129.225H282.877V120.359Z" fill="white"/>
<path d="M279.137 141.575C277.838 141.571 276.593 140.302 275.674 138.046C274.755 135.791 274.238 132.732 274.237 129.542V129.225C274.237 128.469 274.36 127.745 274.577 127.211C274.795 126.677 275.09 126.376 275.398 126.375H282.877C283.185 126.376 283.48 126.677 283.698 127.211C283.915 127.745 284.038 128.469 284.038 129.225V129.542C284.037 132.732 283.52 135.791 282.601 138.046C281.682 140.302 280.437 141.571 279.137 141.575Z" fill="#CCCCCC"/>
<path d="M283.074 120.675H275.201C275.091 120.675 274.982 120.606 274.886 120.475C274.79 120.343 274.71 120.154 274.652 119.924C274.594 119.695 274.561 119.433 274.556 119.163C274.551 118.893 274.575 118.625 274.624 118.384L276.171 110.784C276.225 110.52 276.307 110.298 276.409 110.144C276.511 109.989 276.628 109.908 276.748 109.909H281.527C281.647 109.908 281.764 109.989 281.866 110.144C281.968 110.298 282.05 110.52 282.104 110.784L283.651 118.384C283.7 118.625 283.723 118.893 283.718 119.163C283.714 119.433 283.681 119.695 283.623 119.924C283.565 120.154 283.484 120.343 283.388 120.475C283.292 120.606 283.184 120.675 283.074 120.675Z" fill="#00BFA6"/>
<path d="M273.85 171.025H265.339V182.424H273.85V171.025Z" fill="#CCCCCC"/>
<path d="M269.207 173.558H265.854V182.424H269.207V173.558Z" fill="white"/>
<path d="M273.334 173.558H269.981V182.424H273.334V173.558Z" fill="white"/>
<path d="M269.594 194.774C268.295 194.771 267.049 193.502 266.131 191.246C265.212 188.99 264.695 185.931 264.694 182.741V182.424C264.694 181.669 264.816 180.944 265.034 180.41C265.252 179.876 265.547 179.575 265.854 179.574H273.334C273.642 179.575 273.937 179.876 274.154 180.41C274.372 180.944 274.494 181.669 274.495 182.424V182.741C274.493 185.931 273.977 188.99 273.058 191.246C272.139 193.502 270.894 194.771 269.594 194.774Z" fill="#CCCCCC"/>
<path d="M273.531 173.874H265.657C265.547 173.874 265.439 173.806 265.343 173.674C265.247 173.543 265.167 173.353 265.109 173.124C265.051 172.894 265.018 172.632 265.013 172.362C265.008 172.093 265.031 171.824 265.081 171.583L266.628 163.983C266.681 163.719 266.764 163.498 266.866 163.343C266.968 163.188 267.085 163.107 267.205 163.108H271.984C272.103 163.107 272.221 163.188 272.323 163.343C272.425 163.498 272.507 163.719 272.56 163.983L274.108 171.583C274.157 171.824 274.18 172.093 274.175 172.362C274.17 172.632 274.138 172.894 274.08 173.124C274.022 173.353 273.941 173.543 273.845 173.674C273.749 173.806 273.641 173.874 273.531 173.874Z" fill="#00BFA6"/>
<path d="M220.202 72.226H228.714V60.8261H220.202V72.226Z" fill="#CCCCCC"/>
<path d="M224.845 72.226H228.198V63.3594H224.845V72.226Z" fill="white"/>
<path d="M220.718 72.226H224.071V63.3594H220.718V72.226Z" fill="white"/>
<path d="M224.458 84.5757C223.159 84.5721 221.913 83.3032 220.994 81.0473C220.076 78.7914 219.559 75.7328 219.557 72.5426V72.2259C219.558 71.4703 219.68 70.7459 219.898 70.2116C220.115 69.6774 220.41 69.3768 220.718 69.376H228.198C228.505 69.3768 228.8 69.6774 229.018 70.2116C229.236 70.7459 229.358 71.4703 229.358 72.2259V72.5426C229.357 75.7329 228.84 78.7914 227.921 81.0473C227.003 83.3032 225.757 84.5721 224.458 84.5757Z" fill="#CCCCCC"/>
<path d="M228.395 63.6761H220.521C220.411 63.6761 220.303 63.6071 220.207 63.4757C220.111 63.3443 220.03 63.1547 219.972 62.9252C219.915 62.6956 219.882 62.4335 219.877 62.1639C219.872 61.8942 219.895 61.626 219.944 61.3846L221.492 53.7847C221.545 53.5211 221.627 53.2993 221.729 53.1447C221.831 52.99 221.949 52.9085 222.068 52.9096H226.847C226.967 52.9085 227.084 52.99 227.186 53.1446C227.288 53.2993 227.371 53.5211 227.424 53.7847L228.971 61.3846C229.021 61.626 229.044 61.8942 229.039 62.1639C229.034 62.4335 229.001 62.6956 228.943 62.9252C228.885 63.1547 228.805 63.3443 228.709 63.4757C228.613 63.6071 228.505 63.6761 228.395 63.6761Z" fill="#00BFA6"/>
<path d="M211.175 129.225H219.686V117.825H211.175V129.225Z" fill="#CCCCCC"/>
<path d="M215.817 129.225H219.17V120.359H215.817V129.225Z" fill="white"/>
<path d="M211.691 129.225H215.044V120.359H211.691V129.225Z" fill="white"/>
<path d="M215.43 141.575C214.131 141.571 212.886 140.302 211.967 138.046C211.048 135.791 210.531 132.732 210.53 129.542V129.225C210.53 128.469 210.653 127.745 210.87 127.211C211.088 126.677 211.383 126.376 211.691 126.375H219.17C219.478 126.376 219.773 126.677 219.991 127.211C220.208 127.745 220.331 128.469 220.331 129.225V129.542C220.329 132.732 219.813 135.791 218.894 138.046C217.975 140.302 216.73 141.571 215.43 141.575Z" fill="#CCCCCC"/>
<path d="M219.367 120.675H211.494C211.384 120.675 211.276 120.606 211.18 120.475C211.084 120.343 211.003 120.154 210.945 119.924C210.887 119.695 210.854 119.433 210.849 119.163C210.844 118.893 210.868 118.625 210.917 118.384L212.464 110.784C212.518 110.52 212.6 110.298 212.702 110.144C212.804 109.989 212.921 109.908 213.041 109.909H217.82C217.94 109.908 218.057 109.989 218.159 110.144C218.261 110.298 218.343 110.52 218.397 110.784L219.944 118.384C219.993 118.625 220.016 118.893 220.012 119.163C220.007 119.433 219.974 119.695 219.916 119.924C219.858 120.154 219.777 120.343 219.681 120.475C219.585 120.606 219.477 120.675 219.367 120.675Z" fill="#00BFA6"/>
<path d="M220.718 182.424H229.229V171.024H220.718V182.424Z" fill="#CCCCCC"/>
<path d="M225.361 182.424H228.714V173.558H225.361V182.424Z" fill="white"/>
<path d="M221.234 182.424H224.587V173.558H221.234V182.424Z" fill="white"/>
<path d="M224.974 194.774C223.674 194.771 222.429 193.502 221.51 191.246C220.591 188.99 220.075 185.931 220.073 182.741V182.424C220.073 181.669 220.196 180.944 220.413 180.41C220.631 179.876 220.926 179.575 221.234 179.574H228.714C229.021 179.575 229.316 179.876 229.534 180.41C229.751 180.944 229.874 181.669 229.874 182.424V182.741C229.873 185.931 229.356 188.99 228.437 191.246C227.519 193.502 226.273 194.771 224.974 194.774Z" fill="#CCCCCC"/>
<path d="M228.91 173.874H221.037C220.927 173.874 220.819 173.806 220.723 173.674C220.627 173.543 220.546 173.353 220.488 173.124C220.43 172.894 220.397 172.632 220.392 172.362C220.388 172.093 220.411 171.824 220.46 171.583L222.007 163.983C222.061 163.719 222.143 163.498 222.245 163.343C222.347 163.188 222.464 163.107 222.584 163.108H227.363C227.483 163.107 227.6 163.188 227.702 163.343C227.804 163.498 227.886 163.719 227.94 163.983L229.487 171.583C229.536 171.824 229.56 172.093 229.555 172.362C229.55 172.632 229.517 172.894 229.459 173.124C229.401 173.353 229.32 173.543 229.224 173.674C229.128 173.806 229.02 173.874 228.91 173.874Z" fill="#00BFA6"/>
<path d="M251.411 195.091H242.899V206.491H251.411V195.091Z" fill="#CCCCCC"/>
<path d="M246.768 197.624H243.415V206.491H246.768V197.624Z" fill="white"/>
<path d="M250.895 197.624H247.542V206.491H250.895V197.624Z" fill="white"/>
<path d="M243.415 204.274C243.176 204.275 242.946 204.508 242.777 204.924C242.608 205.34 242.513 205.903 242.512 206.491V206.807C242.512 208.305 242.631 209.789 242.864 211.174C243.097 212.558 243.439 213.816 243.87 214.876C244.302 215.936 244.814 216.777 245.377 217.35C245.941 217.924 246.545 218.219 247.155 218.219C247.765 218.219 248.369 217.924 248.933 217.35C249.496 216.777 250.008 215.936 250.439 214.876C250.871 213.816 251.213 212.558 251.446 211.174C251.679 209.789 251.798 208.305 251.798 206.807V206.491C251.797 205.903 251.702 205.34 251.533 204.924C251.364 204.508 251.134 204.275 250.895 204.274H243.415Z" fill="#CCCCCC"/>
<path d="M244.766 187.808C244.694 187.807 244.623 187.856 244.562 187.949C244.501 188.042 244.452 188.175 244.42 188.333L242.872 195.933C242.843 196.077 242.829 196.238 242.832 196.4C242.835 196.562 242.854 196.719 242.889 196.857C242.924 196.995 242.972 197.108 243.03 197.187C243.087 197.266 243.152 197.308 243.218 197.307H251.092C251.158 197.308 251.223 197.266 251.28 197.187C251.338 197.108 251.386 196.995 251.421 196.857C251.456 196.719 251.475 196.562 251.478 196.4C251.481 196.238 251.467 196.077 251.438 195.933L249.89 188.333C249.858 188.175 249.809 188.042 249.748 187.949C249.687 187.856 249.616 187.807 249.544 187.808H244.766Z" fill="#00BFA6"/>
<path d="M133.605 353.142C133.682 353.142 133.756 353.067 133.81 352.933C133.865 352.799 133.896 352.617 133.896 352.427C133.896 352.238 133.865 352.056 133.81 351.922C133.756 351.788 133.682 351.713 133.605 351.713H130.84V348.854H133.605C133.682 348.854 133.756 348.779 133.81 348.645C133.865 348.511 133.896 348.329 133.896 348.14C133.896 347.95 133.865 347.768 133.81 347.634C133.756 347.5 133.682 347.425 133.605 347.425H110.031C109.954 347.425 109.88 347.5 109.825 347.634C109.771 347.768 109.74 347.95 109.74 348.14C109.74 348.329 109.771 348.511 109.825 348.645C109.88 348.779 109.954 348.854 110.031 348.854H112.796V351.713H110.031C109.954 351.713 109.88 351.788 109.825 351.922C109.771 352.056 109.74 352.238 109.74 352.427C109.74 352.617 109.771 352.799 109.825 352.933C109.88 353.067 109.954 353.142 110.031 353.142H112.796V356H110.031C109.954 356 109.88 356.076 109.825 356.21C109.771 356.344 109.74 356.525 109.74 356.715C109.74 356.904 109.771 357.086 109.825 357.22C109.88 357.354 109.954 357.43 110.031 357.43H112.796V360.288H110.322C110.168 360.288 110.02 360.439 109.911 360.707C109.802 360.975 109.74 361.338 109.74 361.717C109.74 362.096 109.802 362.46 109.911 362.728C110.02 362.996 110.168 363.146 110.322 363.146H112.677C112.66 363.261 112.651 363.382 112.651 363.504V373.508C112.651 373.793 112.697 374.065 112.778 374.266C112.86 374.467 112.971 374.58 113.087 374.58C113.203 374.58 113.314 374.467 113.396 374.266C113.478 374.065 113.524 373.793 113.524 373.508V363.504C113.523 363.382 113.514 363.261 113.497 363.146H130.139C130.122 363.261 130.113 363.382 130.112 363.504V373.508C130.112 373.793 130.158 374.065 130.24 374.266C130.322 374.467 130.433 374.58 130.549 374.58C130.665 374.58 130.776 374.467 130.857 374.266C130.939 374.065 130.985 373.793 130.985 373.508V363.504C130.985 363.382 130.976 363.261 130.959 363.146H133.314C133.468 363.146 133.616 362.996 133.725 362.728C133.834 362.46 133.896 362.096 133.896 361.717C133.896 361.338 133.834 360.975 133.725 360.707C133.616 360.439 133.468 360.288 133.314 360.288H130.84V357.43H133.605C133.682 357.43 133.756 357.354 133.81 357.22C133.865 357.086 133.896 356.904 133.896 356.715C133.896 356.525 133.865 356.344 133.81 356.21C133.756 356.076 133.682 356 133.605 356H130.84V353.142H133.605ZM113.378 348.854H130.258V351.713H113.378V348.854ZM130.258 360.288H113.378V357.43H130.258V360.288ZM130.258 356H113.378V353.142H130.258V356Z" fill="#3F3D56"/>
<path d="M224.548 438.671C224.625 438.671 224.699 438.596 224.754 438.462C224.809 438.328 224.839 438.146 224.839 437.956C224.839 437.767 224.809 437.585 224.754 437.451C224.699 437.317 224.625 437.242 224.548 437.242H221.783V434.383H224.548C224.625 434.383 224.699 434.308 224.754 434.174C224.809 434.04 224.839 433.858 224.839 433.669C224.839 433.479 224.809 433.297 224.754 433.163C224.699 433.029 224.625 432.954 224.548 432.954H200.975C200.898 432.954 200.824 433.029 200.769 433.163C200.714 433.297 200.684 433.479 200.684 433.669C200.684 433.858 200.714 434.04 200.769 434.174C200.824 434.308 200.898 434.383 200.975 434.383H203.74V437.242H200.975C200.898 437.242 200.824 437.317 200.769 437.451C200.714 437.585 200.684 437.767 200.684 437.956C200.684 438.146 200.714 438.328 200.769 438.462C200.824 438.596 200.898 438.671 200.975 438.671H203.74V441.529H200.975C200.898 441.529 200.824 441.605 200.769 441.739C200.714 441.873 200.684 442.055 200.684 442.244C200.684 442.434 200.714 442.615 200.769 442.749C200.824 442.883 200.898 442.959 200.975 442.959H203.74V445.817H201.266C201.112 445.817 200.963 445.968 200.854 446.236C200.745 446.504 200.684 446.867 200.684 447.246C200.684 447.625 200.745 447.989 200.854 448.257C200.963 448.525 201.112 448.676 201.266 448.676H203.621C203.604 448.79 203.595 448.911 203.594 449.033V459.038C203.594 459.179 203.605 459.318 203.627 459.449C203.649 459.579 203.681 459.698 203.721 459.798C203.762 459.898 203.81 459.977 203.863 460.031C203.916 460.085 203.973 460.113 204.031 460.113C204.088 460.113 204.145 460.085 204.198 460.031C204.251 459.977 204.299 459.898 204.34 459.798C204.38 459.698 204.413 459.579 204.434 459.449C204.456 459.318 204.467 459.179 204.467 459.038V449.033C204.467 448.911 204.458 448.79 204.44 448.676H221.083C221.065 448.79 221.056 448.911 221.056 449.033V459.038C221.056 459.322 221.102 459.595 221.184 459.796C221.266 459.997 221.377 460.109 221.492 460.109C221.608 460.109 221.719 459.997 221.801 459.796C221.883 459.595 221.929 459.322 221.929 459.038V449.033C221.928 448.911 221.919 448.79 221.902 448.676H224.257C224.412 448.676 224.56 448.525 224.669 448.257C224.778 447.989 224.839 447.625 224.839 447.246C224.839 446.867 224.778 446.504 224.669 446.236C224.56 445.968 224.412 445.817 224.257 445.817H221.783V442.959H224.548C224.625 442.959 224.699 442.883 224.754 442.749C224.809 442.615 224.839 442.434 224.839 442.244C224.839 442.055 224.809 441.873 224.754 441.739C224.699 441.605 224.625 441.529 224.548 441.529H221.783V438.671L224.548 438.671ZM204.322 434.383H221.201V437.242H204.322V434.383ZM221.201 445.817H204.322V442.959H221.201V445.817ZM221.201 441.529H204.322V438.671H221.201V441.529Z" fill="#3F3D56"/>
<path d="M297.906 344.898C297.983 344.898 298.057 344.823 298.111 344.689C298.166 344.555 298.197 344.373 298.197 344.183C298.197 343.994 298.166 343.812 298.111 343.678C298.057 343.544 297.983 343.469 297.906 343.469H295.141V340.61H297.906C297.983 340.61 298.057 340.535 298.111 340.401C298.166 340.267 298.197 340.085 298.197 339.896C298.197 339.706 298.166 339.524 298.111 339.39C298.057 339.256 297.983 339.181 297.906 339.181H274.332C274.255 339.181 274.181 339.256 274.127 339.39C274.072 339.524 274.041 339.706 274.041 339.896C274.041 340.085 274.072 340.267 274.127 340.401C274.181 340.535 274.255 340.61 274.332 340.61H277.097V343.469H274.332C274.255 343.469 274.181 343.544 274.127 343.678C274.072 343.812 274.041 343.994 274.041 344.183C274.041 344.373 274.072 344.555 274.127 344.689C274.181 344.823 274.255 344.898 274.332 344.898H277.097V347.757H274.332C274.255 347.757 274.181 347.832 274.127 347.966C274.072 348.1 274.041 348.282 274.041 348.471C274.041 348.661 274.072 348.842 274.127 348.976C274.181 349.11 274.255 349.186 274.332 349.186H277.097V352.044H274.623C274.469 352.045 274.322 352.196 274.213 352.464C274.104 352.732 274.043 353.095 274.043 353.473C274.043 353.852 274.104 354.215 274.213 354.483C274.322 354.751 274.469 354.902 274.623 354.903H276.978C276.961 355.017 276.952 355.138 276.952 355.26V365.265C276.952 365.549 276.998 365.822 277.079 366.023C277.161 366.224 277.272 366.337 277.388 366.337C277.504 366.337 277.615 366.224 277.697 366.023C277.779 365.822 277.825 365.549 277.825 365.265V355.26C277.824 355.138 277.815 355.017 277.798 354.903H294.44C294.423 355.017 294.414 355.138 294.413 355.26V365.265C294.413 365.549 294.459 365.822 294.541 366.023C294.623 366.224 294.734 366.337 294.85 366.337C294.966 366.337 295.077 366.224 295.158 366.023C295.24 365.822 295.286 365.549 295.286 365.265V355.26C295.286 355.138 295.277 355.017 295.26 354.903H297.615C297.691 354.903 297.767 354.867 297.838 354.795C297.909 354.724 297.973 354.618 298.027 354.486C298.081 354.353 298.124 354.195 298.154 354.021C298.183 353.848 298.198 353.661 298.198 353.473C298.198 353.285 298.183 353.099 298.154 352.926C298.124 352.752 298.081 352.594 298.027 352.461C297.973 352.329 297.909 352.223 297.838 352.152C297.767 352.08 297.691 352.044 297.615 352.044H295.141V349.186H297.906C297.983 349.186 298.057 349.11 298.111 348.976C298.166 348.842 298.197 348.661 298.197 348.471C298.197 348.282 298.166 348.1 298.111 347.966C298.057 347.832 297.983 347.757 297.906 347.757H295.141V344.898H297.906ZM277.679 340.61H294.559V343.469H277.679V340.61ZM294.559 352.044H277.679V349.186H294.559V352.044ZM294.559 347.757H277.679V344.898H294.559V347.757Z" fill="#3F3D56"/>
<path d="M187.424 524.58C187.424 506.253 181.369 462.765 173.901 462.765C166.432 462.765 160.378 506.253 160.378 524.58C160.38 533.383 161.806 541.824 164.341 548.047C166.877 554.27 170.316 557.766 173.901 557.766C177.486 557.766 180.924 554.27 183.46 548.047C185.996 541.824 187.422 533.383 187.424 524.58Z" fill="#F2F2F2"/>
<path d="M173.901 598.112C173.86 598.112 173.821 598.072 173.792 598C173.763 597.929 173.746 597.833 173.746 597.732V520.215C173.746 520.165 173.75 520.116 173.758 520.069C173.765 520.023 173.777 519.981 173.791 519.945C173.806 519.91 173.823 519.882 173.841 519.862C173.86 519.843 173.88 519.833 173.901 519.833C173.921 519.833 173.941 519.843 173.96 519.862C173.979 519.882 173.996 519.91 174.01 519.945C174.025 519.981 174.036 520.023 174.044 520.069C174.052 520.116 174.056 520.165 174.055 520.215V597.732C174.055 597.833 174.039 597.929 174.01 598C173.981 598.072 173.942 598.112 173.901 598.112Z" fill="#CCCCCC"/>
<path d="M173.901 534.698C173.879 534.698 173.857 534.686 173.837 534.664C173.816 534.641 173.799 534.608 173.784 534.567L166.006 512.543C165.98 512.467 165.967 512.368 165.97 512.268C165.973 512.168 165.992 512.075 166.023 512.009C166.053 511.943 166.094 511.91 166.134 511.917C166.175 511.924 166.213 511.97 166.24 512.046L174.018 534.069C174.037 534.124 174.05 534.192 174.054 534.264C174.058 534.336 174.054 534.41 174.042 534.476C174.029 534.542 174.009 534.598 173.985 534.638C173.96 534.677 173.931 534.698 173.901 534.698Z" fill="#CCCCCC"/>
<path d="M173.901 547.408C173.87 547.408 173.84 547.386 173.815 547.344C173.789 547.303 173.77 547.243 173.758 547.174C173.746 547.105 173.743 547.028 173.749 546.955C173.755 546.881 173.77 546.813 173.792 546.76L178.211 535.908C178.24 535.837 178.279 535.797 178.32 535.797C178.361 535.798 178.4 535.838 178.429 535.909C178.458 535.98 178.475 536.076 178.475 536.177C178.475 536.278 178.458 536.374 178.429 536.445L174.01 547.297C173.996 547.333 173.979 547.361 173.96 547.38C173.941 547.399 173.921 547.408 173.901 547.408Z" fill="#CCCCCC"/>
<path d="M58.4405 164.945C58.4405 146.618 52.386 103.13 44.9173 103.13C37.4486 103.13 31.394 146.618 31.394 164.945C31.3962 173.749 32.822 182.189 35.3578 188.412C37.8937 194.635 41.3321 198.131 44.9173 198.131C48.5024 198.131 51.9409 194.635 54.4767 188.412C57.0126 182.189 58.4383 173.749 58.4405 164.945Z" fill="#3F3D56"/>
<path d="M44.9173 238.477C44.8763 238.477 44.837 238.437 44.808 238.366C44.779 238.294 44.7627 238.198 44.7627 238.097V160.58C44.7629 160.48 44.7793 160.384 44.8083 160.313C44.8373 160.242 44.8765 160.203 44.9173 160.203C44.9582 160.203 44.9974 160.242 45.0264 160.313C45.0554 160.384 45.0717 160.48 45.072 160.58V238.097C45.072 238.147 45.068 238.196 45.0602 238.242C45.0524 238.288 45.0411 238.33 45.0267 238.366C45.0123 238.401 44.9953 238.429 44.9765 238.448C44.9578 238.467 44.9376 238.477 44.9173 238.477Z" fill="#CCCCCC"/>
<path d="M44.9175 175.063C44.8953 175.063 44.8734 175.052 44.8532 175.029C44.833 175.007 44.815 174.973 44.8005 174.932L37.023 152.908C36.9963 152.832 36.9829 152.733 36.9859 152.633C36.9888 152.533 37.0079 152.439 37.0388 152.374C37.0698 152.308 37.1101 152.275 37.1509 152.282C37.1917 152.289 37.2298 152.335 37.2567 152.411L45.0342 174.435C45.0536 174.49 45.0662 174.557 45.0704 174.629C45.0746 174.701 45.0704 174.775 45.0581 174.841C45.0457 174.907 45.026 174.963 45.001 175.003C44.9761 175.042 44.9471 175.063 44.9175 175.063Z" fill="#CCCCCC"/>
<path d="M44.9173 187.773C44.8867 187.773 44.8568 187.751 44.8314 187.709C44.806 187.668 44.7862 187.608 44.7745 187.539C44.7628 187.47 44.7597 187.393 44.7657 187.32C44.7716 187.246 44.7864 187.178 44.808 187.125L49.2273 176.274C49.2417 176.238 49.2587 176.21 49.2775 176.191C49.2962 176.172 49.3163 176.162 49.3366 176.162C49.3569 176.162 49.3771 176.172 49.3958 176.191C49.4146 176.21 49.4316 176.238 49.446 176.274C49.4603 176.309 49.4717 176.351 49.4795 176.397C49.4873 176.443 49.4913 176.492 49.4913 176.542C49.4913 176.592 49.4873 176.641 49.4795 176.687C49.4717 176.733 49.4603 176.775 49.446 176.81L45.0267 187.662C45.0123 187.698 44.9953 187.726 44.9765 187.745C44.9578 187.764 44.9376 187.774 44.9173 187.773Z" fill="#CCCCCC"/>
<path d="M30.2704 237.974C30.2704 234.297 30.8652 230.771 31.9239 228.171C32.9827 225.571 34.4187 224.111 35.916 224.111C37.4133 224.111 38.8493 225.571 39.9081 228.171C40.9668 230.771 41.5616 234.297 41.5616 237.974" fill="#F2F2F2"/>
<path d="M35.916 237.974C35.8755 237.974 35.8367 237.934 35.8081 237.864C35.7795 237.794 35.7634 237.698 35.7634 237.599V230.293C35.7634 230.194 35.7795 230.098 35.8081 230.028C35.8367 229.958 35.8755 229.918 35.916 229.918C35.9565 229.918 35.9953 229.958 36.0239 230.028C36.0525 230.098 36.0686 230.194 36.0686 230.293V237.599C36.0686 237.698 36.0525 237.794 36.0239 237.864C35.9953 237.934 35.9565 237.974 35.916 237.974Z" fill="#CCCCCC"/>
<path d="M35.9159 235.463C35.8794 235.463 35.8442 235.431 35.8166 235.373L33.9856 231.514C33.9704 231.482 33.9579 231.443 33.9488 231.399C33.9398 231.355 33.9343 231.307 33.9328 231.258C33.9313 231.209 33.9337 231.16 33.94 231.113C33.9462 231.066 33.9561 231.023 33.9692 230.986C33.9822 230.948 33.9981 230.918 34.016 230.895C34.0339 230.873 34.0534 230.86 34.0734 230.856C34.0933 230.852 34.1134 230.858 34.1325 230.874C34.1515 230.889 34.1691 230.913 34.1843 230.945L36.0154 234.804C36.039 234.854 36.0559 234.92 36.0637 234.995C36.0715 235.069 36.0699 235.147 36.059 235.219C36.0482 235.29 36.0287 235.352 36.0031 235.396C35.9775 235.44 35.9471 235.463 35.9159 235.463Z" fill="#CCCCCC"/>
<path d="M47.6649 237.974C47.6649 234.297 48.2597 230.771 49.3185 228.171C50.3772 225.571 51.8132 224.111 53.3105 224.111C54.8078 224.111 56.2438 225.571 57.3026 228.171C58.3613 230.771 58.9561 234.297 58.9561 237.974" fill="#F2F2F2"/>
<path d="M53.3105 237.974C53.2701 237.974 53.2313 237.934 53.2026 237.864C53.174 237.794 53.158 237.698 53.158 237.599V230.293C53.158 230.194 53.174 230.098 53.2026 230.028C53.2313 229.958 53.2701 229.918 53.3105 229.918C53.351 229.918 53.3898 229.958 53.4184 230.028C53.4471 230.098 53.4631 230.194 53.4631 230.293V237.599C53.4631 237.698 53.447 237.794 53.4184 237.864C53.3898 237.934 53.351 237.974 53.3105 237.974Z" fill="#CCCCCC"/>
<path d="M53.3104 235.463C53.274 235.463 53.2387 235.431 53.2111 235.373L51.3801 231.514C51.3496 231.449 51.3309 231.357 51.3279 231.258C51.325 231.16 51.338 231.062 51.3643 230.987C51.3906 230.912 51.4279 230.865 51.4681 230.857C51.5083 230.85 51.5481 230.881 51.5789 230.945L53.4099 234.804C53.4336 234.854 53.4504 234.92 53.4582 234.995C53.4661 235.069 53.4644 235.147 53.4536 235.219C53.4428 235.29 53.4232 235.352 53.3976 235.396C53.372 235.44 53.3416 235.463 53.3104 235.463Z" fill="#CCCCCC"/>
<path d="M342.552 523.55C342.552 505.223 336.497 461.734 329.029 461.734C321.56 461.734 315.505 505.223 315.505 523.55C315.508 532.353 316.933 540.794 319.469 547.017C322.005 553.24 325.443 556.735 329.029 556.735C332.614 556.735 336.052 553.24 338.588 547.017C341.124 540.794 342.55 532.353 342.552 523.55Z" fill="#00BFA6"/>
<path d="M329.029 597.081C328.988 597.081 328.948 597.041 328.919 596.97C328.89 596.899 328.874 596.802 328.874 596.702V519.185C328.874 519.135 328.878 519.085 328.886 519.039C328.893 518.992 328.905 518.95 328.919 518.915C328.933 518.879 328.95 518.851 328.969 518.832C328.988 518.813 329.008 518.803 329.029 518.803C329.049 518.803 329.069 518.813 329.088 518.832C329.107 518.851 329.124 518.879 329.138 518.915C329.153 518.95 329.164 518.992 329.172 519.039C329.18 519.085 329.183 519.135 329.183 519.185V596.702C329.183 596.802 329.167 596.899 329.138 596.97C329.109 597.041 329.07 597.081 329.029 597.081Z" fill="#CCCCCC"/>
<path d="M329.029 533.668C329.007 533.668 328.985 533.656 328.964 533.633C328.944 533.611 328.926 533.578 328.912 533.537L321.134 511.513C321.108 511.437 321.094 511.338 321.097 511.238C321.1 511.137 321.119 511.044 321.15 510.979C321.181 510.913 321.221 510.88 321.262 510.887C321.303 510.893 321.341 510.94 321.368 511.015L329.146 533.039C329.165 533.094 329.178 533.162 329.182 533.234C329.186 533.306 329.182 533.379 329.169 533.445C329.157 533.512 329.137 533.568 329.112 533.607C329.087 533.647 329.058 533.667 329.029 533.668Z" fill="#CCCCCC"/>
<path d="M329.029 546.378C328.998 546.378 328.968 546.356 328.943 546.314C328.917 546.272 328.897 546.213 328.886 546.144C328.874 546.074 328.871 545.998 328.877 545.924C328.883 545.851 328.898 545.783 328.919 545.73L333.339 534.878C333.353 534.843 333.37 534.815 333.389 534.796C333.408 534.777 333.428 534.767 333.448 534.767C333.468 534.767 333.488 534.777 333.507 534.796C333.526 534.815 333.543 534.843 333.557 534.878C333.572 534.913 333.583 534.955 333.591 535.001C333.599 535.047 333.603 535.097 333.603 535.146C333.603 535.196 333.599 535.246 333.591 535.292C333.583 535.338 333.572 535.38 333.557 535.415L329.138 546.267C329.124 546.302 329.107 546.33 329.088 546.349C329.069 546.368 329.049 546.378 329.029 546.378Z" fill="#CCCCCC"/>
<path d="M130.273 529.36H127.653C127.457 529.359 127.27 529.168 127.132 528.829C126.993 528.49 126.916 528.03 126.915 527.55V519.104C126.916 518.624 126.993 518.164 127.132 517.824C127.27 517.485 127.457 517.294 127.653 517.294H130.273C130.469 517.294 130.656 517.485 130.794 517.824C130.932 518.164 131.01 518.624 131.01 519.104V527.55C131.01 528.03 130.932 528.49 130.794 528.829C130.656 529.168 130.469 529.359 130.273 529.36Z" fill="#3F3D56"/>
<path d="M152.386 598.137H138.955C138.585 598.136 138.232 597.775 137.971 597.135C137.709 596.494 137.563 595.625 137.562 594.718V530.767C137.563 529.861 137.709 528.992 137.971 528.351C138.232 527.71 138.585 527.35 138.955 527.349H152.386C152.755 527.35 153.109 527.71 153.37 528.351C153.631 528.992 153.778 529.861 153.778 530.767V594.718C153.778 595.625 153.631 596.494 153.37 597.135C153.109 597.775 152.755 598.136 152.386 598.137Z" fill="#3F3D56"/>
<path d="M144.36 598.137H121.1C120.731 598.136 120.377 597.775 120.116 597.135C119.855 596.494 119.709 595.625 119.708 594.718V530.767C119.709 529.861 119.855 528.992 120.116 528.351C120.377 527.71 120.731 527.35 121.1 527.349H144.36C144.729 527.35 145.083 527.71 145.344 528.351C145.605 528.992 145.752 529.861 145.752 530.767V594.718C145.752 595.625 145.605 596.494 145.344 597.135C145.083 597.775 144.729 598.136 144.36 598.137Z" fill="#00BFA6"/>
<path d="M127.816 529.36H125.195C125 529.359 124.813 529.168 124.675 528.829C124.536 528.49 124.459 528.03 124.458 527.55V519.104C124.459 518.624 124.536 518.164 124.675 517.824C124.813 517.485 125 517.294 125.195 517.294H127.816C128.012 517.294 128.199 517.485 128.337 517.824C128.475 518.164 128.553 518.624 128.553 519.104V527.55C128.553 528.03 128.475 528.49 128.337 528.829C128.199 529.168 128.012 529.359 127.816 529.36Z" fill="#00BFA6"/>
<path d="M131.256 558.922H128.144C128.035 558.922 127.931 558.816 127.854 558.627C127.778 558.439 127.735 558.183 127.734 557.916V546.252C127.735 545.986 127.778 545.73 127.854 545.542C127.931 545.353 128.035 545.247 128.144 545.247H131.256C131.365 545.247 131.469 545.353 131.545 545.542C131.622 545.73 131.665 545.986 131.666 546.252V557.916C131.665 558.183 131.622 558.439 131.545 558.627C131.469 558.816 131.365 558.922 131.256 558.922Z" fill="white"/>
<path d="M137.317 558.922H134.204C134.096 558.922 133.992 558.816 133.915 558.627C133.838 558.439 133.795 558.183 133.795 557.916V546.252C133.795 545.986 133.838 545.73 133.915 545.542C133.992 545.353 134.096 545.247 134.204 545.247H137.317C137.425 545.247 137.529 545.353 137.606 545.542C137.683 545.73 137.726 545.986 137.726 546.252V557.916C137.726 558.183 137.683 558.439 137.606 558.627C137.529 558.816 137.425 558.922 137.317 558.922Z" fill="white"/>
<path d="M131.256 580.239H128.144C128.035 580.239 127.931 580.132 127.854 579.944C127.778 579.755 127.735 579.5 127.734 579.233V567.569C127.735 567.303 127.778 567.047 127.854 566.859C127.931 566.67 128.035 566.564 128.144 566.564H131.256C131.365 566.564 131.469 566.67 131.545 566.859C131.622 567.047 131.665 567.303 131.666 567.569V579.233C131.665 579.5 131.622 579.755 131.545 579.944C131.469 580.132 131.365 580.239 131.256 580.239Z" fill="white"/>
<path d="M137.317 580.239H134.204C134.096 580.239 133.992 580.132 133.915 579.944C133.838 579.755 133.795 579.5 133.795 579.233V567.569C133.795 567.303 133.838 567.047 133.915 566.859C133.992 566.67 134.096 566.564 134.204 566.564H137.317C137.425 566.564 137.529 566.67 137.606 566.859C137.683 567.047 137.726 567.303 137.726 567.569V579.233C137.726 579.5 137.683 579.755 137.606 579.944C137.529 580.132 137.425 580.239 137.317 580.239Z" fill="white"/>
<path d="M37.0448 328.899H33.9537C33.7232 328.898 33.5022 328.673 33.3393 328.273C33.1763 327.873 33.0846 327.33 33.0844 326.764V309.212C33.0846 308.646 33.1763 308.103 33.3393 307.703C33.5022 307.303 33.7232 307.078 33.9537 307.077H37.0448C37.2753 307.078 37.4963 307.303 37.6593 307.703C37.8223 308.103 37.914 308.646 37.9142 309.212V326.764C37.914 327.33 37.8223 327.873 37.6593 328.273C37.4963 328.673 37.2753 328.898 37.0448 328.899Z" fill="#3F3D56"/>
<path d="M49.2161 492.562H33.3741C32.9387 492.561 32.5213 492.136 32.2135 491.38C31.9056 490.624 31.7324 489.599 31.7319 488.53V331.508C31.7324 330.439 31.9056 329.414 32.2135 328.658C32.5213 327.902 32.9387 327.477 33.3741 327.476H49.2161C49.6515 327.477 50.0689 327.902 50.3767 328.658C50.6846 329.414 50.8577 330.439 50.8582 331.508V488.53C50.8577 489.599 50.6846 490.624 50.3767 491.38C50.0689 492.136 49.6515 492.561 49.2161 492.562Z" fill="#3F3D56"/>
<path d="M39.7495 492.562H23.9075C23.4722 492.561 23.0548 492.136 22.7469 491.38C22.439 490.624 22.2659 489.599 22.2654 488.53V331.508C22.2659 330.439 22.439 329.414 22.7469 328.658C23.0548 327.902 23.4722 327.477 23.9075 327.476H39.7495C40.1849 327.477 40.6023 327.902 40.9102 328.658C41.218 329.414 41.3912 330.439 41.3917 331.508V488.53C41.3912 489.599 41.218 490.624 40.9102 491.38C40.6023 492.136 40.1849 492.561 39.7495 492.562Z" fill="#00BFA6"/>
<path d="M34.1469 328.899H31.0558C30.8253 328.898 30.6043 328.673 30.4413 328.273C30.2783 327.873 30.1867 327.33 30.1864 326.764V309.212C30.1867 308.646 30.2783 308.103 30.4413 307.703C30.6043 307.303 30.8253 307.078 31.0558 307.077H34.1469C34.3774 307.078 34.5984 307.303 34.7614 307.703C34.9243 308.103 35.016 308.646 35.0163 309.212V326.764C35.016 327.33 34.9243 327.873 34.7614 328.273C34.5984 328.673 34.3774 328.898 34.1469 328.899Z" fill="#00BFA6"/>
<path d="M30.0898 363.055H26.4191C26.2911 363.054 26.1683 362.929 26.0778 362.707C25.9872 362.485 25.9363 362.183 25.9362 361.869V348.112C25.9363 347.797 25.9872 347.496 26.0778 347.273C26.1683 347.051 26.2911 346.926 26.4191 346.926H30.0898C30.2179 346.926 30.3407 347.051 30.4312 347.273C30.5218 347.496 30.5727 347.797 30.5728 348.112V361.869C30.5727 362.183 30.5218 362.485 30.4312 362.707C30.3407 362.929 30.2179 363.054 30.0898 363.055Z" fill="white"/>
<path d="M37.2381 363.055H33.5673C33.4393 363.054 33.3165 362.929 33.226 362.707C33.1354 362.485 33.0845 362.183 33.0844 361.869V348.112C33.0845 347.797 33.1354 347.496 33.226 347.273C33.3165 347.051 33.4393 346.926 33.5673 346.926H37.238C37.3661 346.926 37.4889 347.051 37.5794 347.273C37.67 347.496 37.7209 347.797 37.721 348.112V361.869C37.7209 362.183 37.6699 362.485 37.5794 362.707C37.4889 362.929 37.3661 363.054 37.2381 363.055Z" fill="white"/>
<path d="M30.0898 388.197H26.4191C26.2911 388.197 26.1683 388.072 26.0778 387.85C25.9872 387.627 25.9363 387.326 25.9362 387.011V373.254C25.9363 372.94 25.9872 372.638 26.0778 372.416C26.1683 372.194 26.2911 372.069 26.4191 372.068H30.0898C30.2179 372.069 30.3407 372.194 30.4312 372.416C30.5218 372.638 30.5727 372.94 30.5728 373.254V387.011C30.5727 387.326 30.5218 387.627 30.4312 387.85C30.3407 388.072 30.2179 388.197 30.0898 388.197Z" fill="white"/>
<path d="M37.2381 388.197H33.5673C33.4393 388.197 33.3165 388.072 33.226 387.85C33.1354 387.627 33.0845 387.326 33.0844 387.011V373.254C33.0845 372.94 33.1354 372.638 33.226 372.416C33.3165 372.194 33.4393 372.069 33.5673 372.068H37.238C37.3661 372.069 37.4889 372.194 37.5794 372.416C37.67 372.638 37.7209 372.94 37.721 373.254V387.011C37.7209 387.326 37.6699 387.627 37.5794 387.85C37.4889 388.072 37.3661 388.197 37.2381 388.197Z" fill="white"/>
<path d="M30.0898 413.34H26.4191C26.2911 413.339 26.1683 413.214 26.0778 412.992C25.9872 412.77 25.9363 412.468 25.9362 412.154V398.397C25.9363 398.082 25.9872 397.781 26.0778 397.558C26.1683 397.336 26.2911 397.211 26.4191 397.211H30.0898C30.2179 397.211 30.3407 397.336 30.4312 397.558C30.5218 397.781 30.5727 398.082 30.5728 398.397V412.154C30.5727 412.468 30.5218 412.77 30.4312 412.992C30.3407 413.214 30.2179 413.339 30.0898 413.34Z" fill="white"/>
<path d="M37.2381 413.34H33.5673C33.4393 413.339 33.3165 413.214 33.226 412.992C33.1354 412.77 33.0845 412.468 33.0844 412.154V398.397C33.0845 398.082 33.1354 397.781 33.226 397.558C33.3165 397.336 33.4393 397.211 33.5673 397.211H37.238C37.3661 397.211 37.4889 397.336 37.5794 397.558C37.67 397.781 37.7209 398.082 37.721 398.397V412.154C37.7209 412.468 37.6699 412.77 37.5794 412.992C37.4889 413.214 37.3661 413.339 37.2381 413.34Z" fill="white"/>
<path d="M30.0898 438.482H26.4191C26.2911 438.482 26.1683 438.357 26.0778 438.134C25.9872 437.912 25.9363 437.611 25.9362 437.296V423.539C25.9363 423.225 25.9872 422.923 26.0778 422.701C26.1683 422.479 26.2911 422.353 26.4191 422.353H30.0898C30.2179 422.353 30.3407 422.479 30.4312 422.701C30.5218 422.923 30.5727 423.225 30.5728 423.539V437.296C30.5727 437.611 30.5218 437.912 30.4312 438.134C30.3407 438.357 30.2179 438.482 30.0898 438.482Z" fill="white"/>
<path d="M37.2381 438.482H33.5673C33.4393 438.482 33.3165 438.357 33.226 438.134C33.1354 437.912 33.0845 437.611 33.0844 437.296V423.539C33.0845 423.225 33.1354 422.923 33.226 422.701C33.3165 422.479 33.4393 422.353 33.5673 422.353H37.238C37.3661 422.353 37.4889 422.479 37.5794 422.701C37.67 422.923 37.7209 423.225 37.721 423.539V437.296C37.7209 437.611 37.6699 437.912 37.5794 438.134C37.4889 438.357 37.3661 438.482 37.2381 438.482Z" fill="white"/>
<path d="M30.0898 463.625H26.4191C26.2911 463.624 26.1683 463.499 26.0778 463.277C25.9872 463.055 25.9363 462.753 25.9362 462.439V448.682C25.9363 448.367 25.9872 448.066 26.0778 447.843C26.1683 447.621 26.2911 447.496 26.4191 447.496H30.0898C30.2179 447.496 30.3407 447.621 30.4312 447.843C30.5218 448.066 30.5727 448.367 30.5728 448.682V462.439C30.5727 462.753 30.5218 463.055 30.4312 463.277C30.3407 463.499 30.2179 463.624 30.0898 463.625Z" fill="white"/>
<path d="M37.2381 463.625H33.5673C33.4393 463.624 33.3165 463.499 33.226 463.277C33.1354 463.055 33.0845 462.753 33.0844 462.439V448.682C33.0845 448.367 33.1354 448.066 33.226 447.843C33.3165 447.621 33.4393 447.496 33.5673 447.496H37.238C37.3661 447.496 37.4889 447.621 37.5794 447.843C37.67 448.066 37.7209 448.367 37.721 448.682V462.439C37.7209 462.753 37.6699 463.055 37.5794 463.277C37.4889 463.499 37.3661 463.624 37.2381 463.625Z" fill="white"/>
<path d="M282.903 529.576H280.282C280.087 529.575 279.899 529.384 279.761 529.045C279.623 528.706 279.545 528.246 279.545 527.766V519.319C279.545 518.84 279.623 518.379 279.761 518.04C279.899 517.701 280.087 517.51 280.282 517.509H282.903C283.098 517.51 283.286 517.701 283.424 518.04C283.562 518.379 283.64 518.84 283.64 519.319V527.766C283.64 528.246 283.562 528.706 283.424 529.045C283.286 529.384 283.098 529.575 282.903 529.576Z" fill="#3F3D56"/>
<path d="M305.016 598.353H291.584C291.215 598.352 290.861 597.991 290.6 597.35C290.339 596.709 290.192 595.84 290.192 594.934V530.983C290.192 530.077 290.339 529.208 290.6 528.567C290.861 527.926 291.215 527.565 291.584 527.564H305.016C305.385 527.565 305.739 527.926 306 528.567C306.261 529.208 306.408 530.077 306.408 530.983V594.934C306.408 595.84 306.261 596.709 306 597.35C305.739 597.991 305.385 598.352 305.016 598.353Z" fill="#3F3D56"/>
<path d="M296.99 598.353H273.73C273.361 598.352 273.007 597.991 272.746 597.35C272.485 596.709 272.338 595.84 272.338 594.934V530.983C272.338 530.077 272.485 529.208 272.746 528.567C273.007 527.926 273.361 527.565 273.73 527.564H296.99C297.359 527.565 297.713 527.926 297.974 528.567C298.235 529.208 298.381 530.077 298.382 530.983V594.934C298.381 595.84 298.235 596.709 297.974 597.35C297.713 597.991 297.359 598.352 296.99 598.353Z" fill="#00BFA6"/>
<path d="M280.446 529.576H277.825C277.63 529.575 277.442 529.384 277.304 529.045C277.166 528.706 277.088 528.246 277.088 527.766V519.319C277.088 518.84 277.166 518.379 277.304 518.04C277.442 517.701 277.63 517.51 277.825 517.509H280.446C280.641 517.51 280.829 517.701 280.967 518.04C281.105 518.379 281.183 518.84 281.183 519.319V527.766C281.183 528.246 281.105 528.706 280.967 529.045C280.829 529.384 280.641 529.575 280.446 529.576Z" fill="#00BFA6"/>
<path d="M283.886 559.138H280.773C280.665 559.137 280.561 559.031 280.484 558.843C280.407 558.654 280.364 558.399 280.364 558.132V546.468C280.364 546.202 280.407 545.946 280.484 545.758C280.561 545.569 280.665 545.463 280.773 545.463H283.886C283.994 545.463 284.098 545.569 284.175 545.758C284.252 545.946 284.295 546.202 284.295 546.468V558.132C284.295 558.399 284.252 558.654 284.175 558.843C284.098 559.031 283.994 559.137 283.886 559.138Z" fill="white"/>
<path d="M289.946 559.138H286.834C286.725 559.137 286.621 559.031 286.545 558.843C286.468 558.654 286.425 558.399 286.425 558.132V546.468C286.425 546.202 286.468 545.946 286.545 545.758C286.621 545.569 286.725 545.463 286.834 545.463H289.946C290.055 545.463 290.159 545.569 290.236 545.758C290.312 545.946 290.356 546.202 290.356 546.468V558.132C290.356 558.399 290.312 558.654 290.236 558.843C290.159 559.031 290.055 559.137 289.946 559.138Z" fill="white"/>
<path d="M283.886 580.455H280.773C280.665 580.454 280.561 580.348 280.484 580.16C280.407 579.971 280.364 579.716 280.364 579.449V567.785C280.364 567.519 280.407 567.263 280.484 567.075C280.561 566.886 280.665 566.78 280.773 566.78H283.886C283.994 566.78 284.098 566.886 284.175 567.075C284.252 567.263 284.295 567.519 284.295 567.785V579.449C284.295 579.716 284.252 579.971 284.175 580.16C284.098 580.348 283.994 580.454 283.886 580.455Z" fill="white"/>
<path d="M289.946 580.455H286.834C286.725 580.454 286.621 580.348 286.545 580.16C286.468 579.971 286.425 579.716 286.425 579.449V567.785C286.425 567.519 286.468 567.263 286.545 567.075C286.621 566.886 286.725 566.78 286.834 566.78H289.946C290.055 566.78 290.159 566.886 290.236 567.075C290.312 567.263 290.356 567.519 290.356 567.785V579.449C290.356 579.716 290.312 579.971 290.236 580.16C290.159 580.348 290.055 580.454 289.946 580.455Z" fill="white"/>
</g>
<defs>
<clipPath id="clip0_7_390">
<rect width="366" height="726" fill="white"/>
</clipPath>
</defs>
</svg>
