<svg width="370" height="773" viewBox="0 0 370 773" fill="none" xmlns="http://www.w3.org/2000/svg">
<g opacity="0.08" clip-path="url(#clip0_6_241)">
<path d="M64.3003 525.099H63.1234C62.9674 525.099 62.8179 524.938 62.7076 524.653C62.5972 524.367 62.5352 523.981 62.535 523.577V520.534C62.5352 520.13 62.5972 519.743 62.7076 519.458C62.8179 519.173 62.9674 519.012 63.1234 519.012H64.3003C64.4563 519.012 64.6059 519.173 64.7162 519.458C64.8265 519.743 64.8885 520.13 64.8887 520.534V523.577C64.8885 523.981 64.8265 524.367 64.7162 524.653C64.6059 524.938 64.4563 525.099 64.3003 525.099Z" fill="#CCCCCC"/>
<path d="M63.734 521.745C63.7115 521.746 63.6891 521.741 63.667 521.73C63.6163 521.708 63.5677 521.66 63.5241 521.589C63.4806 521.518 63.4428 521.425 63.4131 521.316C63.3834 521.207 63.3622 521.085 63.3509 520.955C63.3395 520.825 63.3381 520.69 63.3469 520.559L67.2263 462.178C67.2446 461.914 67.3024 461.68 67.3872 461.526C67.472 461.372 67.5769 461.311 67.679 461.357C67.7811 461.402 67.8721 461.55 67.9321 461.768C67.9922 461.987 68.0165 462.258 67.9996 462.522L64.1201 520.903C64.1044 521.138 64.0571 521.352 63.9864 521.506C63.9158 521.66 63.8264 521.745 63.734 521.745Z" fill="#CCCCCC"/>
<path d="M63.7331 521.745C63.6406 521.745 63.5512 521.66 63.4806 521.506C63.4099 521.352 63.3626 521.138 63.3469 520.903L59.4675 462.522C59.4506 462.258 59.4749 461.987 59.5349 461.768C59.595 461.55 59.686 461.402 59.7881 461.357C59.8902 461.311 59.9951 461.372 60.0799 461.526C60.1647 461.68 60.2225 461.914 60.2408 462.178L64.1202 520.559C64.1289 520.69 64.1275 520.825 64.1162 520.955C64.1048 521.085 64.0836 521.207 64.0539 521.316C64.0242 521.425 63.9865 521.518 63.9429 521.589C63.8993 521.66 63.8508 521.708 63.8 521.73C63.7779 521.74 63.7555 521.746 63.7331 521.745Z" fill="#CCCCCC"/>
<path d="M72.0852 452.185C72.4634 445.257 71.0327 439.006 68.8894 438.223C66.7462 437.441 64.7023 442.423 64.3242 449.351C64.0052 455.195 64.9755 460.542 66.5723 462.547L66.4814 464.213L68.4216 464.921L68.5125 463.256C70.2615 462.472 71.7663 458.028 72.0852 452.185Z" fill="#FF6584"/>
<path d="M63.0759 449.032C62.6116 442.139 60.5068 437.33 58.3744 438.29C56.2419 439.251 54.8899 445.617 55.3541 452.51C55.7456 458.324 57.305 462.64 59.0628 463.278L59.1744 464.935L61.1049 464.066L60.9932 462.409C62.5642 460.271 63.4674 454.846 63.0759 449.032Z" fill="#CCCCCC"/>
<path d="M63.7119 520.534C63.6078 520.534 63.5081 520.427 63.4345 520.236C63.3609 520.046 63.3196 519.788 63.3196 519.519V459.504C63.3191 459.37 63.3289 459.237 63.3485 459.113C63.368 458.989 63.3968 458.876 63.4333 458.781C63.4697 458.685 63.5131 458.61 63.5609 458.558C63.6088 458.507 63.66 458.48 63.7119 458.48C63.7637 458.48 63.815 458.507 63.8628 458.558C63.9106 458.61 63.954 458.685 63.9905 458.781C64.0269 458.876 64.0558 458.989 64.0753 459.113C64.0948 459.237 64.1046 459.37 64.1041 459.504V519.519C64.1041 519.788 64.0628 520.046 63.9892 520.236C63.9157 520.427 63.8159 520.534 63.7119 520.534Z" fill="#CCCCCC"/>
<path d="M67.3878 447.976C67.3878 440.979 65.6333 435.307 63.4688 435.307C61.3043 435.307 59.5498 440.979 59.5498 447.976C59.5498 453.877 60.7996 458.821 62.4891 460.23V461.912H64.4486V460.23C66.138 458.821 67.3878 453.877 67.3878 447.976Z" fill="#00BFA6"/>
<path d="M246.384 773L246.306 772.981L123.616 743.506L12.0507 770.308C10.5227 770.676 8.98197 770.214 7.52688 768.953C6.0718 767.693 4.73442 765.661 3.60025 762.988C2.46608 760.315 1.56008 757.059 0.940143 753.428C0.320211 749.798 -5.30841e-06 745.873 -3.00197e-05 741.904V55.6976C-0.0112921 48.5803 1.01121 41.7116 2.86505 36.4513C4.71888 31.191 7.26887 27.9227 10.0102 27.2935L123.616 0L123.695 0.0192759L246.384 29.4943L357.949 2.69152C359.477 2.32443 361.018 2.78591 362.473 4.04644C363.928 5.30697 365.265 7.33882 366.4 10.0121C367.534 12.6854 368.44 15.9413 369.06 19.5717C369.68 23.202 370 27.127 370 31.0956V717.302C370.011 724.419 368.989 731.288 367.135 736.548C365.281 741.809 362.731 745.077 359.99 745.706L246.384 773ZM123.616 739.098L123.695 739.117L246.384 768.592L359.833 741.337C362.152 740.804 364.31 738.039 365.879 733.588C367.447 729.136 368.312 723.324 368.303 717.302V31.0956C368.303 27.7375 368.032 24.4164 367.507 21.3445C366.983 18.2726 366.216 15.5176 365.257 13.2555C364.297 10.9935 363.165 9.27419 361.934 8.20755C360.703 7.1409 359.399 6.75039 358.106 7.06097L246.384 33.9023L246.306 33.883L123.616 4.40803L10.1671 31.663C7.84757 32.1956 5.6899 34.9612 4.12128 39.4123C2.55266 43.8633 1.68745 49.6753 1.69696 55.6977V741.904C1.69697 745.262 1.96792 748.584 2.49247 751.655C3.01702 754.727 3.78364 757.482 4.74332 759.744C5.703 762.006 6.83462 763.726 8.06585 764.792C9.29707 765.859 10.6008 766.25 11.8937 765.939L123.616 739.098Z" fill="#E6E6E6"/>
<path d="M353.508 175.624C353.508 156.11 347.387 109.806 339.837 109.806C332.286 109.806 326.166 156.11 326.166 175.624C326.168 184.997 327.609 193.984 330.173 200.61C332.736 207.236 336.212 210.958 339.837 210.958C343.461 210.958 346.937 207.236 349.501 200.61C352.064 193.984 353.506 184.997 353.508 175.624Z" fill="#3F3D56"/>
<path d="M339.837 253.916C339.795 253.916 339.756 253.873 339.726 253.797C339.697 253.721 339.68 253.618 339.68 253.511V170.976C339.681 170.869 339.697 170.767 339.727 170.692C339.756 170.616 339.795 170.574 339.837 170.574C339.878 170.574 339.918 170.616 339.947 170.692C339.976 170.767 339.993 170.869 339.993 170.976V253.511C339.993 253.564 339.989 253.617 339.981 253.666C339.973 253.715 339.962 253.759 339.947 253.797C339.933 253.835 339.916 253.864 339.897 253.885C339.878 253.905 339.857 253.916 339.837 253.916Z" fill="#CCCCCC"/>
<path d="M339.837 186.397C339.814 186.397 339.792 186.384 339.772 186.36C339.752 186.336 339.733 186.301 339.719 186.257L331.856 162.807C331.829 162.726 331.816 162.621 331.819 162.514C331.822 162.407 331.841 162.308 331.872 162.238C331.903 162.168 331.944 162.133 331.985 162.14C332.027 162.147 332.065 162.197 332.092 162.278L339.955 185.727C339.975 185.786 339.987 185.858 339.992 185.934C339.996 186.011 339.991 186.089 339.979 186.16C339.967 186.23 339.947 186.29 339.921 186.332C339.896 186.374 339.867 186.396 339.837 186.397Z" fill="#CCCCCC"/>
<path d="M339.837 199.93C339.806 199.93 339.776 199.906 339.75 199.861C339.724 199.817 339.704 199.754 339.692 199.68C339.681 199.606 339.678 199.525 339.684 199.446C339.69 199.368 339.704 199.296 339.726 199.239L344.194 187.685C344.208 187.648 344.226 187.618 344.245 187.598C344.264 187.577 344.284 187.567 344.304 187.567C344.325 187.567 344.345 187.577 344.364 187.598C344.383 187.618 344.4 187.648 344.415 187.685C344.43 187.723 344.441 187.767 344.449 187.816C344.457 187.865 344.461 187.918 344.461 187.971C344.461 188.024 344.457 188.077 344.449 188.126C344.441 188.175 344.43 188.219 344.415 188.257L339.947 199.811C339.933 199.849 339.916 199.879 339.897 199.899C339.878 199.919 339.857 199.93 339.837 199.93Z" fill="#CCCCCC"/>
<path d="M325.03 253.38C325.03 249.465 325.631 245.711 326.701 242.943C327.772 240.175 329.223 238.62 330.737 238.62C332.251 238.62 333.702 240.175 334.773 242.943C335.843 245.711 336.444 249.465 336.444 253.38" fill="#F2F2F2"/>
<path d="M330.737 253.38C330.696 253.38 330.657 253.338 330.628 253.263C330.599 253.188 330.583 253.087 330.583 252.981V245.202C330.583 245.096 330.599 244.994 330.628 244.92C330.657 244.845 330.696 244.803 330.737 244.803C330.778 244.803 330.817 244.845 330.846 244.92C330.875 244.994 330.891 245.096 330.891 245.202V252.981C330.891 253.087 330.875 253.188 330.846 253.263C330.817 253.338 330.778 253.38 330.737 253.38Z" fill="#CCCCCC"/>
<path d="M330.737 250.707C330.7 250.707 330.665 250.673 330.637 250.61L328.786 246.502C328.77 246.468 328.758 246.426 328.748 246.379C328.739 246.333 328.734 246.282 328.732 246.229C328.731 246.177 328.733 246.125 328.739 246.075C328.746 246.025 328.756 245.979 328.769 245.939C328.782 245.9 328.798 245.867 328.816 245.843C328.834 245.82 328.854 245.805 328.874 245.801C328.895 245.797 328.915 245.804 328.934 245.82C328.953 245.836 328.971 245.862 328.987 245.896L330.838 250.005C330.861 250.058 330.879 250.129 330.886 250.208C330.894 250.287 330.893 250.37 330.882 250.446C330.871 250.523 330.851 250.589 330.825 250.635C330.799 250.682 330.769 250.707 330.737 250.707Z" fill="#CCCCCC"/>
<path d="M342.614 253.38C342.614 249.465 343.216 245.711 344.286 242.943C345.356 240.175 346.808 238.62 348.322 238.62C349.835 238.62 351.287 240.175 352.357 242.943C353.428 245.711 354.029 249.465 354.029 253.38" fill="#F2F2F2"/>
<path d="M348.322 253.38C348.281 253.38 348.242 253.338 348.213 253.263C348.184 253.188 348.167 253.087 348.167 252.981V245.202C348.167 245.096 348.184 244.994 348.213 244.92C348.242 244.845 348.281 244.803 348.322 244.803C348.363 244.803 348.402 244.845 348.431 244.92C348.46 244.994 348.476 245.096 348.476 245.202V252.981C348.476 253.087 348.46 253.188 348.431 253.263C348.402 253.338 348.363 253.38 348.322 253.38Z" fill="#CCCCCC"/>
<path d="M348.322 250.707C348.285 250.707 348.249 250.673 348.221 250.61L346.37 246.502C346.34 246.433 346.321 246.335 346.318 246.23C346.315 246.125 346.328 246.021 346.354 245.941C346.381 245.861 346.419 245.811 346.459 245.803C346.5 245.794 346.54 245.828 346.571 245.896L348.422 250.005C348.446 250.058 348.463 250.129 348.471 250.208C348.479 250.287 348.477 250.37 348.466 250.446C348.456 250.523 348.436 250.589 348.41 250.635C348.384 250.682 348.353 250.707 348.322 250.707Z" fill="#CCCCCC"/>
<path d="M173.69 119.735C177.439 105.855 181.983 65.0508 176.612 55.3472C171.241 45.6437 157.99 70.7151 154.24 84.5955C152.44 91.2658 151.737 99.5123 152.287 107.522C152.837 115.531 154.595 122.648 157.174 127.307C159.752 131.965 162.941 133.785 166.038 132.365C169.135 130.945 171.887 126.402 173.69 119.735Z" fill="#F2F2F2"/>
<path d="M148.921 157.857C148.891 157.804 148.871 157.722 148.865 157.631C148.859 157.539 148.867 157.445 148.887 157.369L164.747 98.6585C164.767 98.5822 164.799 98.5302 164.834 98.5139C164.87 98.4977 164.906 98.5185 164.936 98.5718C164.965 98.6251 164.985 98.7065 164.991 98.7981C164.998 98.8897 164.99 98.984 164.969 99.0603L149.11 157.77C149.089 157.847 149.058 157.899 149.022 157.915C148.987 157.931 148.95 157.91 148.921 157.857Z" fill="#CCCCCC"/>
<path d="M161.895 109.829C161.879 109.8 161.865 109.763 161.856 109.719C161.846 109.676 161.84 109.628 161.838 109.578L160.751 82.7921C160.747 82.6995 160.757 82.6069 160.78 82.5346C160.803 82.4622 160.836 82.4162 160.871 82.4065C160.907 82.3967 160.943 82.4242 160.971 82.4828C160.999 82.5413 161.017 82.6262 161.021 82.7188L162.107 109.504C162.11 109.571 162.105 109.639 162.094 109.699C162.082 109.759 162.064 109.809 162.041 109.843C162.019 109.877 161.993 109.894 161.967 109.891C161.941 109.889 161.916 109.867 161.895 109.829Z" fill="#CCCCCC"/>
<path d="M159.294 119.455C159.272 119.415 159.255 119.36 159.246 119.295C159.236 119.23 159.234 119.16 159.24 119.092C159.245 119.024 159.259 118.962 159.278 118.914C159.298 118.866 159.322 118.834 159.348 118.822L164.747 116.345C164.764 116.337 164.782 116.337 164.8 116.347C164.817 116.357 164.834 116.375 164.848 116.402C164.863 116.428 164.876 116.462 164.885 116.501C164.895 116.54 164.901 116.583 164.905 116.629C164.908 116.674 164.907 116.721 164.903 116.766C164.9 116.811 164.892 116.854 164.882 116.892C164.872 116.93 164.859 116.962 164.844 116.986C164.828 117.011 164.812 117.028 164.794 117.036L159.396 119.513C159.378 119.521 159.36 119.52 159.343 119.51C159.325 119.5 159.309 119.482 159.294 119.455Z" fill="#CCCCCC"/>
<path d="M138.491 138.446C139.245 135.67 140.393 133.78 141.685 133.192C142.976 132.603 144.305 133.363 145.381 135.306C146.456 137.248 147.189 140.214 147.42 143.553C147.65 146.892 147.359 150.331 146.611 153.116" fill="#F2F2F2"/>
<path d="M142.551 145.781C142.522 145.729 142.502 145.648 142.496 145.558C142.49 145.467 142.497 145.374 142.518 145.299L144.013 139.766C144.033 139.691 144.064 139.64 144.099 139.625C144.134 139.609 144.169 139.63 144.198 139.682C144.227 139.734 144.247 139.814 144.254 139.904C144.26 139.994 144.252 140.087 144.232 140.162L142.737 145.696C142.717 145.771 142.686 145.822 142.651 145.838C142.616 145.854 142.58 145.834 142.551 145.781Z" fill="#CCCCCC"/>
<path d="M143.064 143.88C143.038 143.832 143.019 143.762 143.011 143.682L142.484 138.381C142.48 138.337 142.479 138.291 142.481 138.245C142.484 138.2 142.489 138.157 142.498 138.118C142.507 138.078 142.519 138.044 142.533 138.017C142.547 137.989 142.563 137.969 142.58 137.958C142.597 137.946 142.615 137.944 142.633 137.95C142.65 137.957 142.667 137.972 142.682 137.995C142.697 138.019 142.71 138.049 142.721 138.086C142.732 138.122 142.739 138.164 142.743 138.208L143.271 143.51C143.277 143.578 143.276 143.65 143.266 143.717C143.257 143.783 143.24 143.84 143.217 143.88C143.195 143.921 143.168 143.942 143.141 143.942C143.113 143.942 143.087 143.92 143.064 143.88Z" fill="#CCCCCC"/>
<path d="M151 161.046C151.371 159.663 151.845 158.483 152.393 157.574C152.942 156.665 153.554 156.045 154.195 155.748C154.836 155.452 155.494 155.486 156.13 155.848C156.766 156.21 157.368 156.893 157.902 157.857C158.436 158.822 158.891 160.05 159.241 161.47C159.592 162.89 159.83 164.475 159.943 166.134C160.056 167.792 160.042 169.493 159.9 171.137C159.759 172.781 159.493 174.337 159.119 175.716" fill="#F2F2F2"/>
<path d="M155.059 168.381C155.03 168.328 155.01 168.248 155.004 168.157C154.998 168.067 155.006 167.974 155.026 167.899L156.521 162.365C156.541 162.29 156.572 162.239 156.607 162.223C156.642 162.207 156.678 162.227 156.707 162.28C156.737 162.332 156.756 162.413 156.763 162.503C156.769 162.593 156.761 162.687 156.741 162.762L155.246 168.295C155.225 168.371 155.194 168.422 155.159 168.438C155.124 168.454 155.088 168.433 155.059 168.381Z" fill="#CCCCCC"/>
<path d="M155.573 166.479C155.547 166.432 155.528 166.362 155.52 166.282L154.993 160.98C154.984 160.891 154.99 160.798 155.008 160.719C155.026 160.64 155.055 160.583 155.089 160.561C155.124 160.538 155.16 160.551 155.19 160.597C155.221 160.644 155.243 160.719 155.252 160.808L155.779 166.109C155.786 166.178 155.785 166.25 155.775 166.316C155.766 166.383 155.748 166.44 155.726 166.48C155.703 166.52 155.677 166.542 155.649 166.542C155.622 166.542 155.595 166.52 155.573 166.479Z" fill="#CCCCCC"/>
<path d="M250.619 422.511C253.635 429.675 256.632 436.891 259.609 444.158C258.845 444.268 258.052 444.356 257.237 444.421C256.087 444.52 254.891 444.564 253.635 444.564C239.86 444.564 232.868 438.716 226.114 433.055C219.699 427.689 213.641 422.62 201.202 422.62C188.759 422.62 182.701 427.689 176.29 433.055C169.532 438.716 162.54 444.564 148.765 444.564C134.986 444.564 127.998 438.716 121.24 433.055C114.974 427.81 109.047 422.851 97.1765 422.631C96.8964 422.62 96.6166 422.62 96.328 422.62V400.677C96.6122 400.677 96.8964 400.677 97.1765 400.688C110.396 400.918 117.235 406.645 123.853 412.175C130.268 417.551 136.326 422.62 148.765 422.62C161.204 422.62 167.262 417.551 173.677 412.175C180.435 406.525 187.423 400.677 201.202 400.677C214.978 400.677 221.965 406.525 228.723 412.175C234.082 416.663 239.194 420.942 247.984 422.225C248.828 422.357 249.702 422.445 250.619 422.511Z" fill="#00BFA6"/>
<path d="M358.514 422.62V444.564C344.734 444.564 337.747 438.716 330.989 433.055C324.574 427.689 318.516 422.62 306.077 422.62C293.633 422.62 287.575 427.689 281.16 433.055C280.813 433.351 280.461 433.636 280.108 433.932C279.506 434.437 278.895 434.942 278.276 435.435C275.934 429.5 273.583 423.615 271.225 417.782C271.882 417.365 272.518 416.926 273.147 416.476C275.017 415.138 276.769 413.667 278.551 412.175C285.31 406.525 292.297 400.677 306.077 400.677C319.856 400.677 326.844 406.525 333.602 412.175C340.016 417.551 346.075 422.62 358.514 422.62Z" fill="#00BFA6"/>
<path d="M171.025 253.863C147.276 209.13 122.288 166.713 96.7608 127.796L95.4796 125.843V257.834H173.134L171.025 253.863ZM97.1766 253.446V133.534C121.461 170.685 145.24 210.996 167.916 253.446H97.1766ZM291.219 525.119C280.948 497.503 270.411 470.516 259.609 444.158C256.63 436.884 253.634 429.668 250.619 422.511C232.219 378.799 213.214 337.227 193.604 297.794L193.375 297.333H95.4796V528.839H292.603L291.219 525.119ZM97.1766 524.45V301.722H192.794C211.703 339.761 230.099 379.929 247.984 422.225C251.09 429.565 254.174 436.964 257.237 444.421C267.945 470.447 278.403 497.123 288.61 524.45H97.1766ZM291.219 525.119C280.948 497.503 270.411 470.516 259.609 444.158C256.63 436.884 253.634 429.668 250.619 422.511C232.219 378.799 213.214 337.227 193.604 297.794L193.375 297.333H95.4796V528.839H292.603L291.219 525.119ZM97.1766 524.45V301.722H192.794C211.703 339.761 230.099 379.929 247.984 422.225C251.09 429.565 254.174 436.964 257.237 444.421C267.945 470.447 278.403 497.123 288.61 524.45H97.1766ZM171.025 253.863C147.276 209.13 122.288 166.713 96.7608 127.796L95.4796 125.843V257.834H173.134L171.025 253.863ZM97.1766 253.446V133.534C121.461 170.685 145.24 210.996 167.916 253.446H97.1766ZM171.025 253.863C147.276 209.13 122.288 166.713 96.7608 127.796L95.4796 125.843V257.834H173.134L171.025 253.863ZM97.1766 253.446V133.534C121.461 170.685 145.24 210.996 167.916 253.446H97.1766ZM291.219 525.119C280.948 497.503 270.411 470.516 259.609 444.158C256.63 436.884 253.634 429.668 250.619 422.511C232.219 378.799 213.214 337.227 193.604 297.794L193.375 297.333H95.4796V528.839H292.603L291.219 525.119ZM97.1766 524.45V301.722H192.794C211.703 339.761 230.099 379.929 247.984 422.225C251.09 429.565 254.174 436.964 257.237 444.421C267.945 470.447 278.403 497.123 288.61 524.45H97.1766ZM11.4868 568.337V572.726H78.5096V636.363H11.4868V640.751H80.2066V568.337H11.4868ZM95.4796 680.25V724.719L97.1766 724.313V684.639H358.514V680.25H95.4796ZM358.514 572.726V568.337H95.4796V640.751H358.514V636.363H97.1766V572.726H358.514ZM200.036 253.446C167.48 188.497 133.098 129.91 97.1766 78.1706V33.7347L95.4796 34.1406V78.9205L96.7863 82.6361C132.562 134.235 166.804 192.642 199.229 257.374L199.459 257.834H358.514V253.446H200.036ZM78.5096 253.446H11.4868V257.834H80.2066V37.8052L78.5096 38.2112V253.446ZM358.514 297.333H218.686L220.514 301.217C237.73 337.852 254.634 376.707 271.225 417.782C273.583 423.619 275.934 429.503 278.276 435.435C289.934 464.895 301.365 495.316 312.568 526.699L313.967 528.839H358.514V524.45H314.074C302.992 493.378 291.671 463.205 280.108 433.932C277.796 428.073 275.476 422.255 273.147 416.476C256.915 376.198 240.336 337.947 223.412 301.722H358.514V297.333ZM11.4868 680.25V684.639H78.5096V728.789L80.2066 728.383V680.25H11.4868ZM11.4868 297.333V301.722H78.5096V524.45H11.4868V528.839H80.2066V297.333H11.4868ZM171.025 253.863C147.276 209.13 122.288 166.713 96.7608 127.796L95.4796 125.843V257.834H173.134L171.025 253.863ZM97.1766 253.446V133.534C121.461 170.685 145.24 210.996 167.916 253.446H97.1766ZM291.219 525.119C280.948 497.503 270.411 470.516 259.609 444.158C256.63 436.884 253.634 429.668 250.619 422.511C232.219 378.799 213.214 337.227 193.604 297.794L193.375 297.333H95.4796V528.839H292.603L291.219 525.119ZM97.1766 524.45V301.722H192.794C211.703 339.761 230.099 379.929 247.984 422.225C251.09 429.565 254.174 436.964 257.237 444.421C267.945 470.447 278.403 497.123 288.61 524.45H97.1766ZM171.025 253.863C147.276 209.13 122.288 166.713 96.7608 127.796L95.4796 125.843V257.834H173.134L171.025 253.863ZM97.1766 253.446V133.534C121.461 170.685 145.24 210.996 167.916 253.446H97.1766ZM291.219 525.119C280.948 497.503 270.411 470.516 259.609 444.158C256.63 436.884 253.634 429.668 250.619 422.511C232.219 378.799 213.214 337.227 193.604 297.794L193.375 297.333H95.4796V528.839H292.603L291.219 525.119ZM97.1766 524.45V301.722H192.794C211.703 339.761 230.099 379.929 247.984 422.225C251.09 429.565 254.174 436.964 257.237 444.421C267.945 470.447 278.403 497.123 288.61 524.45H97.1766Z" fill="#3F3D56"/>
<path d="M215.41 403.105C215.41 383.782 221.467 337.929 228.938 337.929C236.41 337.929 242.467 383.782 242.467 403.105C242.467 412.384 241.042 421.284 238.505 427.845C235.968 434.407 232.526 438.093 228.938 438.093C225.35 438.093 221.909 434.407 219.372 427.845C216.835 421.284 215.41 412.384 215.41 403.105Z" fill="#F2F2F2"/>
<path d="M228.938 488.226C228.924 488.226 228.909 488.219 228.896 488.204C228.882 488.19 228.87 488.169 228.86 488.142C228.849 488.115 228.841 488.083 228.836 488.049C228.83 488.014 228.827 487.976 228.827 487.938V367.312C228.827 367.236 228.839 367.163 228.86 367.109C228.881 367.055 228.909 367.024 228.938 367.024C228.968 367.024 228.996 367.055 229.017 367.109C229.038 367.163 229.05 367.236 229.05 367.312V487.938C229.05 487.976 229.047 488.014 229.041 488.049C229.036 488.083 229.027 488.115 229.017 488.142C229.007 488.169 228.994 488.19 228.981 488.204C228.967 488.219 228.953 488.226 228.938 488.226Z" fill="#3F3D56"/>
<path d="M228.938 390.6C228.924 390.6 228.909 390.593 228.896 390.578C228.882 390.564 228.87 390.542 228.86 390.516L223.505 376.668C223.495 376.641 223.486 376.609 223.481 376.574C223.475 376.539 223.472 376.502 223.472 376.464C223.472 376.426 223.475 376.389 223.481 376.354C223.486 376.319 223.495 376.288 223.505 376.261C223.515 376.234 223.528 376.213 223.541 376.198C223.555 376.184 223.569 376.177 223.584 376.177C223.598 376.177 223.613 376.184 223.626 376.198C223.64 376.213 223.652 376.234 223.662 376.261L229.017 390.109C229.033 390.149 229.043 390.2 229.047 390.256C229.052 390.312 229.05 390.37 229.041 390.422C229.033 390.475 229.018 390.52 229 390.552C228.982 390.583 228.96 390.6 228.938 390.6Z" fill="#3F3D56"/>
<path d="M228.938 414.574C228.916 414.574 228.895 414.557 228.877 414.525C228.858 414.494 228.844 414.449 228.836 414.396C228.827 414.344 228.825 414.286 228.829 414.23C228.834 414.174 228.844 414.123 228.86 414.083L237.827 390.891C237.837 390.865 237.85 390.843 237.863 390.829C237.877 390.814 237.891 390.807 237.906 390.807C237.92 390.807 237.935 390.814 237.948 390.829C237.962 390.843 237.974 390.865 237.984 390.891C237.995 390.918 238.003 390.95 238.008 390.985C238.014 391.02 238.017 391.057 238.017 391.095C238.017 391.132 238.014 391.17 238.008 391.205C238.003 391.24 237.995 391.271 237.984 391.298L229.017 414.489C229.007 414.516 228.994 414.537 228.981 414.552C228.967 414.566 228.953 414.574 228.938 414.574Z" fill="#3F3D56"/>
<path d="M291.266 304.358C291.266 285.035 297.323 239.182 304.794 239.182C312.266 239.182 318.323 285.035 318.323 304.358C318.321 313.634 316.895 322.528 314.358 329.085C311.821 335.641 308.381 339.325 304.794 339.325C301.208 339.325 297.768 335.641 295.231 329.085C292.694 322.528 291.268 313.634 291.266 304.358Z" fill="#00BFA6"/>
<path d="M304.794 389.48C304.78 389.48 304.765 389.472 304.752 389.458C304.738 389.443 304.726 389.422 304.716 389.395C304.705 389.369 304.697 389.337 304.692 389.302C304.686 389.267 304.683 389.23 304.683 389.192V268.566C304.683 268.489 304.695 268.416 304.716 268.362C304.737 268.308 304.765 268.278 304.794 268.278C304.824 268.278 304.852 268.308 304.873 268.362C304.894 268.416 304.906 268.489 304.906 268.566V389.192C304.906 389.23 304.903 389.267 304.897 389.302C304.892 389.337 304.883 389.369 304.873 389.395C304.863 389.422 304.851 389.443 304.837 389.458C304.824 389.472 304.809 389.48 304.794 389.48Z" fill="#3F3D56"/>
<path d="M304.795 291.853C304.78 291.853 304.765 291.846 304.752 291.832C304.738 291.817 304.726 291.796 304.716 291.769L299.361 277.921C299.34 277.867 299.329 277.794 299.329 277.718C299.329 277.641 299.34 277.568 299.361 277.514C299.382 277.46 299.41 277.43 299.44 277.43C299.469 277.43 299.498 277.46 299.519 277.514L304.873 291.362C304.889 291.403 304.899 291.454 304.904 291.51C304.908 291.565 304.906 291.623 304.897 291.676C304.889 291.728 304.875 291.773 304.856 291.805C304.838 291.837 304.817 291.853 304.795 291.853Z" fill="#3F3D56"/>
<path d="M304.794 315.827C304.772 315.827 304.751 315.81 304.733 315.779C304.714 315.747 304.7 315.702 304.692 315.65C304.683 315.597 304.681 315.539 304.685 315.483C304.69 315.428 304.7 315.376 304.716 315.336L313.683 292.145C313.704 292.091 313.732 292.062 313.762 292.062C313.791 292.062 313.819 292.092 313.84 292.146C313.861 292.2 313.872 292.273 313.873 292.349C313.873 292.425 313.861 292.498 313.84 292.552L304.873 315.743C304.863 315.77 304.851 315.791 304.837 315.805C304.824 315.82 304.809 315.827 304.794 315.827Z" fill="#3F3D56"/>
<path d="M125.169 314.233C125.169 294.91 131.226 249.057 138.698 249.057C146.17 249.057 152.227 294.91 152.227 314.233C152.227 323.512 150.801 332.412 148.264 338.973C145.727 345.535 142.286 349.221 138.698 349.221C135.11 349.221 131.669 345.535 129.132 338.973C126.594 332.412 125.169 323.512 125.169 314.233Z" fill="#00BFA6"/>
<path d="M138.698 399.354C138.683 399.354 138.669 399.347 138.655 399.332C138.642 399.318 138.629 399.297 138.619 399.27C138.609 399.243 138.601 399.212 138.595 399.177C138.589 399.142 138.587 399.104 138.587 399.067V278.44C138.587 278.364 138.598 278.291 138.619 278.237C138.64 278.183 138.668 278.153 138.698 278.153C138.727 278.153 138.756 278.183 138.776 278.237C138.797 278.291 138.809 278.364 138.809 278.44V399.067C138.809 399.104 138.806 399.142 138.801 399.177C138.795 399.212 138.787 399.243 138.776 399.27C138.766 399.297 138.754 399.318 138.74 399.332C138.727 399.347 138.712 399.354 138.698 399.354Z" fill="#3F3D56"/>
<path d="M138.698 301.728C138.683 301.728 138.669 301.721 138.655 301.706C138.642 301.692 138.629 301.671 138.619 301.644L133.265 287.796C133.254 287.769 133.246 287.737 133.24 287.702C133.235 287.668 133.232 287.63 133.232 287.592C133.232 287.555 133.235 287.517 133.24 287.482C133.246 287.447 133.254 287.416 133.265 287.389C133.275 287.362 133.287 287.341 133.301 287.327C133.314 287.312 133.329 287.305 133.343 287.305C133.358 287.305 133.372 287.312 133.386 287.327C133.399 287.341 133.412 287.362 133.422 287.389L138.777 301.237C138.792 301.277 138.803 301.329 138.807 301.384C138.811 301.44 138.809 301.498 138.801 301.551C138.792 301.603 138.778 301.648 138.76 301.68C138.741 301.711 138.72 301.728 138.698 301.728Z" fill="#3F3D56"/>
<path d="M138.698 325.702C138.676 325.702 138.654 325.685 138.636 325.653C138.618 325.622 138.603 325.577 138.595 325.524C138.587 325.472 138.584 325.414 138.589 325.358C138.593 325.302 138.604 325.251 138.619 325.211L147.586 302.019C147.607 301.966 147.636 301.936 147.665 301.936C147.695 301.936 147.723 301.966 147.744 302.02C147.764 302.074 147.776 302.147 147.776 302.223C147.776 302.299 147.765 302.372 147.744 302.426L138.776 325.618C138.766 325.644 138.754 325.666 138.74 325.68C138.727 325.694 138.712 325.702 138.698 325.702Z" fill="#3F3D56"/>
<path d="M249.986 217.836C242.303 217.836 234.791 211.943 228.402 200.903C222.013 189.862 217.034 174.17 214.093 155.811C211.153 137.452 210.383 117.25 211.883 97.7596C213.382 78.2695 217.082 60.3667 222.515 46.3151C227.948 32.2635 234.871 22.6942 242.407 18.8174C249.943 14.9406 257.755 16.9303 264.854 24.535C271.953 32.1397 278.021 45.0177 282.29 61.5406C286.558 78.0636 288.837 97.4892 288.837 117.361C288.825 143.999 284.728 169.538 277.445 188.374C270.162 207.21 260.287 217.805 249.986 217.836ZM249.986 18.2355C242.406 18.2355 234.995 24.0491 228.692 34.9412C222.389 45.8333 217.476 61.3146 214.575 79.4274C211.674 97.5403 210.915 117.471 212.394 136.7C213.873 155.928 217.523 173.591 222.884 187.454C228.244 201.317 235.074 210.757 242.509 214.582C249.944 218.407 257.651 216.444 264.654 208.941C271.658 201.439 277.644 188.734 281.856 172.432C286.068 156.131 288.316 136.966 288.316 117.361C288.304 91.0805 284.262 65.8848 277.076 47.3015C269.891 28.7183 260.148 18.2652 249.986 18.2355Z" fill="#CCCCCC"/>
<path d="M249.987 109.944C249.917 109.944 249.851 109.873 249.802 109.746C249.753 109.62 249.726 109.448 249.726 109.269V17.5612C249.726 17.3823 249.753 17.2108 249.802 17.0843C249.851 16.9579 249.917 16.8868 249.987 16.8868C250.056 16.8868 250.122 16.9579 250.171 17.0843C250.22 17.2108 250.247 17.3823 250.247 17.5612V109.269C250.247 109.448 250.22 109.62 250.171 109.746C250.122 109.873 250.056 109.944 249.987 109.944Z" fill="#CCCCCC"/>
<path d="M288.576 118.036H253.115C253.046 118.036 252.98 117.964 252.931 117.838C252.882 117.712 252.855 117.54 252.855 117.361C252.855 117.182 252.882 117.011 252.931 116.884C252.98 116.758 253.046 116.687 253.115 116.687H288.576C288.645 116.687 288.712 116.758 288.761 116.884C288.809 117.011 288.837 117.182 288.837 117.361C288.837 117.54 288.809 117.712 288.761 117.838C288.712 117.964 288.645 118.036 288.576 118.036Z" fill="#CCCCCC"/>
<path d="M246.858 118.036H211.414C211.344 118.036 211.278 117.964 211.229 117.838C211.18 117.712 211.153 117.54 211.153 117.361C211.153 117.182 211.18 117.011 211.229 116.884C211.278 116.758 211.344 116.687 211.414 116.687H246.858C246.927 116.687 246.993 116.758 247.042 116.884C247.091 117.011 247.118 117.182 247.118 117.361C247.118 117.54 247.091 117.712 247.042 117.838C246.993 117.964 246.927 118.036 246.858 118.036Z" fill="#CCCCCC"/>
<path d="M249.987 217.836C249.917 217.836 249.851 217.764 249.802 217.638C249.753 217.512 249.726 217.34 249.726 217.161V125.453C249.726 125.274 249.753 125.103 249.802 124.976C249.851 124.85 249.917 124.779 249.987 124.779C250.056 124.779 250.122 124.85 250.171 124.976C250.22 125.103 250.247 125.274 250.247 125.453V217.161C250.247 217.34 250.22 217.512 250.171 217.638C250.122 217.764 250.056 217.836 249.987 217.836Z" fill="#CCCCCC"/>
<path d="M252.285 112.556C252.234 112.556 252.183 112.516 252.141 112.442C252.098 112.368 252.064 112.263 252.045 112.14C252.025 112.016 252.02 111.881 252.03 111.75C252.04 111.619 252.065 111.499 252.101 111.405L277.065 46.8426C277.114 46.7169 277.181 46.6466 277.25 46.6469C277.319 46.6473 277.385 46.7183 277.433 46.8444C277.482 46.9705 277.51 47.1415 277.51 47.3199C277.51 47.4983 277.483 47.6695 277.434 47.7961L252.47 112.358C252.446 112.421 252.417 112.471 252.385 112.505C252.354 112.539 252.32 112.556 252.285 112.556Z" fill="#CCCCCC"/>
<path d="M247.688 112.556C247.653 112.556 247.619 112.539 247.588 112.505C247.556 112.471 247.527 112.421 247.503 112.358L222.539 47.7961C222.49 47.6695 222.463 47.4983 222.463 47.3199C222.463 47.1415 222.491 46.9705 222.54 46.8444C222.588 46.7183 222.654 46.6473 222.723 46.6469C222.792 46.6466 222.859 46.7169 222.908 46.8426L247.872 111.405C247.908 111.499 247.933 111.619 247.943 111.75C247.953 111.881 247.948 112.016 247.928 112.14C247.909 112.263 247.875 112.368 247.832 112.442C247.79 112.516 247.739 112.556 247.688 112.556Z" fill="#CCCCCC"/>
<path d="M277.25 188.077C277.215 188.077 277.182 188.06 277.15 188.026C277.118 187.992 277.09 187.943 277.065 187.88L252.101 123.317C252.052 123.191 252.025 123.02 252.025 122.841C252.026 122.663 252.053 122.492 252.102 122.366C252.151 122.24 252.217 122.169 252.286 122.168C252.355 122.168 252.421 122.238 252.47 122.364L277.434 186.926C277.471 187.02 277.495 187.141 277.505 187.271C277.515 187.402 277.51 187.538 277.491 187.661C277.471 187.784 277.437 187.889 277.395 187.964C277.352 188.038 277.301 188.077 277.25 188.077Z" fill="#CCCCCC"/>
<path d="M222.723 188.077C222.672 188.077 222.621 188.038 222.579 187.964C222.536 187.89 222.502 187.784 222.482 187.661C222.463 187.538 222.458 187.402 222.468 187.272C222.478 187.141 222.503 187.021 222.539 186.926L247.503 122.364C247.552 122.238 247.619 122.167 247.688 122.167C247.757 122.167 247.823 122.238 247.872 122.364C247.921 122.49 247.948 122.662 247.948 122.841C247.948 123.02 247.921 123.191 247.872 123.318L222.908 187.88C222.884 187.943 222.855 187.992 222.823 188.026C222.792 188.06 222.758 188.077 222.723 188.077Z" fill="#CCCCCC"/>
<path d="M249.986 186.479C244.701 186.479 239.533 182.426 235.138 174.831C230.743 167.236 227.318 156.441 225.295 143.812C223.272 131.182 222.743 117.284 223.774 103.877C224.805 90.4692 227.351 78.1535 231.088 68.4872C234.826 58.8208 239.588 52.2379 244.773 49.571C249.957 46.904 255.331 48.2728 260.214 53.5042C265.098 58.7356 269.272 67.5947 272.208 78.9611C275.145 90.3275 276.713 103.691 276.713 117.361C276.705 135.686 273.886 153.255 268.876 166.212C263.865 179.17 257.072 186.459 249.986 186.479ZM249.986 49.5916C244.804 49.5916 239.737 53.5662 235.428 61.0128C231.119 68.4595 227.76 79.0436 225.777 91.4269C223.793 103.81 223.274 117.436 224.285 130.582C225.297 143.728 227.792 155.804 231.457 165.282C235.122 174.759 239.791 181.214 244.874 183.829C249.957 186.444 255.226 185.102 260.015 179.972C264.803 174.843 268.895 166.157 271.775 155.012C274.654 143.867 276.191 130.765 276.191 117.361C276.183 99.3938 273.42 82.1681 268.507 69.4633C263.595 56.7584 256.934 49.6119 249.986 49.5916Z" fill="#CCCCCC"/>
<path d="M249.986 125.453C251.714 125.453 253.115 121.83 253.115 117.361C253.115 112.892 251.714 109.269 249.986 109.269C248.258 109.269 246.858 112.892 246.858 117.361C246.858 121.83 248.258 125.453 249.986 125.453Z" fill="#3F3D56"/>
<path d="M237.873 254.044L235.124 254.249L248.541 114.195L251.035 116.163L237.873 254.044Z" fill="#3F3D56"/>
<path d="M262.1 254.044L264.849 254.249L251.432 114.195L248.938 116.163L262.1 254.044Z" fill="#3F3D56"/>
<path d="M254.158 37.7909H245.554V49.9287H254.158V37.7909Z" fill="#CCCCCC"/>
<path d="M249.465 40.4882H246.075V49.9288H249.465V40.4882Z" fill="white"/>
<path d="M253.637 40.4882H250.247V49.9288H253.637V40.4882Z" fill="white"/>
<path d="M249.856 63.0781C248.543 63.0742 247.284 61.7231 246.355 59.3212C245.426 56.9193 244.904 53.6627 244.902 50.2659V49.9288C244.902 49.1243 245.026 48.353 245.246 47.7841C245.466 47.2152 245.764 46.8952 246.075 46.8943H253.637C253.948 46.8952 254.246 47.2152 254.466 47.7841C254.686 48.353 254.81 49.1243 254.81 49.9288V50.2659C254.809 53.6627 254.286 56.9193 253.358 59.3212C252.429 61.7231 251.17 63.0742 249.856 63.0781Z" fill="#CCCCCC"/>
<path d="M253.836 40.8253H245.876C245.765 40.8254 245.656 40.7519 245.559 40.612C245.462 40.4721 245.38 40.2703 245.322 40.0258C245.263 39.7814 245.23 39.5023 245.225 39.2153C245.22 38.9282 245.244 38.6425 245.293 38.3855L246.858 30.2936C246.911 30.0129 246.995 29.7768 247.098 29.6122C247.201 29.4475 247.32 29.3607 247.441 29.3618H252.272C252.393 29.3607 252.512 29.4475 252.615 29.6122C252.718 29.7768 252.801 30.0129 252.855 30.2936L254.419 38.3855C254.469 38.6425 254.492 38.9282 254.487 39.2153C254.482 39.5023 254.449 39.7814 254.391 40.0258C254.332 40.2703 254.251 40.4721 254.154 40.612C254.057 40.7519 253.947 40.8254 253.836 40.8253Z" fill="#00BFA6"/>
<path d="M277.364 64.7639H268.76V76.9017H277.364V64.7639Z" fill="#CCCCCC"/>
<path d="M272.671 67.4612H269.281V76.9017H272.671V67.4612Z" fill="white"/>
<path d="M276.843 67.4612H273.453V76.9017H276.843V67.4612Z" fill="white"/>
<path d="M273.062 90.051C271.749 90.0471 270.489 88.6961 269.561 86.2942C268.632 83.8922 268.11 80.6356 268.108 77.2388V76.9017C268.108 76.0972 268.232 75.3259 268.452 74.757C268.672 74.1881 268.97 73.8682 269.281 73.8672H276.843C277.154 73.8682 277.452 74.1881 277.672 74.757C277.892 75.3259 278.016 76.0972 278.016 76.9017V77.2389C278.015 80.6357 277.492 83.8922 276.564 86.2942C275.635 88.6961 274.376 90.0471 273.062 90.051Z" fill="#CCCCCC"/>
<path d="M270.647 57.0092C270.574 57.0085 270.503 57.0606 270.441 57.1594C270.379 57.2582 270.329 57.3999 270.297 57.5683L268.732 65.6602C268.703 65.8144 268.689 65.9857 268.692 66.158C268.695 66.3302 268.715 66.4977 268.75 66.6443C268.785 66.791 268.834 66.9121 268.892 66.996C268.95 67.08 269.016 67.1241 269.082 67.124H277.042C277.109 67.1241 277.174 67.08 277.233 66.996C277.291 66.9121 277.34 66.791 277.375 66.6443C277.41 66.4977 277.43 66.3302 277.433 66.158C277.436 65.9857 277.422 65.8144 277.392 65.6602L275.828 57.5683C275.795 57.3999 275.745 57.2582 275.684 57.1594C275.622 57.0606 275.55 57.0085 275.478 57.0092H270.647Z" fill="#00BFA6"/>
<path d="M286.49 125.453H277.886V137.591H286.49V125.453Z" fill="#CCCCCC"/>
<path d="M281.797 128.15H278.407V137.591H281.797V128.15Z" fill="white"/>
<path d="M285.969 128.15H282.579V137.591H285.969V128.15Z" fill="white"/>
<path d="M282.188 150.74C280.875 150.736 279.615 149.385 278.687 146.983C277.758 144.581 277.235 141.325 277.234 137.928V137.591C277.234 136.786 277.358 136.015 277.578 135.446C277.798 134.877 278.096 134.557 278.407 134.556H285.969C286.28 134.557 286.578 134.877 286.798 135.446C287.018 136.015 287.142 136.786 287.142 137.591V137.928C287.141 141.325 286.618 144.581 285.69 146.983C284.761 149.385 283.502 150.736 282.188 150.74Z" fill="#CCCCCC"/>
<path d="M286.168 128.488H278.208C278.097 128.488 277.988 128.414 277.891 128.274C277.794 128.134 277.712 127.932 277.654 127.688C277.595 127.444 277.562 127.165 277.557 126.877C277.552 126.59 277.575 126.305 277.625 126.048L279.19 117.956C279.243 117.675 279.327 117.439 279.43 117.274C279.533 117.11 279.651 117.023 279.773 117.024H284.604C284.725 117.023 284.844 117.11 284.947 117.274C285.05 117.439 285.133 117.675 285.187 117.956L286.751 126.048C286.801 126.305 286.824 126.59 286.819 126.877C286.814 127.165 286.781 127.444 286.723 127.688C286.664 127.932 286.583 128.134 286.485 128.274C286.388 128.414 286.279 128.488 286.168 128.488Z" fill="#00BFA6"/>
<path d="M276.843 182.096H268.239V194.234H276.843V182.096Z" fill="#CCCCCC"/>
<path d="M272.15 184.794H268.76V194.234H272.15V184.794Z" fill="white"/>
<path d="M276.321 184.794H272.932V194.234H276.321V184.794Z" fill="white"/>
<path d="M272.541 207.384C271.227 207.38 269.968 206.029 269.039 203.627C268.11 201.225 267.588 197.968 267.587 194.571V194.234C267.587 193.43 267.711 192.658 267.931 192.089C268.151 191.521 268.449 191.201 268.76 191.2H276.321C276.632 191.201 276.931 191.521 277.151 192.089C277.371 192.658 277.494 193.43 277.495 194.234V194.571C277.493 197.968 276.971 201.225 276.042 203.627C275.113 206.029 273.854 207.38 272.541 207.384Z" fill="#CCCCCC"/>
<path d="M276.521 185.131H268.561C268.45 185.131 268.34 185.057 268.243 184.917C268.146 184.778 268.065 184.576 268.006 184.331C267.948 184.087 267.914 183.808 267.909 183.521C267.904 183.234 267.928 182.948 267.978 182.691L269.542 174.599C269.596 174.318 269.679 174.082 269.782 173.918C269.885 173.753 270.004 173.666 270.125 173.667H274.956C275.077 173.666 275.196 173.753 275.299 173.918C275.402 174.082 275.485 174.318 275.539 174.599L277.104 182.691C277.153 182.948 277.177 183.234 277.172 183.521C277.167 183.808 277.133 184.087 277.075 184.331C277.017 184.576 276.935 184.778 276.838 184.917C276.741 185.057 276.632 185.131 276.521 185.131Z" fill="#00BFA6"/>
<path d="M222.609 76.9017H231.213V64.7639H222.609V76.9017Z" fill="#CCCCCC"/>
<path d="M227.302 76.9017H230.692V67.4612H227.302V76.9017Z" fill="white"/>
<path d="M223.13 76.9017H226.52V67.4612H223.13V76.9017Z" fill="white"/>
<path d="M226.911 90.051C225.597 90.0472 224.338 88.6961 223.409 86.2942C222.481 83.8922 221.958 80.6356 221.957 77.2388V76.9017C221.957 76.0972 222.081 75.3259 222.301 74.757C222.521 74.1881 222.819 73.8682 223.13 73.8672H230.692C231.003 73.8682 231.301 74.1881 231.521 74.757C231.741 75.3259 231.865 76.0972 231.865 76.9017V77.2389C231.863 80.6357 231.341 83.8922 230.412 86.2942C229.484 88.6961 228.224 90.0471 226.911 90.051Z" fill="#CCCCCC"/>
<path d="M230.891 67.7983H222.931C222.82 67.7983 222.711 67.7249 222.613 67.585C222.516 67.445 222.435 67.2432 222.376 66.9988C222.318 66.7543 222.285 66.4753 222.28 66.1882C222.275 65.9011 222.298 65.6155 222.348 65.3585L223.912 57.2666C223.966 56.9859 224.049 56.7498 224.152 56.5851C224.255 56.4204 224.374 56.3337 224.495 56.3348H229.326C229.448 56.3337 229.566 56.4204 229.669 56.5851C229.772 56.7498 229.856 56.9859 229.909 57.2666L231.474 65.3585C231.524 65.6155 231.547 65.9011 231.542 66.1882C231.537 66.4753 231.504 66.7543 231.445 66.9988C231.387 67.2432 231.305 67.445 231.208 67.585C231.111 67.7249 231.002 67.7983 230.891 67.7983Z" fill="#00BFA6"/>
<path d="M213.483 137.591H222.087V125.453H213.483V137.591Z" fill="#CCCCCC"/>
<path d="M218.176 137.591H221.566V128.15H218.176V137.591Z" fill="white"/>
<path d="M214.004 137.591H217.394V128.15H214.004V137.591Z" fill="white"/>
<path d="M217.785 150.74C216.471 150.736 215.212 149.385 214.283 146.983C213.355 144.581 212.832 141.325 212.831 137.928V137.591C212.831 136.786 212.955 136.015 213.175 135.446C213.395 134.877 213.693 134.557 214.004 134.556H221.566C221.877 134.557 222.175 134.877 222.395 135.446C222.615 136.015 222.739 136.786 222.739 137.591V137.928C222.737 141.325 222.215 144.581 221.286 146.983C220.358 149.385 219.098 150.736 217.785 150.74Z" fill="#CCCCCC"/>
<path d="M221.765 128.488H213.805C213.694 128.488 213.585 128.414 213.488 128.274C213.39 128.134 213.309 127.932 213.25 127.688C213.192 127.444 213.159 127.165 213.154 126.877C213.149 126.59 213.172 126.305 213.222 126.048L214.786 117.956C214.84 117.675 214.923 117.439 215.026 117.274C215.129 117.11 215.248 117.023 215.369 117.024H220.2C220.321 117.023 220.44 117.11 220.543 117.274C220.646 117.439 220.73 117.675 220.783 117.956L222.348 126.048C222.398 126.305 222.421 126.59 222.416 126.877C222.411 127.165 222.378 127.444 222.319 127.688C222.261 127.932 222.179 128.134 222.082 128.274C221.985 128.414 221.876 128.488 221.765 128.488Z" fill="#00BFA6"/>
<path d="M223.13 194.234H231.735V182.096H223.13V194.234Z" fill="#CCCCCC"/>
<path d="M227.824 194.234H231.213V184.794H227.824V194.234Z" fill="white"/>
<path d="M223.652 194.234H227.041V184.794H223.652V194.234Z" fill="white"/>
<path d="M227.432 207.384C226.119 207.38 224.86 206.029 223.931 203.627C223.002 201.225 222.48 197.968 222.478 194.571V194.234C222.479 193.43 222.602 192.658 222.822 192.089C223.042 191.521 223.341 191.201 223.652 191.2H231.213C231.524 191.201 231.822 191.521 232.042 192.089C232.262 192.658 232.386 193.43 232.386 194.234V194.571C232.385 197.968 231.863 201.225 230.934 203.627C230.005 206.029 228.746 207.38 227.432 207.384Z" fill="#CCCCCC"/>
<path d="M231.412 185.131H223.452C223.341 185.131 223.232 185.057 223.135 184.917C223.038 184.778 222.956 184.576 222.898 184.331C222.839 184.087 222.806 183.808 222.801 183.521C222.796 183.234 222.82 182.948 222.869 182.691L224.434 174.599C224.488 174.318 224.571 174.082 224.674 173.918C224.777 173.753 224.896 173.666 225.017 173.667H229.848C229.969 173.666 230.088 173.753 230.191 173.918C230.294 174.082 230.377 174.318 230.431 174.599L231.995 182.691C232.045 182.948 232.068 183.234 232.063 183.521C232.059 183.808 232.025 184.087 231.967 184.331C231.908 184.576 231.827 184.778 231.73 184.917C231.633 185.057 231.523 185.131 231.412 185.131Z" fill="#00BFA6"/>
<path d="M254.158 207.721H245.554V219.859H254.158V207.721Z" fill="#CCCCCC"/>
<path d="M249.465 210.418H246.075V219.859H249.465V210.418Z" fill="white"/>
<path d="M253.637 210.418H250.247V219.859H253.637V210.418Z" fill="white"/>
<path d="M246.075 217.498C245.834 217.499 245.602 217.748 245.43 218.19C245.259 218.633 245.163 219.233 245.163 219.859V220.196C245.162 221.791 245.283 223.37 245.519 224.845C245.754 226.319 246.1 227.658 246.536 228.787C246.972 229.915 247.489 230.81 248.059 231.421C248.629 232.032 249.239 232.346 249.856 232.346C250.473 232.346 251.084 232.032 251.653 231.421C252.223 230.81 252.741 229.915 253.177 228.787C253.613 227.658 253.958 226.319 254.194 224.845C254.429 223.37 254.55 221.791 254.55 220.196V219.859C254.549 219.233 254.453 218.633 254.282 218.19C254.111 217.748 253.879 217.499 253.637 217.498H246.075Z" fill="#CCCCCC"/>
<path d="M247.441 199.966C247.368 199.965 247.297 200.017 247.235 200.116C247.173 200.215 247.123 200.357 247.091 200.525L245.526 208.617C245.497 208.771 245.483 208.942 245.486 209.115C245.488 209.287 245.508 209.454 245.543 209.601C245.579 209.748 245.628 209.869 245.686 209.953C245.744 210.037 245.81 210.081 245.876 210.081H253.836C253.903 210.081 253.968 210.037 254.027 209.953C254.085 209.869 254.134 209.748 254.169 209.601C254.204 209.454 254.224 209.287 254.227 209.115C254.23 208.942 254.216 208.771 254.186 208.617L252.621 200.525C252.589 200.357 252.539 200.215 252.477 200.116C252.416 200.017 252.344 199.965 252.272 199.966H247.441Z" fill="#00BFA6"/>
<path d="M135.065 376.004C135.143 376.004 135.218 375.923 135.273 375.781C135.328 375.638 135.359 375.445 135.359 375.243C135.359 375.041 135.328 374.847 135.273 374.705C135.218 374.562 135.143 374.482 135.065 374.482H132.27V371.438H135.065C135.143 371.438 135.218 371.358 135.273 371.215C135.328 371.073 135.359 370.879 135.359 370.677C135.359 370.476 135.328 370.282 135.273 370.139C135.218 369.997 135.143 369.917 135.065 369.917H111.234C111.156 369.917 111.081 369.997 111.026 370.139C110.971 370.282 110.94 370.476 110.94 370.677C110.94 370.879 110.971 371.073 111.026 371.215C111.081 371.358 111.156 371.438 111.234 371.438H114.029V374.482H111.234C111.156 374.482 111.081 374.562 111.026 374.705C110.971 374.847 110.94 375.041 110.94 375.243C110.94 375.445 110.971 375.638 111.026 375.781C111.081 375.923 111.156 376.004 111.234 376.004H114.029V379.047H111.234C111.156 379.047 111.081 379.127 111.026 379.27C110.971 379.413 110.94 379.606 110.94 379.808C110.94 380.01 110.971 380.203 111.026 380.346C111.081 380.489 111.156 380.569 111.234 380.569H114.029V383.612H111.528C111.372 383.612 111.222 383.773 111.112 384.058C111.002 384.343 110.94 384.731 110.94 385.134C110.94 385.538 111.002 385.925 111.112 386.21C111.222 386.496 111.372 386.656 111.528 386.656H113.909C113.891 386.778 113.882 386.906 113.882 387.036V397.689C113.882 397.991 113.928 398.282 114.011 398.496C114.094 398.71 114.206 398.83 114.323 398.83C114.44 398.83 114.552 398.71 114.635 398.496C114.718 398.282 114.764 397.991 114.764 397.689V387.036C114.764 386.906 114.755 386.778 114.737 386.656H131.561C131.544 386.778 131.535 386.906 131.534 387.036V397.689C131.534 397.991 131.581 398.282 131.663 398.496C131.746 398.71 131.858 398.83 131.976 398.83C132.093 398.83 132.205 398.71 132.288 398.496C132.37 398.282 132.417 397.991 132.417 397.689V387.036C132.416 386.906 132.407 386.778 132.39 386.656H134.771C134.927 386.656 135.076 386.496 135.187 386.21C135.297 385.925 135.359 385.538 135.359 385.134C135.359 384.731 135.297 384.343 135.187 384.058C135.076 383.773 134.927 383.612 134.771 383.612H132.27V380.569H135.065C135.143 380.569 135.218 380.489 135.273 380.346C135.328 380.203 135.359 380.01 135.359 379.808C135.359 379.606 135.328 379.413 135.273 379.27C135.218 379.127 135.143 379.047 135.065 379.047H132.27V376.004H135.065ZM114.617 371.438H131.681V374.482H114.617V371.438ZM131.681 383.612H114.617V380.569H131.681V383.612ZM131.681 379.047H114.617V376.004H131.681V379.047Z" fill="#3F3D56"/>
<path d="M227.002 467.07C227.08 467.07 227.155 466.99 227.21 466.847C227.265 466.704 227.296 466.511 227.296 466.309C227.296 466.107 227.265 465.914 227.21 465.771C227.155 465.628 227.08 465.548 227.002 465.548H224.207V462.505H227.002C227.08 462.505 227.155 462.424 227.21 462.282C227.265 462.139 227.296 461.945 227.296 461.744C227.296 461.542 227.265 461.348 227.21 461.206C227.155 461.063 227.08 460.983 227.002 460.983H203.171C203.093 460.983 203.018 461.063 202.963 461.206C202.908 461.348 202.877 461.542 202.877 461.744C202.877 461.945 202.908 462.139 202.963 462.282C203.018 462.424 203.093 462.505 203.171 462.505H205.966V465.548H203.171C203.093 465.548 203.018 465.628 202.963 465.771C202.908 465.914 202.877 466.107 202.877 466.309C202.877 466.511 202.908 466.704 202.963 466.847C203.018 466.99 203.093 467.07 203.171 467.07H205.966V470.113H203.171C203.093 470.113 203.018 470.194 202.963 470.336C202.908 470.479 202.877 470.672 202.877 470.874C202.877 471.076 202.908 471.27 202.963 471.412C203.018 471.555 203.093 471.635 203.171 471.635H205.966V474.679H203.465C203.309 474.679 203.16 474.839 203.049 475.124C202.939 475.41 202.877 475.797 202.877 476.2C202.877 476.604 202.939 476.991 203.049 477.276C203.16 477.562 203.309 477.722 203.465 477.722H205.846C205.829 477.844 205.82 477.973 205.819 478.103V488.755C205.819 488.905 205.83 489.054 205.852 489.193C205.874 489.332 205.907 489.458 205.948 489.564C205.989 489.671 206.038 489.755 206.091 489.813C206.145 489.87 206.202 489.9 206.26 489.9C206.319 489.9 206.376 489.87 206.43 489.813C206.483 489.755 206.532 489.671 206.573 489.564C206.614 489.458 206.647 489.332 206.669 489.193C206.691 489.054 206.702 488.905 206.702 488.755V478.103C206.701 477.973 206.692 477.844 206.675 477.722H223.499C223.481 477.844 223.472 477.973 223.472 478.103V488.755C223.472 489.058 223.518 489.348 223.601 489.562C223.684 489.776 223.796 489.896 223.913 489.896C224.03 489.896 224.142 489.776 224.225 489.562C224.308 489.348 224.354 489.058 224.354 488.755V478.103C224.354 477.973 224.345 477.844 224.327 477.722H226.708C226.864 477.722 227.014 477.562 227.124 477.276C227.234 476.991 227.296 476.604 227.296 476.2C227.296 475.797 227.234 475.41 227.124 475.124C227.014 474.839 226.864 474.679 226.708 474.679H224.207V471.635H227.002C227.08 471.635 227.155 471.555 227.21 471.412C227.265 471.269 227.296 471.076 227.296 470.874C227.296 470.672 227.265 470.479 227.21 470.336C227.155 470.193 227.08 470.113 227.002 470.113H224.207V467.07L227.002 467.07ZM206.555 462.505H223.619V465.548H206.555V462.505ZM223.619 474.679H206.555V471.635H223.619V474.679ZM223.619 470.113H206.555V467.07H223.619V470.113Z" fill="#3F3D56"/>
<path d="M301.161 367.226C301.239 367.226 301.314 367.146 301.369 367.003C301.425 366.861 301.456 366.667 301.456 366.465C301.456 366.264 301.425 366.07 301.369 365.927C301.314 365.785 301.239 365.704 301.161 365.704H298.366V362.661H301.161C301.239 362.661 301.314 362.581 301.369 362.438C301.425 362.295 301.456 362.102 301.456 361.9C301.456 361.698 301.425 361.505 301.369 361.362C301.314 361.219 301.239 361.139 301.161 361.139H277.33C277.252 361.139 277.178 361.219 277.122 361.362C277.067 361.505 277.036 361.698 277.036 361.9C277.036 362.102 277.067 362.295 277.122 362.438C277.178 362.581 277.252 362.661 277.33 362.661H280.125V365.704H277.33C277.252 365.704 277.178 365.785 277.122 365.927C277.067 366.07 277.036 366.264 277.036 366.465C277.036 366.667 277.067 366.861 277.122 367.003C277.178 367.146 277.252 367.226 277.33 367.226H280.125V370.27H277.33C277.252 370.27 277.178 370.35 277.122 370.493C277.067 370.635 277.036 370.829 277.036 371.031C277.036 371.232 277.067 371.426 277.122 371.569C277.178 371.711 277.252 371.791 277.33 371.791H280.125V374.835H277.625C277.469 374.836 277.32 374.997 277.21 375.282C277.1 375.568 277.038 375.954 277.038 376.357C277.038 376.76 277.1 377.146 277.21 377.431C277.32 377.716 277.469 377.877 277.625 377.878H280.005C279.988 378 279.979 378.129 279.978 378.259V388.911C279.978 389.214 280.025 389.504 280.108 389.718C280.19 389.932 280.303 390.053 280.42 390.053C280.537 390.053 280.649 389.932 280.732 389.718C280.814 389.504 280.861 389.214 280.861 388.911V378.259C280.86 378.129 280.851 378 280.834 377.878H297.658C297.641 378 297.631 378.129 297.631 378.259V388.911C297.631 389.214 297.677 389.504 297.76 389.718C297.843 389.932 297.955 390.053 298.072 390.053C298.189 390.053 298.301 389.932 298.384 389.718C298.467 389.504 298.513 389.214 298.513 388.911V378.259C298.513 378.129 298.504 378 298.486 377.878H300.867C300.945 377.879 301.021 377.84 301.093 377.764C301.164 377.688 301.23 377.576 301.284 377.434C301.339 377.293 301.383 377.125 301.412 376.94C301.442 376.755 301.457 376.557 301.457 376.357C301.457 376.157 301.442 375.958 301.412 375.773C301.383 375.588 301.339 375.42 301.284 375.279C301.23 375.138 301.164 375.026 301.093 374.949C301.021 374.873 300.945 374.834 300.867 374.835H298.366V371.791H301.161C301.239 371.791 301.314 371.711 301.369 371.569C301.425 371.426 301.456 371.232 301.456 371.031C301.456 370.829 301.425 370.635 301.369 370.493C301.314 370.35 301.239 370.27 301.161 370.27H298.366V367.226H301.161ZM280.714 362.661H297.778V365.704H280.714V362.661ZM297.778 374.835H280.714V371.791H297.778V374.835ZM297.778 370.27H280.714V367.226H297.778V370.27Z" fill="#3F3D56"/>
<path d="M189.472 558.541C189.472 539.027 183.352 492.723 175.801 492.723C168.251 492.723 162.13 539.027 162.13 558.541C162.133 567.914 163.574 576.901 166.137 583.527C168.701 590.153 172.177 593.875 175.801 593.875C179.426 593.875 182.902 590.153 185.465 583.527C188.029 576.901 189.47 567.914 189.472 558.541Z" fill="#F2F2F2"/>
<path d="M175.801 636.832C175.76 636.832 175.72 636.79 175.691 636.714C175.661 636.638 175.645 636.535 175.645 636.428V553.893C175.645 553.84 175.649 553.787 175.657 553.738C175.664 553.688 175.676 553.643 175.69 553.606C175.705 553.568 175.722 553.538 175.741 553.517C175.76 553.497 175.781 553.486 175.801 553.486C175.822 553.486 175.842 553.497 175.861 553.517C175.88 553.538 175.898 553.568 175.912 553.606C175.927 553.643 175.938 553.688 175.946 553.738C175.954 553.787 175.958 553.84 175.958 553.893V636.428C175.958 636.535 175.941 636.638 175.912 636.714C175.883 636.79 175.843 636.832 175.801 636.832Z" fill="#CCCCCC"/>
<path d="M175.801 569.313C175.779 569.314 175.757 569.301 175.737 569.277C175.716 569.253 175.698 569.218 175.683 569.174L167.821 545.724C167.794 545.643 167.78 545.538 167.784 545.431C167.787 545.325 167.806 545.226 167.837 545.156C167.868 545.086 167.909 545.05 167.95 545.058C167.991 545.065 168.03 545.114 168.057 545.194L175.92 568.644C175.939 568.703 175.952 568.775 175.956 568.851C175.96 568.928 175.956 569.006 175.944 569.077C175.931 569.147 175.911 569.207 175.886 569.249C175.861 569.291 175.831 569.313 175.801 569.313Z" fill="#CCCCCC"/>
<path d="M175.801 582.847C175.77 582.847 175.74 582.823 175.714 582.778C175.689 582.734 175.669 582.671 175.657 582.597C175.645 582.523 175.642 582.442 175.648 582.363C175.654 582.285 175.669 582.213 175.691 582.156L180.158 570.602C180.188 570.526 180.227 570.484 180.269 570.484C180.31 570.484 180.35 570.527 180.379 570.602C180.409 570.678 180.425 570.781 180.425 570.888C180.425 570.995 180.409 571.098 180.379 571.174L175.912 582.728C175.897 582.766 175.88 582.796 175.861 582.816C175.842 582.836 175.822 582.847 175.801 582.847Z" fill="#CCCCCC"/>
<path d="M59.0793 175.624C59.0793 156.11 52.9585 109.806 45.4082 109.806C37.8579 109.806 31.7372 156.11 31.7372 175.624C31.7394 184.997 33.1807 193.984 35.7443 200.61C38.3079 207.236 41.7839 210.958 45.4082 210.958C49.0326 210.958 52.5086 207.236 55.0722 200.61C57.6357 193.984 59.077 184.997 59.0793 175.624Z" fill="#3F3D56"/>
<path d="M45.4083 253.916C45.3668 253.916 45.3271 253.873 45.2977 253.797C45.2684 253.721 45.252 253.618 45.252 253.511V170.976C45.2522 170.869 45.2688 170.767 45.2981 170.692C45.3273 170.616 45.367 170.574 45.4083 170.574C45.4496 170.574 45.4892 170.616 45.5185 170.692C45.5478 170.767 45.5644 170.869 45.5646 170.976V253.511C45.5646 253.564 45.5606 253.617 45.5527 253.666C45.5449 253.715 45.5334 253.759 45.5188 253.797C45.5043 253.835 45.4871 253.864 45.4681 253.885C45.4491 253.905 45.4288 253.916 45.4083 253.916Z" fill="#CCCCCC"/>
<path d="M45.4083 186.397C45.3859 186.397 45.3637 186.384 45.3433 186.36C45.3229 186.336 45.3048 186.301 45.2901 186.257L37.4276 162.807C37.4006 162.726 37.3871 162.621 37.3901 162.514C37.3931 162.407 37.4123 162.308 37.4436 162.238C37.4748 162.168 37.5156 162.133 37.5569 162.14C37.5982 162.147 37.6366 162.197 37.6638 162.278L45.5264 185.727C45.546 185.786 45.5587 185.858 45.563 185.934C45.5672 186.011 45.5629 186.089 45.5504 186.16C45.538 186.23 45.518 186.29 45.4928 186.332C45.4676 186.374 45.4383 186.396 45.4083 186.397Z" fill="#CCCCCC"/>
<path d="M45.4083 199.93C45.3773 199.93 45.3471 199.906 45.3214 199.861C45.2957 199.817 45.2757 199.754 45.2639 199.68C45.252 199.606 45.2489 199.525 45.255 199.446C45.261 199.368 45.2759 199.296 45.2977 199.239L49.7654 187.685C49.7799 187.648 49.7971 187.618 49.8161 187.598C49.835 187.577 49.8554 187.567 49.8759 187.567C49.8964 187.567 49.9167 187.577 49.9357 187.598C49.9547 187.618 49.9719 187.648 49.9864 187.685C50.0009 187.723 50.0125 187.767 50.0203 187.816C50.0282 187.865 50.0322 187.918 50.0322 187.971C50.0322 188.024 50.0282 188.077 50.0203 188.126C50.0125 188.175 50.0009 188.219 49.9864 188.257L45.5188 199.811C45.5043 199.849 45.4871 199.879 45.4681 199.899C45.4491 199.919 45.4288 199.93 45.4083 199.93Z" fill="#CCCCCC"/>
<path d="M30.6012 253.38C30.6012 249.465 31.2025 245.711 32.2728 242.943C33.3432 240.175 34.7948 238.62 36.3085 238.62C37.8222 238.62 39.2739 240.175 40.3442 242.943C41.4145 245.711 42.0158 249.465 42.0158 253.38" fill="#F2F2F2"/>
<path d="M36.3084 253.38C36.2675 253.38 36.2283 253.338 36.1994 253.263C36.1704 253.188 36.1542 253.087 36.1542 252.981V245.202C36.1542 245.096 36.1704 244.994 36.1993 244.92C36.2283 244.845 36.2675 244.803 36.3084 244.803C36.3493 244.803 36.3886 244.845 36.4175 244.92C36.4464 244.994 36.4627 245.096 36.4627 245.202V252.981C36.4627 253.087 36.4464 253.188 36.4175 253.263C36.3886 253.338 36.3493 253.38 36.3084 253.38Z" fill="#CCCCCC"/>
<path d="M36.3084 250.707C36.2716 250.707 36.2359 250.673 36.208 250.61L34.357 246.502C34.3416 246.468 34.329 246.426 34.3199 246.379C34.3107 246.333 34.3052 246.282 34.3037 246.229C34.3021 246.177 34.3046 246.125 34.3109 246.075C34.3172 246.025 34.3272 245.979 34.3404 245.939C34.3536 245.9 34.3697 245.867 34.3878 245.843C34.4059 245.82 34.4256 245.805 34.4458 245.801C34.466 245.797 34.4863 245.804 34.5055 245.82C34.5248 245.836 34.5426 245.862 34.5579 245.896L36.409 250.005C36.4329 250.058 36.4499 250.129 36.4578 250.208C36.4657 250.287 36.4641 250.37 36.4531 250.446C36.4422 250.523 36.4224 250.589 36.3965 250.635C36.3707 250.682 36.3399 250.707 36.3084 250.707Z" fill="#CCCCCC"/>
<path d="M48.1859 253.38C48.1859 249.465 48.7872 245.711 49.8575 242.943C50.9279 240.175 52.3796 238.62 53.8932 238.62C55.4069 238.62 56.8586 240.175 57.9289 242.943C58.9992 245.711 59.6005 249.465 59.6005 253.38" fill="#F2F2F2"/>
<path d="M53.8931 253.38C53.8522 253.38 53.813 253.338 53.7841 253.263C53.7551 253.188 53.7389 253.087 53.7389 252.981V245.202C53.7389 245.096 53.7551 244.994 53.7841 244.92C53.813 244.845 53.8522 244.803 53.8931 244.803C53.9341 244.803 53.9733 244.845 54.0022 244.92C54.0311 244.994 54.0474 245.096 54.0474 245.202V252.981C54.0474 253.087 54.0311 253.188 54.0022 253.263C53.9733 253.338 53.9341 253.38 53.8931 253.38Z" fill="#CCCCCC"/>
<path d="M53.8931 250.707C53.8563 250.707 53.8207 250.673 53.7927 250.61L51.9417 246.502C51.9109 246.433 51.892 246.335 51.889 246.23C51.886 246.125 51.8992 246.021 51.9257 245.941C51.9523 245.861 51.99 245.811 52.0307 245.803C52.0713 245.794 52.1116 245.828 52.1427 245.896L53.9937 250.005C54.0176 250.058 54.0347 250.129 54.0426 250.208C54.0505 250.287 54.0488 250.37 54.0379 250.446C54.0269 250.523 54.0072 250.589 53.9813 250.635C53.9554 250.682 53.9247 250.707 53.8931 250.707Z" fill="#CCCCCC"/>
<path d="M346.296 557.443C346.296 537.93 340.175 491.626 332.625 491.626C325.074 491.626 318.954 537.93 318.954 557.443C318.956 566.817 320.397 575.804 322.961 582.43C325.524 589.055 329 592.777 332.625 592.777C336.249 592.777 339.725 589.055 342.289 582.43C344.852 575.804 346.293 566.817 346.296 557.443Z" fill="#00BFA6"/>
<path d="M332.625 635.735C332.583 635.735 332.543 635.693 332.514 635.617C332.485 635.541 332.468 635.438 332.468 635.331V552.796C332.468 552.743 332.472 552.69 332.48 552.64C332.488 552.591 332.499 552.546 332.514 552.509C332.528 552.471 332.546 552.441 332.565 552.42C332.584 552.4 332.604 552.389 332.625 552.389C332.645 552.389 332.666 552.4 332.685 552.42C332.704 552.441 332.721 552.471 332.735 552.509C332.75 552.546 332.761 552.591 332.769 552.64C332.777 552.69 332.781 552.743 332.781 552.796V635.331C332.781 635.438 332.764 635.541 332.735 635.617C332.706 635.693 332.666 635.735 332.625 635.735Z" fill="#CCCCCC"/>
<path d="M332.625 568.216C332.602 568.216 332.58 568.204 332.56 568.18C332.539 568.156 332.521 568.121 332.506 568.077L324.644 544.627C324.617 544.546 324.604 544.441 324.607 544.334C324.61 544.228 324.629 544.128 324.66 544.058C324.691 543.988 324.732 543.953 324.773 543.96C324.814 543.968 324.853 544.017 324.88 544.097L332.743 567.547C332.762 567.606 332.775 567.678 332.779 567.754C332.784 567.831 332.779 567.909 332.767 567.98C332.754 568.05 332.734 568.11 332.709 568.152C332.684 568.194 332.655 568.216 332.625 568.216Z" fill="#CCCCCC"/>
<path d="M332.625 581.749C332.594 581.749 332.563 581.726 332.538 581.681C332.512 581.637 332.492 581.574 332.48 581.5C332.468 581.426 332.465 581.345 332.471 581.266C332.477 581.188 332.492 581.116 332.514 581.059L336.982 569.505C336.996 569.467 337.013 569.438 337.032 569.417C337.051 569.397 337.072 569.387 337.092 569.387C337.113 569.387 337.133 569.397 337.152 569.417C337.171 569.438 337.188 569.467 337.203 569.505C337.217 569.543 337.229 569.587 337.237 569.636C337.244 569.685 337.249 569.738 337.249 569.791C337.249 569.844 337.244 569.897 337.237 569.946C337.229 569.995 337.217 570.039 337.203 570.077L332.735 581.631C332.721 581.669 332.703 581.698 332.684 581.719C332.665 581.739 332.645 581.749 332.625 581.749Z" fill="#CCCCCC"/>
<path d="M131.697 563.63H129.048C128.85 563.629 128.661 563.426 128.521 563.065C128.381 562.703 128.303 562.214 128.302 561.703V552.709C128.303 552.199 128.381 551.709 128.521 551.347C128.661 550.986 128.85 550.783 129.048 550.782H131.697C131.895 550.783 132.084 550.986 132.224 551.347C132.363 551.709 132.442 552.199 132.442 552.709V561.703C132.442 562.214 132.363 562.703 132.224 563.065C132.084 563.426 131.895 563.629 131.697 563.63Z" fill="#3F3D56"/>
<path d="M154.052 636.859H140.473C140.1 636.858 139.742 636.474 139.478 635.792C139.215 635.11 139.066 634.184 139.066 633.219V565.128C139.066 564.163 139.215 563.238 139.478 562.556C139.742 561.873 140.1 561.489 140.473 561.488H154.052C154.425 561.489 154.782 561.873 155.046 562.556C155.31 563.238 155.459 564.163 155.459 565.128V633.219C155.459 634.184 155.31 635.11 155.046 635.792C154.782 636.474 154.425 636.858 154.052 636.859Z" fill="#3F3D56"/>
<path d="M145.938 636.859H122.424C122.051 636.858 121.693 636.474 121.429 635.792C121.165 635.11 121.017 634.184 121.016 633.219V565.128C121.017 564.163 121.165 563.238 121.429 562.556C121.693 561.873 122.051 561.489 122.424 561.488H145.938C146.311 561.489 146.669 561.873 146.932 562.556C147.196 563.238 147.345 564.163 147.345 565.128V633.219C147.345 634.184 147.196 635.11 146.932 635.792C146.669 636.474 146.311 636.858 145.938 636.859Z" fill="#00BFA6"/>
<path d="M129.213 563.63H126.564C126.366 563.629 126.177 563.426 126.037 563.065C125.897 562.703 125.819 562.214 125.819 561.703V552.709C125.819 552.199 125.897 551.709 126.037 551.347C126.177 550.986 126.366 550.783 126.564 550.782H129.213C129.411 550.783 129.6 550.986 129.74 551.347C129.88 551.709 129.958 552.199 129.958 552.709V561.703C129.958 562.214 129.88 562.703 129.74 563.065C129.6 563.426 129.411 563.629 129.213 563.63Z" fill="#00BFA6"/>
<path d="M132.691 595.106H129.544C129.435 595.105 129.329 594.992 129.252 594.792C129.174 594.591 129.131 594.319 129.13 594.035V581.616C129.131 581.332 129.174 581.06 129.252 580.859C129.329 580.659 129.435 580.546 129.544 580.545H132.691C132.8 580.546 132.906 580.659 132.983 580.859C133.061 581.06 133.104 581.332 133.105 581.616V594.035C133.104 594.319 133.061 594.591 132.983 594.792C132.906 594.992 132.8 595.105 132.691 595.106Z" fill="white"/>
<path d="M138.817 595.106H135.671C135.561 595.105 135.456 594.992 135.378 594.792C135.301 594.591 135.257 594.319 135.257 594.035V581.616C135.257 581.332 135.301 581.06 135.378 580.859C135.456 580.659 135.561 580.546 135.671 580.545H138.817C138.927 580.546 139.032 580.659 139.11 580.859C139.187 581.06 139.231 581.332 139.231 581.616V594.035C139.231 594.319 139.187 594.591 139.11 594.792C139.032 594.992 138.927 595.105 138.817 595.106Z" fill="white"/>
<path d="M132.691 617.803H129.544C129.435 617.802 129.329 617.689 129.252 617.489C129.174 617.288 129.131 617.016 129.13 616.732V604.313C129.131 604.029 129.174 603.757 129.252 603.556C129.329 603.356 129.435 603.243 129.544 603.242H132.691C132.8 603.243 132.906 603.356 132.983 603.556C133.061 603.757 133.104 604.029 133.105 604.313V616.732C133.104 617.016 133.061 617.288 132.983 617.489C132.906 617.689 132.8 617.802 132.691 617.803Z" fill="white"/>
<path d="M138.817 617.803H135.671C135.561 617.802 135.456 617.689 135.378 617.489C135.301 617.288 135.257 617.016 135.257 616.732V604.313C135.257 604.029 135.301 603.757 135.378 603.556C135.456 603.356 135.561 603.243 135.671 603.242H138.817C138.927 603.243 139.032 603.356 139.11 603.556C139.187 603.757 139.231 604.029 139.231 604.313V616.732C139.231 617.016 139.187 617.288 139.11 617.489C139.032 617.689 138.927 617.802 138.817 617.803Z" fill="white"/>
<path d="M37.4497 350.191H34.3248C34.0918 350.191 33.8684 349.951 33.7036 349.525C33.5388 349.099 33.4462 348.521 33.4459 347.918V329.23C33.4462 328.627 33.5388 328.049 33.7036 327.623C33.8684 327.197 34.0918 326.958 34.3248 326.957H37.4497C37.6827 326.958 37.9061 327.197 38.0709 327.623C38.2356 328.049 38.3283 328.627 38.3286 329.23V347.918C38.3283 348.521 38.2356 349.099 38.0709 349.525C37.9061 349.951 37.6827 350.191 37.4497 350.191Z" fill="#3F3D56"/>
<path d="M49.754 524.45H33.7388C33.2987 524.449 32.8767 523.996 32.5655 523.191C32.2543 522.386 32.0792 521.295 32.0787 520.157V352.969C32.0792 351.831 32.2543 350.74 32.5655 349.935C32.8767 349.13 33.2987 348.677 33.7388 348.676H49.754C50.1941 348.677 50.6161 349.13 50.9273 349.935C51.2385 350.74 51.4136 351.831 51.4141 352.969V520.157C51.4136 521.295 51.2385 522.386 50.9273 523.191C50.6161 523.996 50.1941 524.449 49.754 524.45Z" fill="#3F3D56"/>
<path d="M40.184 524.45H24.1689C23.7287 524.449 23.3068 523.996 22.9956 523.191C22.6843 522.386 22.5093 521.295 22.5088 520.157V352.969C22.5093 351.831 22.6843 350.74 22.9956 349.935C23.3068 349.13 23.7287 348.677 24.1689 348.676H40.184C40.6241 348.677 41.0461 349.13 41.3573 349.935C41.6686 350.74 41.8436 351.831 41.8441 352.969V520.157C41.8436 521.295 41.6686 522.386 41.3573 523.191C41.0461 523.996 40.6241 524.449 40.184 524.45Z" fill="#00BFA6"/>
<path d="M34.5201 350.191H31.3952C31.1622 350.191 30.9388 349.951 30.7741 349.525C30.6093 349.099 30.5166 348.521 30.5164 347.918V329.23C30.5166 328.627 30.6093 328.049 30.7741 327.623C30.9388 327.197 31.1622 326.958 31.3952 326.957H34.5201C34.7532 326.958 34.9766 327.197 35.1413 327.623C35.3061 328.049 35.3988 328.627 35.399 329.23V347.918C35.3988 348.521 35.3061 349.099 35.1413 349.525C34.9766 349.951 34.7532 350.191 34.5201 350.191Z" fill="#00BFA6"/>
<path d="M30.4187 386.558H26.7079C26.5784 386.558 26.4543 386.425 26.3628 386.188C26.2712 385.951 26.2198 385.63 26.2196 385.296V370.648C26.2198 370.313 26.2712 369.992 26.3628 369.755C26.4543 369.519 26.5784 369.385 26.7079 369.385H30.4187C30.5481 369.385 30.6722 369.519 30.7638 369.755C30.8553 369.992 30.9068 370.313 30.9069 370.648V385.296C30.9068 385.63 30.8553 385.951 30.7638 386.188C30.6722 386.425 30.5481 386.558 30.4187 386.558Z" fill="white"/>
<path d="M37.645 386.558H33.9342C33.8047 386.558 33.6806 386.425 33.5891 386.188C33.4976 385.951 33.4461 385.63 33.4459 385.296V370.648C33.4461 370.313 33.4976 369.992 33.5891 369.755C33.6806 369.519 33.8047 369.385 33.9342 369.385H37.645C37.7745 369.385 37.8986 369.519 37.9901 369.755C38.0816 369.992 38.1331 370.313 38.1333 370.648V385.296C38.1331 385.63 38.0816 385.951 37.9901 386.188C37.8986 386.425 37.7745 386.558 37.645 386.558Z" fill="white"/>
<path d="M30.4187 413.329H26.7079C26.5784 413.328 26.4543 413.195 26.3628 412.958C26.2712 412.722 26.2198 412.401 26.2196 412.066V397.418C26.2198 397.083 26.2712 396.762 26.3628 396.525C26.4543 396.289 26.5784 396.156 26.7079 396.155H30.4187C30.5481 396.156 30.6722 396.289 30.7638 396.525C30.8553 396.762 30.9068 397.083 30.9069 397.418V412.066C30.9068 412.401 30.8553 412.722 30.7638 412.958C30.6722 413.195 30.5481 413.328 30.4187 413.329Z" fill="white"/>
<path d="M37.645 413.329H33.9342C33.8047 413.328 33.6806 413.195 33.5891 412.958C33.4976 412.722 33.4461 412.401 33.4459 412.066V397.418C33.4461 397.083 33.4976 396.762 33.5891 396.525C33.6806 396.289 33.8047 396.156 33.9342 396.155H37.645C37.7745 396.156 37.8986 396.289 37.9901 396.525C38.0816 396.762 38.1331 397.083 38.1333 397.418V412.066C38.1331 412.401 38.0816 412.722 37.9901 412.958C37.8986 413.195 37.7745 413.328 37.645 413.329Z" fill="white"/>
<path d="M30.4187 440.099H26.7079C26.5784 440.098 26.4543 439.965 26.3628 439.728C26.2712 439.492 26.2198 439.171 26.2196 438.836V424.188C26.2198 423.853 26.2712 423.532 26.3628 423.296C26.4543 423.059 26.5784 422.926 26.7079 422.925H30.4187C30.5481 422.926 30.6722 423.059 30.7638 423.296C30.8553 423.532 30.9068 423.853 30.9069 424.188V438.836C30.9068 439.171 30.8553 439.492 30.7638 439.728C30.6722 439.965 30.5481 440.098 30.4187 440.099Z" fill="white"/>
<path d="M37.645 440.099H33.9342C33.8047 440.098 33.6806 439.965 33.5891 439.728C33.4976 439.492 33.4461 439.171 33.4459 438.836V424.188C33.4461 423.853 33.4976 423.532 33.5891 423.296C33.6806 423.059 33.8047 422.926 33.9342 422.925H37.645C37.7745 422.926 37.8986 423.059 37.9901 423.296C38.0816 423.532 38.1331 423.853 38.1333 424.188V438.836C38.1331 439.171 38.0816 439.492 37.9901 439.728C37.8986 439.965 37.7745 440.098 37.645 440.099Z" fill="white"/>
<path d="M30.4187 466.869H26.7079C26.5784 466.868 26.4543 466.735 26.3628 466.499C26.2712 466.262 26.2198 465.941 26.2196 465.606V450.958C26.2198 450.623 26.2712 450.303 26.3628 450.066C26.4543 449.829 26.5784 449.696 26.7079 449.695H30.4187C30.5481 449.696 30.6722 449.829 30.7638 450.066C30.8553 450.303 30.9068 450.623 30.9069 450.958V465.606C30.9068 465.941 30.8553 466.262 30.7638 466.499C30.6722 466.735 30.5481 466.868 30.4187 466.869Z" fill="white"/>
<path d="M37.645 466.869H33.9342C33.8047 466.868 33.6806 466.735 33.5891 466.499C33.4976 466.262 33.4461 465.941 33.4459 465.606V450.958C33.4461 450.623 33.4976 450.303 33.5891 450.066C33.6806 449.829 33.8047 449.696 33.9342 449.695H37.645C37.7745 449.696 37.8986 449.829 37.9901 450.066C38.0816 450.303 38.1331 450.623 38.1333 450.958V465.606C38.1331 465.941 38.0816 466.262 37.9901 466.499C37.8986 466.735 37.7745 466.868 37.645 466.869Z" fill="white"/>
<path d="M30.4187 493.639H26.7079C26.5784 493.639 26.4543 493.505 26.3628 493.269C26.2712 493.032 26.2198 492.711 26.2196 492.376V477.728C26.2198 477.394 26.2712 477.073 26.3628 476.836C26.4543 476.599 26.5784 476.466 26.7079 476.466H30.4187C30.5481 476.466 30.6722 476.599 30.7638 476.836C30.8553 477.073 30.9068 477.394 30.9069 477.728V492.376C30.9068 492.711 30.8553 493.032 30.7638 493.269C30.6722 493.505 30.5481 493.639 30.4187 493.639Z" fill="white"/>
<path d="M37.645 493.639H33.9342C33.8047 493.639 33.6806 493.505 33.5891 493.269C33.4976 493.032 33.4461 492.711 33.4459 492.376V477.728C33.4461 477.394 33.4976 477.073 33.5891 476.836C33.6806 476.599 33.8047 476.466 33.9342 476.466H37.645C37.7745 476.466 37.8986 476.599 37.9901 476.836C38.0816 477.073 38.1331 477.394 38.1333 477.728V492.376C38.1331 492.711 38.0816 493.032 37.9901 493.269C37.8986 493.505 37.7745 493.639 37.645 493.639Z" fill="white"/>
<path d="M285.995 563.859H283.345C283.148 563.859 282.958 563.656 282.819 563.294C282.679 562.933 282.6 562.443 282.6 561.932V552.939C282.6 552.428 282.679 551.938 282.819 551.577C282.958 551.216 283.148 551.013 283.345 551.012H285.995C286.192 551.013 286.382 551.216 286.521 551.577C286.661 551.938 286.74 552.428 286.74 552.939V561.932C286.74 562.443 286.661 562.933 286.521 563.294C286.382 563.656 286.192 563.859 285.995 563.859Z" fill="#3F3D56"/>
<path d="M308.349 637.089H294.771C294.398 637.088 294.04 636.704 293.776 636.022C293.512 635.339 293.364 634.414 293.363 633.449V565.358C293.364 564.393 293.512 563.468 293.776 562.786C294.04 562.103 294.398 561.719 294.771 561.718H308.349C308.722 561.719 309.08 562.103 309.344 562.786C309.608 563.468 309.756 564.393 309.757 565.358V633.449C309.756 634.414 309.608 635.339 309.344 636.022C309.08 636.704 308.722 637.088 308.349 637.089Z" fill="#3F3D56"/>
<path d="M300.235 637.089H276.722C276.349 637.088 275.991 636.704 275.727 636.022C275.463 635.339 275.315 634.414 275.314 633.449V565.358C275.315 564.393 275.463 563.468 275.727 562.786C275.991 562.103 276.349 561.719 276.722 561.718H300.235C300.609 561.719 300.966 562.103 301.23 562.786C301.494 563.468 301.643 564.393 301.643 565.358V633.449C301.643 634.414 301.494 635.339 301.23 636.022C300.966 636.704 300.609 637.088 300.235 637.089Z" fill="#00BFA6"/>
<path d="M283.511 563.859H280.861C280.664 563.859 280.474 563.656 280.335 563.294C280.195 562.933 280.116 562.443 280.116 561.932V552.939C280.116 552.428 280.195 551.938 280.335 551.577C280.474 551.216 280.664 551.013 280.861 551.012H283.511C283.708 551.013 283.898 551.216 284.037 551.577C284.177 551.938 284.256 552.428 284.256 552.939V561.932C284.256 562.443 284.177 562.933 284.037 563.294C283.898 563.656 283.708 563.859 283.511 563.859Z" fill="#00BFA6"/>
<path d="M286.988 595.335H283.842C283.732 595.335 283.627 595.222 283.549 595.021C283.472 594.821 283.428 594.549 283.428 594.265V581.846C283.428 581.562 283.472 581.29 283.549 581.089C283.627 580.888 283.732 580.775 283.842 580.775H286.988C287.098 580.775 287.203 580.888 287.281 581.089C287.358 581.29 287.402 581.562 287.402 581.846V594.265C287.402 594.549 287.358 594.821 287.281 595.021C287.203 595.222 287.098 595.335 286.988 595.335Z" fill="white"/>
<path d="M293.115 595.335H289.969C289.859 595.335 289.754 595.222 289.676 595.021C289.599 594.821 289.555 594.549 289.555 594.265V581.846C289.555 581.562 289.599 581.29 289.676 581.089C289.754 580.888 289.859 580.775 289.969 580.775H293.115C293.225 580.775 293.33 580.888 293.408 581.089C293.485 581.29 293.529 581.562 293.529 581.846V594.265C293.529 594.549 293.485 594.821 293.408 595.021C293.33 595.222 293.225 595.335 293.115 595.335Z" fill="white"/>
<path d="M286.988 618.032H283.842C283.732 618.032 283.627 617.919 283.549 617.718C283.472 617.518 283.428 617.245 283.428 616.962V604.543C283.428 604.259 283.472 603.987 283.549 603.786C283.627 603.585 283.732 603.472 283.842 603.472H286.988C287.098 603.472 287.203 603.585 287.281 603.786C287.358 603.987 287.402 604.259 287.402 604.543V616.962C287.402 617.245 287.358 617.518 287.281 617.718C287.203 617.919 287.098 618.032 286.988 618.032Z" fill="white"/>
<path d="M293.115 618.032H289.969C289.859 618.032 289.754 617.919 289.676 617.718C289.599 617.518 289.555 617.245 289.555 616.962V604.543C289.555 604.259 289.599 603.987 289.676 603.786C289.754 603.585 289.859 603.472 289.969 603.472H293.115C293.225 603.472 293.33 603.585 293.408 603.786C293.485 603.987 293.529 604.259 293.529 604.543V616.962C293.529 617.245 293.485 617.518 293.408 617.718C293.33 617.919 293.225 618.032 293.115 618.032Z" fill="white"/>
</g>
<defs>
<clipPath id="clip0_6_241">
<rect width="370" height="773" fill="white"/>
</clipPath>
</defs>
</svg>
