<svg width="887" height="492" viewBox="0 0 887 492" fill="none" xmlns="http://www.w3.org/2000/svg">
<g clip-path="url(#clip0_2_2)">
<path d="M232.727 154.034C260.763 154.034 283.49 131.307 283.49 103.272C283.49 75.2364 260.763 52.5092 232.727 52.5092C204.692 52.5092 181.965 75.2364 181.965 103.272C181.965 131.307 204.692 154.034 232.727 154.034Z" fill="#FF6584"/>
<path d="M391.914 259.704L142.887 259.704C142.575 259.708 142.264 259.683 141.957 259.63L259.735 55.6215C260.453 54.3509 261.497 53.294 262.758 52.5586C264.019 51.8232 265.452 51.4357 266.912 51.4357C268.372 51.4357 269.805 51.8232 271.066 52.5586C272.327 53.294 273.371 54.3509 274.089 55.6215L353.133 192.527L356.92 199.078L391.914 259.704Z" fill="#3F3D56"/>
<path opacity="0.2" d="M391.914 259.703L306.89 259.703L348.628 199.077L351.632 194.71L353.134 192.527L356.921 199.077L391.914 259.703Z" fill="black"/>
<path d="M530.57 259.704L315.182 259.704L356.92 199.078L359.924 194.711L414.312 115.704C417.878 110.526 426.455 110.203 430.648 114.727C430.929 115.036 431.191 115.362 431.431 115.704L530.57 259.704Z" fill="#3F3D56"/>
<path d="M593.795 226.142C602.243 226.142 609.091 219.293 609.091 210.845C609.091 202.397 602.243 195.549 593.795 195.549C585.347 195.549 578.498 202.397 578.498 210.845C578.498 219.293 585.347 226.142 593.795 226.142Z" fill="#00BFA6"/>
<path d="M595.27 256.919L592.137 256.919L593.565 208.541L595.27 256.919Z" fill="#3F3D56"/>
<path d="M593.841 217.71L597.205 213.056L593.795 218.862L593.427 218.217L593.841 217.71Z" fill="#3F3D56"/>
<path d="M593.473 222.409L590.109 217.756L593.519 223.561L593.887 222.916L593.473 222.409Z" fill="#3F3D56"/>
<path d="M734.112 226.142C742.56 226.142 749.408 219.293 749.408 210.845C749.408 202.397 742.56 195.549 734.112 195.549C725.664 195.549 718.815 202.397 718.815 210.845C718.815 219.293 725.664 226.142 734.112 226.142Z" fill="#00BFA6"/>
<path d="M735.586 256.919L732.453 256.919L733.882 208.541L735.586 256.919Z" fill="#3F3D56"/>
<path d="M734.158 217.71L737.522 213.056L734.112 218.862L733.743 218.217L734.158 217.71Z" fill="#3F3D56"/>
<path d="M733.79 222.409L730.426 217.756L733.836 223.561L734.204 222.916L733.79 222.409Z" fill="#3F3D56"/>
<path d="M638.106 211.464C650.583 211.464 660.698 201.349 660.698 188.872C660.698 176.395 650.583 166.28 638.106 166.28C625.629 166.28 615.514 176.395 615.514 188.872C615.514 201.349 625.629 211.464 638.106 211.464Z" fill="#00BFA6"/>
<path d="M640.284 256.919L635.657 256.919L637.766 185.469L640.284 256.919Z" fill="#3F3D56"/>
<path d="M638.175 199.01L643.142 192.138L638.107 200.712L637.562 199.759L638.175 199.01Z" fill="#3F3D56"/>
<path d="M637.63 205.951L632.663 199.079L637.698 207.652L638.243 206.7L637.63 205.951Z" fill="#3F3D56"/>
<path d="M693.2 211.464C705.677 211.464 715.791 201.349 715.791 188.872C715.791 176.395 705.677 166.28 693.2 166.28C680.723 166.28 670.608 176.395 670.608 188.872C670.608 201.349 680.723 211.464 693.2 211.464Z" fill="#00BFA6"/>
<path d="M695.378 256.919L690.751 256.919L692.86 185.469L695.378 256.919Z" fill="#3F3D56"/>
<path d="M693.268 199.01L698.236 192.138L693.2 200.712L692.656 199.759L693.268 199.01Z" fill="#3F3D56"/>
<path d="M692.724 205.951L687.756 199.079L692.792 207.652L693.336 206.7L692.724 205.951Z" fill="#3F3D56"/>
<path d="M550.301 211.464C562.778 211.464 572.892 201.349 572.892 188.872C572.892 176.395 562.778 166.28 550.301 166.28C537.824 166.28 527.709 176.395 527.709 188.872C527.709 201.349 537.824 211.464 550.301 211.464Z" fill="#00BFA6"/>
<path d="M552.478 256.919L547.851 256.919L549.961 185.469L552.478 256.919Z" fill="#3F3D56"/>
<path d="M550.369 199.01L555.336 192.138L550.301 200.712L549.757 199.759L550.369 199.01Z" fill="#3F3D56"/>
<path d="M549.825 205.951L544.857 199.079L549.893 207.652L550.437 206.7L549.825 205.951Z" fill="#3F3D56"/>
<path d="M817.581 491.657L80.3154 491.657C71.0265 491.657 61.8285 489.827 53.2467 486.272C44.6648 482.718 36.8672 477.507 30.2989 470.939C23.7306 464.371 18.5204 456.573 14.9657 447.991C11.411 439.41 9.58139 430.212 9.58139 420.923C9.58139 411.634 11.411 402.436 14.9657 393.854C18.5204 385.272 23.7306 377.474 30.2989 370.906C36.8672 364.338 44.6648 359.128 53.2467 355.573C61.8285 352.018 71.0265 350.189 80.3154 350.189L815.949 350.189C823.164 350.189 830.084 347.322 835.186 342.22C840.288 337.118 843.154 330.199 843.154 322.983C843.154 315.768 840.288 308.848 835.186 303.746C830.084 298.644 823.164 295.778 815.949 295.778L55.8306 295.778L55.8306 252.249L815.949 252.249C834.709 252.249 852.7 259.702 865.965 272.967C879.23 286.232 886.683 304.223 886.683 322.983C886.683 341.743 879.23 359.735 865.965 373C852.7 386.265 834.709 393.717 815.949 393.717L80.3154 393.717C73.1001 393.717 66.1803 396.584 61.0783 401.686C55.9763 406.788 53.11 413.707 53.11 420.923C53.11 428.138 55.9763 435.058 61.0783 440.16C66.1803 445.262 73.1001 448.128 80.3154 448.128L817.581 448.128L817.581 491.657Z" fill="#E6E6E6"/>
<path d="M116.771 272.925L83.0359 272.925L83.0359 275.102L116.771 275.102L116.771 272.925Z" fill="white"/>
<path d="M212.534 272.925L178.799 272.925L178.799 275.102L212.534 275.102L212.534 272.925Z" fill="white"/>
<path d="M308.296 272.925L274.562 272.925L274.562 275.102L308.296 275.102L308.296 272.925Z" fill="white"/>
<path d="M404.059 272.925L370.325 272.925L370.325 275.102L404.059 275.102L404.059 272.925Z" fill="white"/>
<path d="M499.822 272.925L466.088 272.925L466.088 275.102L499.822 275.102L499.822 272.925Z" fill="white"/>
<path d="M595.585 272.925L561.851 272.925L561.851 275.102L595.585 275.102L595.585 272.925Z" fill="white"/>
<path d="M691.348 272.925L657.614 272.925L657.614 275.102L691.348 275.102L691.348 272.925Z" fill="white"/>
<path d="M787.111 272.925L753.376 272.925L753.376 275.102L787.111 275.102L787.111 272.925Z" fill="white"/>
<path d="M116.771 370.865L83.0359 370.865L83.0359 373.041L116.771 373.041L116.771 370.865Z" fill="white"/>
<path d="M212.534 370.865L178.799 370.865L178.799 373.041L212.534 373.041L212.534 370.865Z" fill="white"/>
<path d="M308.296 370.865L274.562 370.865L274.562 373.041L308.296 373.041L308.296 370.865Z" fill="white"/>
<path d="M404.059 370.865L370.325 370.865L370.325 373.041L404.059 373.041L404.059 370.865Z" fill="white"/>
<path d="M499.822 370.865L466.088 370.865L466.088 373.041L499.822 373.041L499.822 370.865Z" fill="white"/>
<path d="M595.585 370.865L561.851 370.865L561.851 373.041L595.585 373.041L595.585 370.865Z" fill="white"/>
<path d="M691.348 370.865L657.614 370.865L657.614 373.041L691.348 373.041L691.348 370.865Z" fill="white"/>
<path d="M787.111 370.865L753.376 370.865L753.376 373.041L787.111 373.041L787.111 370.865Z" fill="white"/>
<path d="M116.771 468.804L83.0359 468.804L83.0359 470.98L116.771 470.98L116.771 468.804Z" fill="white"/>
<path d="M212.534 468.804L178.799 468.804L178.799 470.98L212.534 470.98L212.534 468.804Z" fill="white"/>
<path d="M308.296 468.804L274.562 468.804L274.562 470.98L308.296 470.98L308.296 468.804Z" fill="white"/>
<path d="M404.059 468.804L370.325 468.804L370.325 470.98L404.059 470.98L404.059 468.804Z" fill="white"/>
<path d="M499.822 468.804L466.088 468.804L466.088 470.98L499.822 470.98L499.822 468.804Z" fill="white"/>
<path d="M595.585 468.804L561.851 468.804L561.851 470.98L595.585 470.98L595.585 468.804Z" fill="white"/>
<path d="M691.348 468.804L657.614 468.804L657.614 470.98L691.348 470.98L691.348 468.804Z" fill="white"/>
<path d="M787.111 468.804L753.376 468.804L753.376 470.98L787.111 470.98L787.111 468.804Z" fill="white"/>
<path d="M592.199 86.3996C595.743 86.3963 599.23 87.2972 602.329 89.017L582.096 89.017C585.186 87.2977 588.664 86.3967 592.199 86.3996Z" fill="#E6E6E6"/>
<path d="M552.938 83.7822C558.858 83.7753 564.635 85.6042 569.472 89.017L536.427 89.017C541.258 85.6082 547.026 83.7794 552.938 83.7822Z" fill="#E6E6E6"/>
<path d="M330.543 50.6485C331.261 37.9527 336.465 25.9246 345.226 16.7086C353.988 7.4926 365.738 1.68783 378.381 0.329209C391.024 -1.02942 403.739 2.14642 414.259 9.2905C424.778 16.4346 432.419 27.0825 435.818 39.3359C436.468 39.3126 437.117 39.2864 437.773 39.2864C449.365 39.2886 460.645 43.044 469.925 49.9909C479.205 56.9378 485.987 66.7027 489.255 77.8248C496.936 74.4496 505.52 73.7173 513.663 75.7426C521.805 77.7679 529.045 82.4364 534.25 89.017L366.878 89.017C361.996 89.0308 357.16 88.0592 352.662 86.1603C348.163 84.2615 344.094 81.4744 340.698 77.9659C337.302 74.4575 334.649 70.2999 332.898 65.742C331.146 61.1841 330.333 56.3196 330.505 51.4398C330.516 51.1764 330.529 50.9126 330.543 50.6485Z" fill="#E6E6E6"/>
<path d="M604.412 125.575C600.868 125.572 597.382 126.473 594.283 128.193L614.516 128.193C611.426 126.473 607.948 125.572 604.412 125.575Z" fill="#E6E6E6"/>
<path d="M643.673 122.958C637.753 122.951 631.977 124.78 627.139 128.193L660.185 128.193C655.354 124.784 649.586 122.955 643.673 122.958Z" fill="#E6E6E6"/>
<path d="M866.068 89.8242C865.35 77.1284 860.147 65.1003 851.385 55.8843C842.624 46.6683 830.874 40.8636 818.231 39.5049C805.587 38.1463 792.873 41.3221 782.353 48.4662C771.833 55.6103 764.193 66.2582 760.794 78.5116C760.144 78.4883 759.495 78.4622 758.839 78.4622C747.247 78.4643 735.967 82.2197 726.686 89.1666C717.406 96.1135 710.625 105.878 707.357 117C699.675 113.625 691.091 112.893 682.949 114.918C674.807 116.944 667.566 121.612 662.361 128.193L829.733 128.193C834.616 128.207 839.451 127.235 843.95 125.336C848.448 123.437 852.517 120.65 855.913 117.142C859.309 113.633 861.963 109.476 863.714 104.918C865.465 100.36 866.279 95.4953 866.106 90.6155C866.096 90.3521 866.083 90.0884 866.068 89.8242Z" fill="#E6E6E6"/>
<path d="M754.483 461.238L773.936 461.248L773.937 458.161L754.485 458.15L754.483 461.238Z" fill="#3F3D56"/>
<path d="M613.839 458.847L617.852 459.775L770.386 459.857L771.757 456.661C774.15 451.18 774.971 445.141 774.129 439.219C773.472 434.806 771.826 430.42 768.087 428.515L761.318 383.431L676.929 383.28L644.279 409.614C644.279 409.614 628.878 409.337 620.511 419.754C617.492 423.627 615.71 428.319 615.396 433.22L615.066 438.639L613.839 458.847Z" fill="#00BFA6"/>
<path d="M647.341 476.928C657.743 476.928 666.176 468.495 666.176 458.093C666.176 447.691 657.743 439.258 647.341 439.258C636.939 439.258 628.506 447.691 628.506 458.093C628.506 468.495 636.939 476.928 647.341 476.928Z" fill="#3F3D56"/>
<path d="M647.341 468.006C652.816 468.006 657.254 463.568 657.254 458.093C657.254 452.618 652.816 448.18 647.341 448.18C641.866 448.18 637.428 452.618 637.428 458.093C637.428 463.568 641.866 468.006 647.341 468.006Z" fill="#CCCCCC"/>
<path d="M740.281 476.978C750.684 476.978 759.116 468.545 759.116 458.143C759.116 447.74 750.684 439.308 740.281 439.308C729.879 439.308 721.446 447.74 721.446 458.143C721.446 468.545 729.879 476.978 740.281 476.978Z" fill="#3F3D56"/>
<path d="M740.281 468.056C745.756 468.056 750.194 463.618 750.194 458.143C750.194 452.668 745.756 448.229 740.281 448.229C734.806 448.229 730.368 452.668 730.368 458.143C730.368 463.618 734.806 468.056 740.281 468.056Z" fill="#CCCCCC"/>
<path d="M657.252 406.536L702.815 406.555L708.377 406.555L717.767 406.562L717.767 405.877L717.774 397.619L717.781 388.347L711.533 388.347L705.971 388.341L696.119 388.334L690.557 388.334L679.183 388.327L657.252 406.536Z" fill="white"/>
<path d="M725.181 406.569L749.261 406.582L749.267 401.857L749.267 393.599L749.274 388.367L745.748 388.367L740.186 388.36L725.188 388.354L725.181 406.569Z" fill="white"/>
<path d="M714.67 426.017L717.758 426.018L717.761 420.152L714.674 420.15L714.67 426.017Z" fill="#3F3D56"/>
<path d="M669.595 414.877L669.597 411.789L663.73 411.786L663.729 414.874L669.595 414.877Z" fill="#3F3D56"/>
<path d="M667.435 413.146L667.095 413.146C666.248 413.146 665.409 412.978 664.626 412.654C663.843 412.329 663.132 411.853 662.533 411.254C661.934 410.654 661.459 409.942 661.136 409.159C660.812 408.376 660.645 407.537 660.646 406.689C660.646 405.842 660.813 405.003 661.138 404.22C661.463 403.437 661.939 402.726 662.538 402.127C663.138 401.528 663.849 401.053 664.633 400.729C665.416 400.406 666.255 400.239 667.102 400.24L667.442 400.24L667.435 413.146Z" fill="#3F3D56"/>
<path d="M615.066 438.639C617.401 438.892 619.751 438.314 621.701 437.006C623.652 435.697 625.078 433.742 625.729 431.485C626.38 429.229 626.213 426.814 625.258 424.668C624.304 422.522 622.623 420.782 620.511 419.754C617.492 423.627 615.71 428.319 615.396 433.22L615.066 438.639Z" fill="#3F3D56"/>
<path d="M705.971 388.341L717.767 405.877L717.774 397.619L711.533 388.347L705.971 388.341Z" fill="#F2F2F2"/>
<path d="M740.186 388.36L749.267 401.857L749.267 393.599L745.748 388.367L740.186 388.36Z" fill="#F2F2F2"/>
<path d="M690.557 388.334L702.815 406.555L708.377 406.555L696.119 388.334L690.557 388.334Z" fill="#F2F2F2"/>
<path d="M50.3895 311.013C78.0357 311.013 100.447 288.601 100.447 260.955C100.447 233.309 78.0357 210.897 50.3895 210.897C22.7433 210.897 0.331573 233.309 0.331573 260.955C0.331573 288.601 22.7433 311.013 50.3895 311.013Z" fill="#3F3D56"/>
<path d="M50.5978 276.025L25.547 250.975C24.7322 250.158 24.2748 249.051 24.2755 247.897C24.2761 246.744 24.7347 245.637 25.5504 244.822C26.3662 244.006 27.4725 243.547 28.6262 243.547C29.7799 243.546 30.8866 244.003 31.7033 244.818L50.1812 263.296L109.145 196.057C109.907 195.191 110.981 194.662 112.132 194.588C113.283 194.513 114.416 194.898 115.284 195.659C116.151 196.419 116.681 197.493 116.757 198.643C116.833 199.794 116.45 200.928 115.69 201.797L50.5978 276.025Z" fill="#00BFA6"/>
</g>
<defs>
<clipPath id="clip0_2_2">
<rect width="886.351" height="491.631" fill="white" transform="translate(0.331573 0.0254517)"/>
</clipPath>
</defs>
</svg>
