<svg width="14" height="14" viewBox="0 0 14 14" fill="none" xmlns="http://www.w3.org/2000/svg">
<path d="M6.66667 0C5.34813 0 4.0592 0.38692 2.96287 1.11183C1.86654 1.83674 1.01206 2.86709 0.507473 4.07257C0.00288856 5.27806 -0.129134 6.60454 0.128101 7.88428C0.385336 9.16401 1.02027 10.3395 1.95262 11.2622C2.88497 12.1848 4.07286 12.8131 5.36607 13.0677C6.65927 13.3222 7.99972 13.1916 9.21789 12.6923C10.4361 12.1929 11.4773 11.3474 12.2098 10.2624C12.9423 9.17754 13.3333 7.90203 13.3333 6.59722C13.3333 5.73086 13.1609 4.87299 12.8259 4.07257C12.4908 3.27216 11.9998 2.54489 11.3807 1.93228C10.7617 1.31967 10.0267 0.833725 9.21789 0.502184C8.40905 0.170642 7.54215 0 6.66667 0ZM10.4507 5.43413L6.45067 9.0626C6.32403 9.17752 6.15744 9.23961 5.98565 9.23592C5.81387 9.23223 5.65016 9.16305 5.52867 9.04281L3.52867 7.06365C3.465 7.00279 3.41421 6.92999 3.37927 6.8495C3.34433 6.76901 3.32594 6.68245 3.32517 6.59485C3.3244 6.50725 3.34127 6.42038 3.37479 6.3393C3.40831 6.25822 3.45781 6.18456 3.52041 6.12262C3.583 6.06068 3.65744 6.01169 3.73937 5.97852C3.8213 5.94535 3.90908 5.92866 3.9976 5.92942C4.08612 5.93018 4.1736 5.94838 4.25494 5.98295C4.33627 6.01753 4.40984 6.06779 4.47134 6.1308L6.02 7.66333L9.54933 4.4617C9.67964 4.34342 9.8521 4.28121 10.0288 4.28876C10.2054 4.29631 10.3718 4.37299 10.4913 4.50194C10.6109 4.6309 10.6737 4.80155 10.6661 4.97637C10.6585 5.15119 10.581 5.31585 10.4507 5.43413Z" fill="white"/>
</svg>
